<?xml version="1.0" standalone="no"?>
<!DOCTYPE svg PUBLIC "-//W3C//DTD SVG 1.1//EN" "http://www.w3.org/Graphics/SVG/1.1/DTD/svg11.dtd" >
<svg xmlns="http://www.w3.org/2000/svg" xmlns:xlink="http://www.w3.org/1999/xlink" version="1.1">
<metadata>
Created by FontForge 20170731 at Thu Apr 16 09:54:00 2020
 By Aleksey,,,
Copyright (c) 2020 by Alfredo Marco Pradil. All rights reserved.
</metadata>
<defs>
<font id="OpenSauceTwo-Regular" horiz-adv-x="0" >
  <font-face 
    font-family="Open Sauce Two"
    font-weight="400"
    font-stretch="normal"
    units-per-em="1000"
    panose-1="0 0 5 0 0 0 0 0 0 0"
    ascent="763"
    descent="-237"
    x-height="553"
    cap-height="763"
    bbox="-695 -237 1216 1028"
    underline-thickness="50"
    underline-position="-150"
    unicode-range="U+0020-FB02"
  />
<missing-glyph horiz-adv-x="618" 
d="M539 0h-460v553h460v-553zM119 513v-473h380v473h-380z" />
    <glyph glyph-name="fi" unicode="fi" horiz-adv-x="580" 
d="M128 0q-10 0 -10 10v458q0 10 -10 10h-72q-10 0 -10 10v55q0 10 10 10h72q10 0 10 10v50q0 74 36 112t107 38h61q10 0 10 -10v-55q0 -10 -10 -10h-42q-40 0 -58.5 -21t-18.5 -65v-39q0 -10 10 -10h109q10 0 10 -10v-55q0 -10 -10 -10h-109q-10 0 -10 -10v-458
q0 -10 -10 -10h-65zM434 0q-10 0 -10 10v533q0 10 10 10h65q10 0 10 -10v-533q0 -10 -10 -10h-65zM421 666.5q-19 18.5 -19 44.5t19 44t46 18t46 -18t19 -44t-19 -44.5t-46 -18.5t-46 18.5z" />
    <glyph glyph-name="fl" unicode="fl" horiz-adv-x="630" 
d="M128 0q-10 0 -10 10v458q0 10 -10 10h-72q-10 0 -10 10v55q0 10 10 10h72q10 0 10 10v50q0 74 36 112t107 38h61q10 0 10 -10v-55q0 -10 -10 -10h-42q-40 0 -58.5 -21t-18.5 -65v-39q0 -10 10 -10h109q10 0 10 -10v-55q0 -10 -10 -10h-109q-10 0 -10 -10v-458
q0 -10 -10 -10h-65zM553 0q-67 0 -99 30t-32 109v614q0 10 10 10h65q10 0 10 -10v-601q0 -29 4 -44.5t18 -24t44 -8.5h17q10 0 10 -10v-55q0 -10 -10 -10h-37z" />
    <glyph glyph-name="s_a_u_c_e_l_o_g_o.liga" unicode="saucelogo" horiz-adv-x="921" 
d="M88 0q-9 0 -9 10v743q0 10 9 10h744q10 0 10 -10v-743q0 -10 -10 -10h-744zM255 94q11 11 17 22.5t14 31.5q13 36 33 69t67 82l25 26q4 4 8 4t9 -3q7 -4 17 -6q10 -3 10 -13v-36q0 -43 -5.5 -67t-15.5 -47q-10 -20 -10 -37q0 -14 11 -25t25 -11q15 0 26 11t11 25
q0 17 -10 37q-10 23 -15.5 47t-5.5 67v36q0 10 10 13q13 4 15 6q5 3 8 3q5 0 9 -4l26 -26q48 -48 68 -81.5t33 -69.5q6 -19 12 -30.5t18 -23.5q17 -15 40 -15q26 0 41 15q17 17 17 42t-16 40q-12 12 -23.5 18t-30.5 12q-37 13 -70 32.5t-81 67.5l-26 26q-4 4 -4 9q0 3 3 7
q6 12 7 18q3 11 12 11h36q44 0 68.5 -6t46.5 -16q2 -1 13 -5.5t24 -4.5q14 0 25 11t11 26q0 14 -11 25.5t-25 11.5q-13 0 -24 -4.5t-13 -5.5q-22 -10 -46.5 -16t-68.5 -6h-36q-9 0 -12 11q-4 10 -7 15t-3 8q0 4 4 8l26 26q48 48 82 68.5t69 31.5q4 2 16 6.5t21 10t16 13.5
q17 19 17 41q0 24 -17 41q-16 16 -41 16t-40 -15q-11 -11 -17 -22.5t-14 -32.5q-13 -37 -32.5 -70t-67.5 -81l-25 -24q-3 -4 -9 -4q-4 0 -7 2q-5 3 -17 7q-10 3 -10 13v36q0 43 5.5 67t15.5 47q10 20 10 37q0 14 -11 25t-25 11q-15 0 -26 -11t-11 -25q0 -17 10 -37
q10 -23 15.5 -47t5.5 -67v-36q0 -10 -10 -13q-2 -1 -7.5 -2.5t-9.5 -4.5q-3 -2 -7 -2q-6 0 -10 4l-25 24q-49 49 -69.5 83t-31.5 69q-7 19 -13 31t-17 23q-16 16 -40 16q-22 0 -40 -16q-17 -17 -17 -42t16 -41q11 -11 22.5 -17t30.5 -13q36 -13 69 -33t82 -67l26 -25
q4 -4 4 -8q0 -3 -3 -8q-2 -3 -7 -16q-3 -11 -12 -11h-36q-44 0 -68.5 6t-46.5 16q-2 1 -13 5.5t-24 4.5q-14 0 -25 -11.5t-11 -25.5q0 -15 11 -26t25 -11q13 0 24 4.5t13 5.5q22 10 46.5 16t68.5 6h36q9 0 12 -11q5 -12 8 -17q2 -6 2 -7q0 -5 -4 -9l-26 -27
q-48 -49 -81.5 -68.5t-69.5 -31.5q-20 -7 -31.5 -13t-22.5 -17q-16 -15 -16 -40q0 -24 16 -41q16 -16 42 -16q25 0 40 15zM422 343.5q-16 16.5 -16 38.5t16 38t38 16t38 -16t16 -38q0 -23 -16 -39t-38 -16t-38 16.5zM492 354l-6 6q-10 -13 -26 -13q-14 0 -24 10.5t-10 24.5
t10.5 24t23.5 10q16 0 27 -13l5 6q-10 15 -32 15q-17 0 -30 -12.5t-13 -29.5t13 -30t30 -13q22 0 32 15z" />
    <glyph glyph-name=".notdef" horiz-adv-x="618" 
d="M539 0h-460v553h460v-553zM119 513v-473h380v473h-380z" />
    <glyph glyph-name=".null" 
 />
    <glyph glyph-name="nonmarkingreturn" horiz-adv-x="333" 
 />
    <glyph glyph-name="space" unicode=" " horiz-adv-x="280" 
 />
    <glyph glyph-name="exclam" unicode="!" horiz-adv-x="253" 
d="M90 218q0 18 -2 54q-4 116 -4 213v278h85v-278q0 -97 -4 -213q-2 -36 -2 -54h-73zM84.5 7.5q-17.5 17.5 -17.5 42.5q0 24 17.5 41t42.5 17q23 0 40.5 -17t17.5 -41q0 -25 -17 -42.5t-41 -17.5q-25 0 -42.5 17.5z" />
    <glyph glyph-name="quotedbl" unicode="&#x22;" horiz-adv-x="355" 
d="M131 510h-85v253h85v-253zM308 510h-85v253h85v-253z" />
    <glyph glyph-name="numbersign" unicode="#" horiz-adv-x="751" 
d="M203 0h-67l49 230h-133v60h146l39 197h-139v62h153l47 214h67l-47 -217h181l45 217h67l-47 -217h135v-59h-148l-42 -197h144v-60h-156l-48 -230h-67l49 230h-182zM304 487l-39 -197h180l39 197h-180z" />
    <glyph glyph-name="dollar" unicode="$" horiz-adv-x="673" 
d="M555.5 52q-66.5 -60 -190.5 -62v-80q0 -10 -10 -10h-22q-10 0 -10 10v81q-108 7 -183.5 64t-95.5 165v2q0 9 9 9h73q10 0 11 -9q17 -70 67.5 -105.5t118.5 -42.5v286l-4 1q-80 17 -129 34.5t-83 57.5t-34 110q0 64 31.5 111.5t88 73t130.5 25.5v80q0 10 10 10h22
q10 0 10 -10v-82q89 -10 152 -61.5t81 -145.5v-2q0 -9 -9 -9h-69q-9 0 -11 9q-15 57 -53 87.5t-91 38.5v-253q83 -18 134.5 -37.5t87 -63.5t35.5 -121q0 -101 -66.5 -161zM205 488.5q40 -26.5 118 -44.5v247h-1q-76 0 -116.5 -32t-40.5 -88t40 -82.5zM365 72q79 2 122 35.5
t43 99.5q0 64 -42.5 94.5t-122.5 49.5v-279z" />
    <glyph glyph-name="percent" unicode="%" horiz-adv-x="788" 
d="M123.5 448q-34.5 24 -53 64t-18.5 87t18 86.5t52 63.5t79 24q42 0 76 -23t53.5 -63t19.5 -88q0 -49 -19 -89t-52.5 -63t-74.5 -23q-46 0 -80.5 24zM144 0q-6 0 -8 3.5t1 8.5l434 744q5 7 12 7h60q6 0 8 -3.5t-1 -8.5l-434 -744q-5 -7 -12 -7h-60zM260 524q22 30 22 75
q0 44 -22.5 75t-58.5 31q-38 0 -59 -30.5t-21 -75.5t21.5 -75t61.5 -30q34 0 56 30zM509.5 13.5q-34.5 23.5 -53 63.5t-18.5 87t18 87t52 63.5t79 23.5q42 0 76 -23t53.5 -63t19.5 -89t-19 -88.5t-52.5 -62t-74.5 -22.5q-46 0 -80.5 23.5zM646 88q22 30 22 75t-22 75.5
t-59 30.5q-38 0 -58.5 -30t-20.5 -75q0 -46 21 -76t61 -30q34 0 56 30z" />
    <glyph glyph-name="ampersand" unicode="&#x26;" horiz-adv-x="727" 
d="M175 12q-55 22 -87 65t-32 102q0 71 43 122t125 98q10 6 2 14q-45 49 -64.5 87t-19.5 84q0 60 27 102.5t73 64.5t103 22q53 0 96.5 -21t69 -60.5t25.5 -92.5q0 -123 -160 -203q-4 -2 -5 -6t2 -8l147 -181q4 -4 7 -4q4 0 7 5q23 40 34.5 79t17.5 86q2 9 10 9h64q5 0 8 -3
t2 -8q-19 -140 -83 -232q-2 -4 -2 -6q0 -5 3 -8l86 -107q2 -2 2 -6q0 -6 -8 -6h-87q-8 0 -13 6l-44 55q-7 8 -13 2q-32 -34 -92 -53.5t-122 -19.5q-67 0 -122 22zM315 446q46 27 73.5 47.5t45 48t17.5 63.5t-30.5 64.5t-75.5 28.5q-50 0 -84 -30.5t-34 -81.5q0 -35 17.5 -64
t56.5 -73q6 -8 14 -3zM387 80q43 15 76 42q8 6 2 14l-169 207q-7 7 -14 2q-69 -38 -105 -73.5t-36 -87.5q0 -55 44 -87t113 -32q46 0 89 15z" />
    <glyph glyph-name="quotesingle" unicode="'" horiz-adv-x="177" 
d="M131 510h-85v253h85v-253z" />
    <glyph glyph-name="parenleft" unicode="(" horiz-adv-x="297" 
d="M178 -111q-120 216 -120 491q0 144 30.5 264.5t89.5 227.5h95q-68 -119 -99 -237t-31 -255q0 -135 31.5 -255t97.5 -236h-94z" />
    <glyph glyph-name="parenright" unicode=")" horiz-adv-x="297" 
d="M25 -111q66 116 97.5 236t31.5 255q0 137 -31 255t-99 237h95q59 -107 89.5 -227.5t30.5 -264.5q0 -275 -120 -491h-94z" />
    <glyph glyph-name="asterisk" unicode="*" horiz-adv-x="415" 
d="M77 487q24 28 48 51t61 51l-4 13q-14 -1 -37 -1q-46 0 -108 10l28 78q37 -18 62 -32t56 -39l11 8q-18 68 -27 137h82q-9 -71 -30 -137l11 -8q33 25 58 38.5t64 32.5l26 -79q-56 -9 -108 -9q-24 0 -38 1l-4 -13q37 -26 59 -47.5t52 -54.5l-69 -47q-36 76 -56 139h-14
q-13 -40 -25 -68.5t-32 -70.5z" />
    <glyph glyph-name="plus" unicode="+" horiz-adv-x="636" 
d="M292 60q-10 0 -10 10v222q0 10 -10 10h-222q-10 0 -10 10v51q0 10 10 10h222q10 0 10 10v222q0 10 10 10h51q10 0 10 -10v-222q0 -10 10 -10h222q10 0 10 -10v-51q0 -10 -10 -10h-222q-10 0 -10 -10v-222q0 -10 -10 -10h-51z" />
    <glyph glyph-name="comma" unicode="," horiz-adv-x="270" 
d="M73 -170q-4 0 -6.5 3t-2.5 7v25q0 8 9 11q41 8 64 36.5t23 69.5q0 10 -1 15q-1 6 -4.5 7t-7.5 -3q-11 -11 -35 -11q-22 0 -37 15.5t-15 41.5q0 27 17.5 44t46.5 17q39 0 62.5 -32t23.5 -84q0 -58 -33.5 -104.5t-101.5 -57.5h-2z" />
    <glyph glyph-name="hyphen" unicode="-" horiz-adv-x="344" 
d="M320 297h-296v74h296v-74z" />
    <glyph glyph-name="period" unicode="." horiz-adv-x="238" 
d="M78 7.5q-18 17.5 -18 42.5q0 24 18 41t43 17q23 0 40 -17.5t17 -40.5q0 -25 -17 -42.5t-40 -17.5q-25 0 -43 17.5z" />
    <glyph glyph-name="slash" unicode="/" horiz-adv-x="454" 
d="M422 763l-346 -874h-79l346 874h79z" />
    <glyph glyph-name="zero" unicode="0" horiz-adv-x="660" 
d="M137.5 90q-69.5 99 -69.5 293q0 193 68.5 291.5t191.5 98.5q126 0 195 -99.5t69 -294.5q0 -192 -68 -290t-191 -98q-126 0 -195.5 99zM455.5 150.5q44.5 76.5 44.5 229.5q0 155 -46 232.5t-127 77.5q-80 0 -123.5 -77t-43.5 -231t44.5 -231t126.5 -77q80 0 124.5 76.5z
" />
    <glyph glyph-name="one" unicode="1" horiz-adv-x="432" 
d="M270 0q-10 0 -10 10v617q0 8 -5 8q-4 0 -7 -4q-75 -87 -196 -120l-3 -1q-8 0 -8 10v69q0 10 9 11q65 16 120.5 61t87.5 95q4 7 12 7h72q10 0 10 -10v-743q0 -10 -10 -10h-72z" />
    <glyph glyph-name="two" unicode="2" horiz-adv-x="646" 
d="M66 0q-10 0 -10 10v65q0 6 6 12l238 197q82 68 122 127.5t40 131.5q0 69 -36 107.5t-105 38.5q-73 0 -115 -43t-49 -128q-1 -10 -11 -10h-72q-5 0 -7.5 3t-1.5 7q7 117 74.5 185t180.5 68q70 0 123 -27t82 -77t29 -117q0 -92 -52 -169.5t-145 -155.5l-156 -130
q-4 -3 -4 -7q0 -5 8 -5h376q10 0 10 -10v-63q0 -10 -10 -10h-515z" />
    <glyph glyph-name="three" unicode="3" horiz-adv-x="659" 
d="M140.5 53q-74.5 62 -83.5 167v2q0 8 9 8h73q9 0 10 -9q21 -147 190 -147q75 0 120 39.5t45 107.5q0 75 -55 108t-141 33h-37q-10 0 -10 10v63q0 10 10 10h35q63 0 107.5 32t44.5 95q0 54 -36 85.5t-96 31.5q-64 0 -104 -35.5t-50 -102.5q-1 -10 -10 -10h-73q-5 0 -7.5 3
t-1.5 7q5 64 38.5 114.5t87 78.5t116.5 28q68 0 120 -25.5t80 -70.5t28 -102t-32 -101.5t-75 -58.5q-5 -1 -5 -2.5t5 -2.5q64 -14 108.5 -64t44.5 -127q0 -65 -33.5 -117t-92.5 -81t-132 -29q-123 0 -197.5 62z" />
    <glyph glyph-name="four" unicode="4" horiz-adv-x="654" 
d="M410 0q-10 0 -10 10v162q0 10 -10 10h-334q-10 0 -10 10v74q0 8 4 13l345 478q4 6 12 6h75q10 0 10 -10v-478q0 -10 10 -10h96q10 0 10 -10v-63q0 -10 -10 -10h-96q-10 0 -10 -10v-162q0 -10 -10 -10h-72zM390 265q10 0 10 10v341q0 7 -4 8.5t-8 -4.5l-243 -343
q-2 -2 -2 -6q0 -2 2 -4t6 -2h239z" />
    <glyph glyph-name="five" unicode="5" horiz-adv-x="651" 
d="M202.5 18q-54.5 27 -89 76.5t-43.5 113.5v2q0 4 3 6.5t7 2.5h73q9 0 10 -9q13 -64 58 -100t110 -36q77 0 121.5 53t44.5 135q0 79 -46 126t-122 47q-46 0 -85 -23t-62 -63q-4 -7 -12 -7h-82q-5 0 -7.5 3t-1.5 8l72 401q2 9 11 9h381q10 0 10 -10v-63q0 -10 -10 -10h-312
q-9 0 -11 -9l-36 -204v-4q0 -5 3.5 -5.5t7.5 3.5q70 57 152 57q70 0 125 -32.5t86 -90t31 -131.5q0 -77 -34 -139t-94.5 -98t-136.5 -36q-67 0 -121.5 27z" />
    <glyph glyph-name="six" unicode="6" horiz-adv-x="656" 
d="M135.5 89q-68.5 99 -68.5 265q0 190 69 304.5t210 114.5q97 0 159 -52t82 -143v-2q0 -9 -9 -9h-67q-9 0 -11 8q-18 57 -56 86t-98 29q-90 0 -137 -70t-52 -201q0 -9 6 -9t8 5q60 82 177 82q72 0 126.5 -32t84.5 -89t30 -129t-31 -131t-87 -92.5t-127 -33.5
q-140 0 -208.5 99zM425 96q35 23 53.5 61.5t18.5 85.5q0 77 -41.5 124t-112.5 47q-49 0 -89 -22t-62.5 -61t-22.5 -88t22.5 -87.5t62 -60.5t89.5 -22q47 0 82 23z" />
    <glyph glyph-name="seven" unicode="7" horiz-adv-x="611" 
d="M128 0q-5 0 -7 3.5t0 8.5l344 656q1 2 1 5q0 7 -8 7h-412q-10 0 -10 10v63q0 10 10 10h512q10 0 10 -10v-62q0 -5 -3 -13l-345 -671q-3 -7 -12 -7h-80z" />
    <glyph glyph-name="eight" unicode="8" horiz-adv-x="652" 
d="M188.5 20q-59.5 30 -92 84t-32.5 123q0 64 34 115t96 71q12 5 0 9q-47 17 -73 58t-26 88q0 60 29.5 106.5t82.5 72.5t119 26t119 -26t82.5 -72.5t29.5 -106.5q0 -48 -26.5 -89t-73.5 -58q-5 -2 -5 -4t5 -4q63 -20 97 -71t34 -115q0 -69 -32.5 -123t-92 -84t-137.5 -30
t-137.5 30zM428.5 479.5q36.5 31.5 36.5 87.5q0 55 -38 89t-101 34t-101 -34t-38 -89q0 -56 36.5 -87.5t102.5 -31.5t102.5 31.5zM448.5 113.5q47.5 40.5 47.5 113.5q0 68 -46 109.5t-124 41.5t-124 -41.5t-46 -109.5q0 -73 47.5 -113.5t122.5 -40.5t122.5 40.5z" />
    <glyph glyph-name="nine" unicode="9" horiz-adv-x="656" 
d="M520.5 674q68.5 -99 68.5 -265q0 -190 -69 -304.5t-210 -114.5q-97 0 -159 52t-82 143v2q0 9 9 9h67q9 0 11 -8q18 -57 56 -86t98 -29q90 0 137 70t52 201q0 9 -6 9q-5 0 -8 -5q-60 -82 -177 -82q-72 0 -126.5 32t-84.5 89t-30 129t31 131t87 92.5t127 33.5
q140 0 208.5 -99zM231 667q-35 -23 -53.5 -61.5t-18.5 -85.5q0 -77 41.5 -124t112.5 -47q49 0 89 22t62.5 61t22.5 88t-22.5 87.5t-62 60.5t-89.5 22q-47 0 -82 -23z" />
    <glyph glyph-name="colon" unicode=":" horiz-adv-x="203" 
d="M59.5 425.5q-17.5 17.5 -17.5 42.5q0 24 18 41.5t42 17.5t41 -17.5t17 -41.5t-17 -42t-41 -18q-25 0 -42.5 17.5zM59.5 7.5q-17.5 17.5 -17.5 42.5q0 24 17.5 41t42.5 17q23 0 40.5 -17t17.5 -41q0 -25 -17 -42.5t-41 -17.5q-25 0 -42.5 17.5z" />
    <glyph glyph-name="semicolon" unicode=";" horiz-adv-x="270" 
d="M78 425.5q-18 17.5 -18 42.5q0 24 18 41.5t42 17.5q23 0 40.5 -17.5t17.5 -41.5q0 -25 -17.5 -42.5t-40.5 -17.5q-24 0 -42 17.5zM64 -126q46 7 71 36t25 72q0 15 -3 30q-13 -22 -45 -22q-22 0 -37 15.5t-15 41.5q0 27 17.5 44t46.5 17q39 0 62.5 -32t23.5 -84
q0 -61 -36.5 -108t-109.5 -55v45z" />
    <glyph glyph-name="less" unicode="&#x3c;" horiz-adv-x="559" 
d="M52 294q-8 3 -8 11v69q0 8 8 11l447 169l4 1q8 0 8 -9v-54q0 -9 -8 -12l-364 -133q-6 -1 -6 -7q0 -4 6 -7l364 -134q8 -3 8 -12v-53q0 -5 -3.5 -7.5t-8.5 -0.5z" />
    <glyph glyph-name="equal" unicode="=" horiz-adv-x="506" 
d="M46 416q-10 0 -10 10v60q0 10 10 10h413q10 0 10 -10v-60q0 -10 -10 -10h-413zM46 194q-10 0 -10 10v60q0 10 10 10h413q10 0 10 -10v-60q0 -10 -10 -10h-413z" />
    <glyph glyph-name="greater" unicode="&#x3e;" horiz-adv-x="559" 
d="M60 126l-4 -1q-8 0 -8 9v53q0 9 8 12l364 134q6 3 6 7q0 6 -6 7l-364 133q-8 3 -8 12v54q0 5 3.5 7.5t8.5 0.5l447 -169q8 -3 8 -11v-69q0 -8 -8 -11z" />
    <glyph glyph-name="question" unicode="?" horiz-adv-x="547" 
d="M230 244q0 58 15.5 96.5t37 60.5t56.5 48q28 20 43.5 35t26 37t10.5 53q0 60 -38.5 92t-105.5 32q-71 0 -111 -38t-45 -105h-78q6 101 68.5 159t160.5 58q99 0 163 -53t64 -149q0 -42 -12.5 -71.5t-31 -48.5t-49.5 -42q-31 -24 -49.5 -43t-31.5 -48.5t-13 -72.5v-28h-80
v28zM227.5 7.5q-17.5 17.5 -17.5 42.5q0 23 17.5 40.5t41.5 17.5t41.5 -17t17.5 -41q0 -25 -17.5 -42.5t-41.5 -17.5t-41.5 17.5z" />
    <glyph glyph-name="at" unicode="@" horiz-adv-x="1053" 
d="M279.5 -130q-107.5 59 -168.5 166t-61 244q0 139 61.5 252t171 177.5t249.5 64.5q134 0 241.5 -61t168 -169t60.5 -244q0 -95 -30 -172t-87 -122t-133 -45q-60 0 -92.5 36.5t-41.5 117.5q-1 7 -4 8t-6 -5q-29 -49 -68 -72t-90 -23q-81 0 -131 55t-50 153q0 84 35.5 163
t99.5 129t144 50q43 0 73 -17t54 -57q3 -6 7 -6q5 0 6 7l7 36q2 9 11 9h54q11 0 9 -11q-38 -178 -56 -272t-18 -144q0 -42 17 -63.5t50 -21.5q49 0 86.5 35t58 95.5t20.5 134.5q0 117 -50 208t-139.5 141.5t-203.5 50.5q-119 0 -212.5 -54.5t-145 -149.5t-51.5 -214
q0 -117 50.5 -206.5t140.5 -138t206 -48.5q65 0 125 19l4 1q7 0 7 -9v-58q0 -9 -9 -12q-56 -17 -128 -17q-134 0 -241.5 59zM555.5 138.5q46.5 40.5 72.5 104t26 127.5q0 65 -27.5 96t-76.5 31q-60 0 -107 -39t-73 -101t-26 -127q0 -67 28 -99.5t78 -32.5q59 0 105.5 40.5z
" />
    <glyph glyph-name="A" unicode="A" horiz-adv-x="694" 
d="M26 0q-5 0 -7.5 3.5t-0.5 8.5l274 743q3 8 12 8h86q9 0 12 -8l274 -743l1 -4q0 -8 -9 -8h-72q-9 0 -12 8l-61 171q-3 8 -12 8h-328q-9 0 -12 -8l-61 -171q-3 -8 -12 -8h-72zM477 269q11 0 8 11l-131 371q-1 6 -7 6q-4 0 -7 -6l-131 -371l-1 -4q0 -7 9 -7h260z" />
    <glyph glyph-name="B" unicode="B" horiz-adv-x="690" 
d="M89 0q-10 0 -10 10v743q0 10 10 10h277q125 0 184 -56q51 -48 51 -135q0 -58 -24.5 -101.5t-67.5 -61.5q-8 -3 -8 -8t9 -7q62 -15 95.5 -61.5t33.5 -117.5q0 -92 -56 -148q-38 -36 -93 -51.5t-112 -15.5h-289zM366 432q67 0 104.5 33t37.5 92q0 54 -32 84q-40 39 -130 39
h-165q-10 0 -10 -10v-228q0 -10 10 -10h185zM368 83q40 0 77 7t65 33q37 34 37 98q0 83 -49 106t-110 23h-207q-10 0 -10 -10v-247q0 -10 10 -10h187z" />
    <glyph glyph-name="C" unicode="C" horiz-adv-x="748" 
d="M207 43.5q-79 53.5 -118 142.5t-39 196t39 196t118 142t195 53q121 0 201.5 -57.5t101.5 -152.5v-2q0 -9 -9 -9h-80q-9 0 -11 9q-17 60 -71.5 95t-133.5 35q-83 0 -141 -39.5t-87.5 -109.5t-29.5 -160q0 -91 29.5 -161t87.5 -109.5t141 -39.5q81 0 135 38.5t70 111.5
q3 9 11 9h80q11 0 9 -10q-20 -108 -100 -169.5t-203 -61.5q-116 0 -195 53.5z" />
    <glyph glyph-name="D" unicode="D" horiz-adv-x="732" 
d="M89 0q-10 0 -10 10v743q0 10 10 10h200q190 0 291 -100t101 -284q0 -181 -101.5 -280t-291.5 -99h-199zM287 83q138 0 220 65t82 231q0 301 -301 301h-107q-10 0 -10 -10v-577q0 -10 10 -10h106z" />
    <glyph glyph-name="E" unicode="E" horiz-adv-x="616" 
d="M89 0q-10 0 -10 10v743q0 10 10 10h473q10 0 10 -10v-63q0 -10 -10 -10h-381q-10 0 -10 -10v-236q0 -10 10 -10h334q10 0 10 -10v-62q0 -10 -10 -10h-334q-10 0 -10 -10v-239q0 -10 10 -10h381q10 0 10 -10v-63q0 -10 -10 -10h-473z" />
    <glyph glyph-name="F" unicode="F" horiz-adv-x="601" 
d="M89 0q-10 0 -10 10v743q0 10 10 10h473q10 0 10 -10v-63q0 -10 -10 -10h-381q-10 0 -10 -10v-236q0 -10 10 -10h334q10 0 10 -10v-62q0 -10 -10 -10h-334q-10 0 -10 -10v-322q0 -10 -10 -10h-72z" />
    <glyph glyph-name="G" unicode="G" horiz-adv-x="807" 
d="M209.5 44.5q-81.5 54.5 -120.5 143t-39 193.5t39.5 194t120 143.5t199.5 54.5q120 0 201.5 -56.5t116.5 -152.5l1 -4q0 -7 -9 -7h-83q-8 0 -11 8q-28 61 -83.5 95.5t-134.5 34.5q-89 0 -148.5 -42.5t-88 -112.5t-28.5 -152q0 -86 30 -157t90.5 -113t146.5 -42
q110 0 176 63t69 172q0 10 -10 10h-163q-10 0 -10 10v62q0 10 10 10h253q10 0 10 -10v-379q0 -10 -10 -10h-64q-10 0 -10 10v79q0 8 -5 8q-4 0 -7 -4q-40 -51 -104 -77t-134 -26q-119 0 -200.5 54.5z" />
    <glyph glyph-name="H" unicode="H" horiz-adv-x="725" 
d="M89 0q-10 0 -10 10v743q0 10 10 10h72q10 0 10 -10v-318q0 -10 10 -10h362q10 0 10 10v318q0 10 10 10h72q10 0 10 -10v-743q0 -10 -10 -10h-72q-10 0 -10 10v323q0 10 -10 10h-362q-10 0 -10 -10v-323q0 -10 -10 -10h-72z" />
    <glyph glyph-name="I" unicode="I" horiz-adv-x="251" 
d="M89 0q-10 0 -10 10v743q0 10 10 10h72q10 0 10 -10v-743q0 -10 -10 -10h-72z" />
    <glyph glyph-name="J" unicode="J" horiz-adv-x="383" 
d="M26 0q-10 0 -10 10v63q0 10 10 10h86q52 0 77.5 24.5t25.5 77.5v568q0 10 10 10h72q10 0 10 -10v-569q0 -62 -17 -102t-59.5 -61t-118.5 -21h-86z" />
    <glyph glyph-name="K" unicode="K" horiz-adv-x="632" 
d="M89 0q-10 0 -10 10v743q0 10 10 10h72q10 0 10 -10v-322q0 -8 5 -8q4 0 7 4l300 331q4 5 12 5h94q6 0 8 -3.5t-2 -8.5l-322 -347q-6 -8 0 -14l340 -378q3 -3 3 -6q0 -2 -2.5 -4t-6.5 -2h-98q-7 0 -12 6l-314 351q-3 4 -7 4q-5 0 -5 -8v-343q0 -10 -10 -10h-72z" />
    <glyph glyph-name="L" unicode="L" horiz-adv-x="528" 
d="M89 0q-10 0 -10 10v743q0 10 10 10h72q10 0 10 -10v-660q0 -10 10 -10h322q10 0 10 -10v-63q0 -10 -10 -10h-414z" />
    <glyph glyph-name="M" unicode="M" horiz-adv-x="899" 
d="M89 0q-10 0 -10 10v743q0 10 10 10h146q9 0 12 -8l196 -621q3 -7 6 -7q5 0 6 7l196 621q3 8 12 8h147q10 0 10 -10v-743q0 -10 -10 -10h-72q-10 0 -10 10v662q0 7 -5 7t-6 -5l-219 -666q-3 -8 -12 -8h-73q-9 0 -12 8l-219 661q-1 5 -6 5t-5 -7v-657q0 -10 -10 -10h-72z
" />
    <glyph glyph-name="N" unicode="N" horiz-adv-x="727" 
d="M89 0q-10 0 -10 10v743q0 10 10 10h116q9 0 12 -7l327 -641q3 -6 7 -6q2 0 3.5 2.5t1.5 6.5v635q0 10 10 10h71q10 0 10 -10v-743q0 -10 -10 -10h-116q-9 0 -12 7l-326 639q-3 6 -7 6q-2 0 -3.5 -2.5t-1.5 -6.5v-633q0 -10 -10 -10h-72z" />
    <glyph glyph-name="O" unicode="O" horiz-adv-x="811" 
d="M209 43q-80 53 -119.5 142.5t-39.5 196.5t39.5 196t119.5 142t195 53q116 0 196.5 -53t120 -141.5t39.5 -196.5t-39.5 -197t-120 -142t-196.5 -53q-115 0 -195 53zM547.5 112.5q59.5 39.5 90 109.5t30.5 160t-30.5 159.5t-90 109t-143.5 39.5q-83 0 -142 -39.5
t-89.5 -109t-30.5 -159.5t30.5 -160t89.5 -109.5t142 -39.5q84 0 143.5 39.5z" />
    <glyph glyph-name="P" unicode="P" horiz-adv-x="640" 
d="M89 0q-10 0 -10 10v743q0 10 10 10h274q113 0 177.5 -55.5t64.5 -162.5q0 -104 -65.5 -163.5t-176.5 -59.5h-182q-10 0 -10 -10v-302q0 -10 -10 -10h-72zM351 404q79 0 121 35.5t42 102.5q0 66 -43 102t-120 36h-170q-10 0 -10 -10v-256q0 -10 10 -10h170z" />
    <glyph glyph-name="Q" unicode="Q" horiz-adv-x="812" 
d="M643 -87q-8 0 -12 6l-64 95q-5 9 -13 4q-68 -28 -150 -28q-115 0 -195 53t-119.5 142.5t-39.5 196.5t39.5 196t119.5 142t195 53q116 0 196.5 -53t120 -141.5t39.5 -196.5q0 -93 -29.5 -172.5t-87.5 -133.5q-7 -6 -2 -14l87 -137q2 -4 2 -6q0 -6 -8 -6h-79zM547.5 112.5
q59.5 39.5 90 109.5t30.5 160t-30.5 159.5t-90 109t-143.5 39.5q-83 0 -142 -39.5t-89.5 -109t-30.5 -159.5t30.5 -160t89.5 -109.5t142 -39.5q84 0 143.5 39.5z" />
    <glyph glyph-name="R" unicode="R" horiz-adv-x="660" 
d="M89 0q-10 0 -10 10v743q0 10 10 10h274q113 0 177.5 -55.5t64.5 -162.5q0 -74 -33 -126t-94 -76q-9 -4 -6 -13l138 -318l1 -4q0 -8 -9 -8h-80q-8 0 -11 8l-129 306q-3 8 -11 8h-190q-10 0 -10 -10v-302q0 -10 -10 -10h-72zM351 404q79 0 121 35.5t42 102.5q0 66 -43 102
t-120 36h-170q-10 0 -10 -10v-256q0 -10 10 -10h170z" />
    <glyph glyph-name="S" unicode="S" horiz-adv-x="673" 
d="M150.5 47q-85.5 57 -106.5 173v2q0 9 9 9h73q10 0 11 -9q19 -80 80.5 -115t141.5 -35q82 0 126.5 34t44.5 101q0 51 -28 80.5t-70 44t-113 29.5q-80 17 -129 34.5t-83 57.5t-34 110q0 64 31.5 111.5t88 73t130.5 25.5q102 0 178 -52t97 -157v-2q0 -9 -9 -9h-69
q-9 0 -11 9q-18 68 -68.5 98.5t-118.5 30.5q-76 0 -116.5 -32t-40.5 -88q0 -44 25.5 -69.5t64 -38.5t105.5 -27q85 -18 137 -37.5t88.5 -63.5t36.5 -122q0 -103 -69.5 -163t-197.5 -60q-119 0 -204.5 57z" />
    <glyph glyph-name="T" unicode="T" horiz-adv-x="637" 
d="M282 0q-10 0 -10 10v660q0 10 -10 10h-238q-10 0 -10 10v63q0 10 10 10h589q10 0 10 -10v-63q0 -10 -10 -10h-239q-10 0 -10 -10v-660q0 -10 -10 -10h-72z" />
    <glyph glyph-name="U" unicode="U" horiz-adv-x="711" 
d="M143 62q-71 72 -71 202v489q0 10 10 10h72q10 0 10 -10v-489q0 -92 47 -142t144 -50t144 50t47 142v489q0 10 10 10h72q10 0 10 -10v-489q0 -130 -71 -202t-212 -72t-212 72z" />
    <glyph glyph-name="V" unicode="V" horiz-adv-x="694" 
d="M304 0q-9 0 -12 8l-274 743l-1 4q0 8 9 8h72q9 0 12 -8l230 -643q3 -6 7 -6q6 0 7 6l230 643q3 8 12 8h72q5 0 7.5 -3.5t0.5 -8.5l-274 -743q-3 -8 -12 -8h-86z" />
    <glyph glyph-name="W" unicode="W" horiz-adv-x="1074" 
d="M255 0q-8 0 -11 8l-221 744l-1 3q0 8 10 8h75q9 0 12 -8l180 -602q3 -7 6 -7q5 0 6 7l180 602q3 8 11 8h70q9 0 12 -8l180 -603q3 -7 6 -7q5 0 6 7l180 603q3 8 11 8h75q5 0 7.5 -3t1.5 -8l-221 -744q-3 -8 -11 -8h-86q-9 0 -12 8l-178 584q-2 8 -6 8q-3 0 -6 -8
l-178 -584q-3 -8 -12 -8h-86z" />
    <glyph glyph-name="X" unicode="X" horiz-adv-x="684" 
d="M31 0q-6 0 -8 3.5t1 8.5l251 365q2 3 2 7t-2 7l-247 360l-2 5q0 7 9 7h87q8 0 12 -6l201 -299q3 -5 7 -5t7 5l201 299q4 6 12 6h87q6 0 8 -3.5t-1 -8.5l-247 -360q-2 -3 -2 -7t2 -7l251 -365l2 -5q0 -7 -9 -7h-86q-8 0 -12 6l-206 298q-3 5 -7 5t-7 -5l-206 -298
q-4 -6 -12 -6h-86z" />
    <glyph glyph-name="Y" unicode="Y" horiz-adv-x="674" 
d="M300 0q-10 0 -10 10v275q0 7 -3 13l-276 453q-2 4 -2 6q0 6 9 6h85q7 0 12 -7l214 -361q3 -4 7 -4t7 4l217 361q5 7 12 7h83q6 0 8 -3.5t-1 -8.5l-273 -453q-3 -6 -3 -13v-275q0 -10 -10 -10h-76z" />
    <glyph glyph-name="Z" unicode="Z" horiz-adv-x="634" 
d="M39 0q-10 0 -10 10v50q0 8 4 13l446 595q2 2 2 6q0 2 -2 4t-6 2h-410q-10 0 -10 10v63q0 10 10 10h529q10 0 10 -10v-52q0 -8 -4 -13l-442 -593q-2 -2 -2 -6q0 -2 2 -4t6 -2h429q10 0 10 -10v-63q0 -10 -10 -10h-552z" />
    <glyph glyph-name="bracketleft" unicode="[" horiz-adv-x="342" 
d="M316 -110h-219v982h219v-73h-134v-836h134v-73z" />
    <glyph glyph-name="backslash" unicode="\" horiz-adv-x="454" 
d="M457 -111h-79l-346 874h79z" />
    <glyph glyph-name="bracketright" unicode="]" horiz-adv-x="342" 
d="M245 872v-982h-219v73h134v836h-134v73h219z" />
    <glyph glyph-name="asciicircum" unicode="^" horiz-adv-x="538" 
d="M63 296q-5 0 -7.5 3.5t-0.5 8.5l168 447q3 8 11 8h69q8 0 11 -8l169 -447l1 -4q0 -8 -9 -8h-54q-9 0 -12 8l-133 364q-1 6 -7 6q-4 0 -7 -6l-134 -364q-3 -8 -12 -8h-53z" />
    <glyph glyph-name="underscore" unicode="_" horiz-adv-x="411" 
d="M425 -64h-439v64h439v-64z" />
    <glyph glyph-name="grave" unicode="`" horiz-adv-x="239" 
d="M158 611q-7 0 -12 5l-126 135q-3 5 -3 7q0 5 8 5h79q9 0 13 -6l103 -134q2 -2 2 -6q0 -2 -2 -4t-6 -2h-56z" />
    <glyph glyph-name="a" unicode="a" horiz-adv-x="576" 
d="M96.5 32q-48.5 42 -48.5 115q0 72 54 114q44 35 127 52l188 36q9 2 9 11q-3 59 -34 90q-38 38 -102 38q-49 0 -85.5 -25t-48.5 -67q-3 -9 -11 -9h-65q-11 0 -9 11q17 78 78 121.5t142 43.5q49 0 91 -14.5t71 -42.5q38 -36 48 -83t10 -97v-316q0 -10 -10 -10h-65
q-10 0 -10 10v57q0 8 -5 8q-4 0 -7 -4q-25 -31 -55 -49q-51 -32 -131 -32q-83 0 -131.5 42zM326 84q54 28 76.5 73t24.5 114q0 5 -3 7.5t-8 1.5l-169 -34q-62 -12 -91 -39q-23 -23 -23 -58q0 -38 28.5 -61t76.5 -23q51 0 88 19z" />
    <glyph glyph-name="b" unicode="b" horiz-adv-x="634" 
d="M246 8.5q-39 18.5 -77 62.5q-3 4 -7 4q-5 0 -5 -8v-57q0 -10 -10 -10h-65q-10 0 -10 10v743q0 10 10 10h65q10 0 10 -10v-267q0 -8 5 -8q4 0 7 4q38 45 77 63t92 18q74 0 129.5 -36t86 -101.5t30.5 -149.5t-30.5 -149t-86.5 -101t-129 -36q-53 0 -92 18.5zM419.5 92.5
q38.5 27.5 59 75.5t20.5 108q0 61 -20.5 109t-59 75.5t-89.5 27.5t-91 -27.5t-62.5 -75.5t-22.5 -109q0 -60 22.5 -108.5t62.5 -75.5t91 -27t89.5 27.5z" />
    <glyph glyph-name="c" unicode="c" horiz-adv-x="602" 
d="M177 27q-61 37 -95 103t-34 149q0 81 34 146t95 101.5t139 36.5q89 0 152.5 -44.5t85.5 -120.5l1 -3q0 -8 -10 -8h-70q-9 0 -12 8q-17 43 -56.5 68t-90.5 25q-52 0 -93.5 -27t-65.5 -74.5t-24 -107.5q0 -62 23.5 -110.5t65.5 -76t94 -27.5q55 0 95.5 28.5t56.5 76.5
q2 8 11 8h71q11 0 9 -11q-21 -83 -86.5 -130t-156.5 -47q-78 0 -139 37z" />
    <glyph glyph-name="d" unicode="d" horiz-adv-x="634" 
d="M167 26q-56 36 -86.5 101t-30.5 149t30.5 149.5t86 101.5t129.5 36q53 0 92 -18t77 -63q3 -4 7 -4q5 0 5 8v267q0 10 10 10h65q10 0 10 -10v-743q0 -10 -10 -10h-65q-10 0 -10 10v57q0 8 -5 8q-4 0 -7 -4q-38 -44 -77 -62.5t-92 -18.5q-73 0 -129 36zM395 92
q40 27 62.5 75.5t22.5 108.5q0 61 -22.5 109t-62.5 75.5t-91 27.5t-89.5 -27.5t-59 -75.5t-20.5 -109q0 -60 20.5 -108t59 -75.5t89.5 -27.5t91 27z" />
    <glyph glyph-name="e" unicode="e" horiz-adv-x="629" 
d="M177.5 27q-61.5 37 -95.5 102t-34 146q0 77 32 142.5t92.5 105.5t142.5 40q71 0 132 -32t98 -93.5t37 -147.5v-20q0 -10 -10 -10h-430q-5 0 -7.5 -3t-1.5 -7q4 -27 10 -45q21 -64 67.5 -102t105.5 -38q57 0 99 29.5t63 75.5q3 8 11 8h71q5 0 8 -2.5t1 -6.5
q-29 -80 -93 -129.5t-159 -49.5q-78 0 -139.5 37zM481 335q5 0 7.5 3t1.5 7q-4 28 -11 44q-21 47 -64.5 73t-97.5 26q-55 0 -96.5 -26t-64.5 -73q-9 -19 -14 -43v-2q0 -9 9 -9h330z" />
    <glyph glyph-name="f" unicode="f" horiz-adv-x="353" 
d="M128 0q-10 0 -10 10v458q0 10 -10 10h-72q-10 0 -10 10v55q0 10 10 10h72q10 0 10 10v50q0 74 36 112t107 38h61q10 0 10 -10v-55q0 -10 -10 -10h-42q-40 0 -58.5 -21t-18.5 -65v-39q0 -10 10 -10h109q10 0 10 -10v-55q0 -10 -10 -10h-109q-10 0 -10 -10v-458
q0 -10 -10 -10h-65z" />
    <glyph glyph-name="g" unicode="g" horiz-adv-x="635" 
d="M155.5 -181.5q-67.5 38.5 -85.5 125.5v2q0 9 9 9h67q9 0 11 -8q15 -46 53.5 -69t103.5 -23q165 0 165 148v64q0 8 -5 8q-4 0 -7 -4q-38 -45 -77 -63t-92 -18q-73 0 -129 36t-86.5 100.5t-30.5 147.5q0 85 30.5 150.5t86 102t128.5 36.5q54 0 93 -18.5t77 -62.5q3 -4 7 -4
q5 0 5 8v57q0 10 10 10h65q10 0 10 -10v-524q0 -128 -66 -183.5t-183 -55.5q-92 0 -159.5 38.5zM397 92.5q40 27.5 62.5 75.5t22.5 109q0 60 -22.5 108t-63 75.5t-90.5 27.5q-51 0 -89.5 -27.5t-59 -75.5t-20.5 -108q0 -61 20.5 -109t59 -75.5t89.5 -27.5t91 27.5z" />
    <glyph glyph-name="h" unicode="h" horiz-adv-x="577" 
d="M82 0q-10 0 -10 10v743q0 10 10 10h65q10 0 10 -10v-267q0 -8 5 -8q4 0 7 4q37 44 73 62.5t79 18.5q117 0 163 -87q17 -33 21.5 -67.5t4.5 -75.5v-323q0 -10 -10 -10h-65q-10 0 -10 10v323q0 88 -32 124q-28 31 -85 31q-63 0 -101 -41q-27 -28 -38.5 -77t-11.5 -134v-226
q0 -10 -10 -10h-65z" />
    <glyph glyph-name="i" unicode="i" horiz-adv-x="227" 
d="M81 0q-10 0 -10 10v533q0 10 10 10h65q10 0 10 -10v-533q0 -10 -10 -10h-65zM68 666.5q-19 18.5 -19 44.5t19 44t46 18t46 -18t19 -44t-19 -44.5t-46 -18.5t-46 18.5z" />
    <glyph glyph-name="j" unicode="j" horiz-adv-x="228" 
d="M-48 -210q-10 0 -10 10v58q0 10 10 10h42q38 0 58 18t20 66v591q0 10 10 10h65q10 0 10 -10v-602q0 -75 -36 -113t-107 -38h-62zM68 666.5q-19 18.5 -19 44.5t19 44t46 18t46 -18t19 -44t-19 -44.5t-46 -18.5t-46 18.5z" />
    <glyph glyph-name="k" unicode="k" horiz-adv-x="554" 
d="M82 0q-10 0 -10 10v743q0 10 10 10h65q10 0 10 -10v-404q0 -6 4 -8t8 2l226 205q5 5 12 5h93q8 0 8 -5q0 -4 -4 -7l-249 -224q-7 -7 -1 -14l277 -291q3 -4 3 -7q0 -5 -8 -5h-92q-7 0 -12 5l-253 271q-3 3 -7 3q-5 0 -5 -8v-261q0 -10 -10 -10h-65z" />
    <glyph glyph-name="l" unicode="l" horiz-adv-x="277" 
d="M200 0q-67 0 -99 30t-32 109v614q0 10 10 10h65q10 0 10 -10v-601q0 -29 4 -44.5t18 -24t44 -8.5h17q10 0 10 -10v-55q0 -10 -10 -10h-37z" />
    <glyph glyph-name="m" unicode="m" horiz-adv-x="899" 
d="M81 0q-10 0 -10 10v533q0 10 10 10h65q10 0 10 -10v-57q0 -8 5 -8q4 0 7 4q37 44 73 62.5t79 18.5q52 0 92.5 -23t56.5 -66q5 -12 11 -1q53 90 168 90q92 0 138 -52.5t46 -150.5v-350q0 -10 -10 -10h-65q-10 0 -10 10v330q0 71 -29.5 109.5t-82.5 38.5q-55 0 -90 -37
q-28 -30 -39.5 -78t-11.5 -123v-240q0 -10 -10 -10h-65q-10 0 -10 10v330q0 70 -30.5 109t-82.5 39q-55 0 -90 -40q-26 -29 -38 -75t-12 -123v-240q0 -10 -10 -10h-65z" />
    <glyph glyph-name="n" unicode="n" horiz-adv-x="576" 
d="M81 0q-10 0 -10 10v533q0 10 10 10h65q10 0 10 -10v-57q0 -8 5 -8q4 0 7 4q37 44 73 62.5t79 18.5q117 0 163 -87q17 -33 21.5 -67.5t4.5 -75.5v-323q0 -10 -10 -10h-65q-10 0 -10 10v323q0 88 -32 124q-28 31 -85 31q-63 0 -101 -41q-27 -28 -38.5 -77t-11.5 -134v-226
q0 -10 -10 -10h-65z" />
    <glyph glyph-name="o" unicode="o" horiz-adv-x="639" 
d="M178.5 27q-61.5 37 -96 103t-34.5 149q0 81 34.5 146t96 101.5t139.5 36.5t140 -36.5t97 -101.5t35 -146q0 -83 -34.5 -148.5t-96.5 -103t-141 -37.5q-78 0 -139.5 37zM412.5 93q42.5 28 67 76.5t24.5 109.5q0 58 -24 106t-66.5 75.5t-95.5 27.5q-52 0 -94.5 -27
t-66.5 -75t-24 -107q0 -61 24 -110t66.5 -76.5t94.5 -27.5t94.5 28z" />
    <glyph glyph-name="p" unicode="p" horiz-adv-x="634" 
d="M467 527q56 -36 86.5 -101t30.5 -149t-30.5 -149.5t-86 -101.5t-129.5 -36q-53 0 -92 18t-77 63q-3 4 -7 4q-5 0 -5 -8v-267q0 -10 -10 -10h-65q-10 0 -10 10v743q0 10 10 10h65q10 0 10 -10v-57q0 -8 5 -8q4 0 7 4q38 44 77 62.5t92 18.5q73 0 129 -36zM239 461
q-40 -27 -62.5 -75.5t-22.5 -108.5q0 -61 22.5 -109t62.5 -75.5t91 -27.5t89.5 27.5t59 75.5t20.5 109q0 60 -20.5 108t-59 75.5t-89.5 27.5t-91 -27z" />
    <glyph glyph-name="q" unicode="q" horiz-adv-x="633" 
d="M619 -210q-76 0 -109 30.5t-33 100.5v146q0 8 -5 8q-4 0 -7 -4q-38 -45 -77 -63t-92 -18q-74 0 -129.5 36t-86 101.5t-30.5 149.5t30.5 149t86.5 101t129 36q53 0 92 -18.5t77 -62.5q3 -4 7 -4q5 0 5 8v57q0 10 10 10h65q10 0 10 -10v-629q0 -24 13.5 -35t43.5 -11h39
q10 0 10 -10v-58q0 -10 -10 -10h-39zM395 92.5q40 27.5 62.5 75.5t22.5 109q0 60 -22.5 108t-63 75.5t-90.5 27.5q-51 0 -89.5 -27.5t-59 -75.5t-20.5 -108q0 -61 20.5 -109t59 -75.5t89.5 -27.5t91 27.5z" />
    <glyph glyph-name="r" unicode="r" horiz-adv-x="363" 
d="M81 0q-10 0 -10 10v533q0 10 10 10h65q10 0 10 -10v-48q0 -8 5 -8q4 0 7 4q35 38 74.5 55t88.5 17q10 0 10 -10v-65q0 -10 -10 -10h-19q-67 0 -107 -40q-49 -47 -49 -147v-281q0 -10 -10 -10h-65z" />
    <glyph glyph-name="s" unicode="s" horiz-adv-x="557" 
d="M127 37q-65 47 -82 130v2q0 9 9 9h69q10 0 11 -9q13 -49 52.5 -76.5t108.5 -27.5q58 0 92.5 22t34.5 63q0 32 -20.5 51.5t-52 29.5t-83.5 20q-65 13 -104.5 26.5t-67.5 43.5t-28 83q0 75 56.5 117t144.5 42q87 0 146 -44t76 -121v-2q0 -9 -9 -9h-59q-9 0 -11 9
q-15 47 -52 69.5t-91 22.5q-55 0 -85.5 -20.5t-30.5 -56.5q0 -28 19 -44t47 -24.5t79 -18.5q67 -13 109 -27.5t72 -47t30 -90.5q0 -78 -56 -123.5t-157 -45.5q-102 0 -167 47z" />
    <glyph glyph-name="t" unicode="t" horiz-adv-x="361" 
d="M247 0q-67 0 -99 30t-32 109v329q0 10 -10 10h-69q-10 0 -10 10v55q0 10 10 10h69q10 0 10 10v190q0 10 10 10h65q10 0 10 -10v-190q0 -10 10 -10h104q10 0 10 -10v-55q0 -10 -10 -10h-104q-10 0 -10 -10v-312q0 -29 4 -45.5t18 -26t44 -9.5h47q10 0 10 -10v-55
q0 -10 -10 -10h-67z" />
    <glyph glyph-name="u" unicode="u" horiz-adv-x="578" 
d="M95 77q-26 49 -26 143v323q0 10 10 10h65q10 0 10 -10v-323q0 -88 32 -124q28 -31 85 -31q63 0 101 41q27 28 38.5 77t11.5 134v226q0 10 10 10h65q10 0 10 -10v-533q0 -10 -10 -10h-65q-10 0 -10 10v57q0 7 -5 7t-11 -8q-35 -40 -70.5 -58t-77.5 -18q-116 0 -163 87z
" />
    <glyph glyph-name="v" unicode="v" horiz-adv-x="519" 
d="M233 0q-9 0 -12 8l-197 533l-1 4q0 8 9 8h73q9 0 12 -8l136 -383q3 -6 7 -6q5 0 6 6l137 383q3 8 12 8h72q5 0 7.5 -3.5t0.5 -8.5l-198 -533q-3 -8 -11 -8h-53z" />
    <glyph glyph-name="w" unicode="w" horiz-adv-x="820" 
d="M196 0q-8 0 -11 8l-157 534l-1 3q0 8 10 8h70q9 0 11 -8l108 -386q3 -7 7 -7q5 0 6 7l129 386q3 8 12 8h59q9 0 12 -8l129 -386q3 -7 7 -7q5 0 6 7l109 386q3 8 11 8h70q5 0 7.5 -3t1.5 -8l-159 -534q-3 -8 -11 -8h-61q-9 0 -12 8l-133 405q-1 7 -6 7q-3 0 -6 -7
l-135 -405q-3 -8 -12 -8h-61z" />
    <glyph glyph-name="x" unicode="x" horiz-adv-x="550" 
d="M35 0q-6 0 -8 4t2 8l185 258q4 7 0 14l-185 257q-2 2 -2 6q0 2 2 4t6 2h78q8 0 12 -6l142 -201q3 -4 7 -4t7 4l143 201q4 6 12 6h79q6 0 8 -3.5t-2 -8.5l-188 -257q-4 -7 0 -14l188 -258q2 -2 2 -6q0 -2 -2 -4t-6 -2h-79q-8 0 -12 6l-143 201q-3 5 -7 5t-7 -5l-142 -201
q-4 -6 -12 -6h-78z" />
    <glyph glyph-name="y" unicode="y" horiz-adv-x="549" 
d="M81 -210q-10 0 -10 10v58q0 10 10 10h42q25 0 38 3.5t23 15.5t20 39l28 75q1 2 1 5q0 5 -2 9l-208 526q-1 2 -1 5q0 7 8 7h74q8 0 11 -8l158 -404q2 -6 6 -6t7 6l147 404q3 8 12 8h71q5 0 7.5 -3.5t0.5 -8.5l-241 -652q-22 -59 -50 -79t-80 -20h-72z" />
    <glyph glyph-name="z" unicode="z" horiz-adv-x="533" 
d="M44 0q-10 0 -10 10v55q0 5 5 12l344 389q3 3 3 6q0 6 -8 6h-315q-10 0 -10 10v55q0 10 10 10h424q10 0 10 -10v-63q0 -5 -5 -12l-337 -381q-3 -3 -3 -6q0 -6 8 -6h324q10 0 10 -10v-55q0 -10 -10 -10h-440z" />
    <glyph glyph-name="braceleft" unicode="{" horiz-adv-x="317" 
d="M222 -110q-59 0 -89.5 38t-30.5 106v217q0 39 -17.5 59.5t-50.5 30.5v80q33 10 50.5 30.5t17.5 59.5v217q0 68 30.5 106t89.5 38h69v-70h-38q-64 0 -64 -77v-216q0 -100 -74 -128q74 -28 74 -128v-216q0 -77 64 -77h38v-70h-69z" />
    <glyph glyph-name="bar" unicode="|" horiz-adv-x="329" 
d="M132 -110q-10 0 -10 10v962q0 10 10 10h65q10 0 10 -10v-962q0 -10 -10 -10h-65z" />
    <glyph glyph-name="braceright" unicode="}" horiz-adv-x="317" 
d="M26 -110v70h38q64 0 64 77v216q0 100 74 128q-74 28 -74 128v216q0 77 -64 77h-38v70h69q59 0 89.5 -38t30.5 -106v-217q0 -39 17.5 -59.5t50.5 -30.5v-80q-33 -10 -50.5 -30.5t-17.5 -59.5v-217q0 -68 -30.5 -106t-89.5 -38h-69z" />
    <glyph glyph-name="asciitilde" unicode="~" horiz-adv-x="527" 
d="M253.5 226.5q-20.5 13.5 -42.5 37.5q-14 16 -24 23.5t-22 7.5q-35 0 -41 -68q-1 -10 -11 -10h-47q-5 0 -7.5 3t-1.5 8q5 65 34.5 102.5t77.5 37.5q30 0 49 -13t41 -37q16 -17 26 -24.5t23 -7.5q15 0 24.5 16.5t12.5 50.5q1 10 11 10h49q10 0 9 -15q-6 -69 -31.5 -102
t-75.5 -33q-33 0 -53.5 13.5z" />
    <glyph glyph-name="uni00A0" unicode="&#xa0;" horiz-adv-x="240" 
 />
    <glyph glyph-name="exclamdown" unicode="&#xa1;" horiz-adv-x="331" 
d="M213.5 545.5q17.5 -17.5 17.5 -42.5q0 -24 -17.5 -41t-42.5 -17q-23 0 -40.5 17t-17.5 41q0 25 17 42.5t41 17.5q25 0 42.5 -17.5zM208 335q0 -18 2 -54q4 -116 4 -213v-278h-85v278q0 97 4 213q2 36 2 54h73z" />
    <glyph glyph-name="cent" unicode="&#xa2;" horiz-adv-x="602" 
d="M550 178q11 0 9 -11q-19 -78 -79 -124.5t-144 -51.5v-81q0 -10 -10 -10h-22q-10 0 -10 10v81q-72 5 -128 43t-87 101.5t-31 143.5q0 77 31 140t87 100.5t128 42.5v95q0 10 10 10h22q10 0 10 -10v-95q82 -4 140 -48t78 -116l1 -3q0 -8 -10 -8h-70q-9 0 -12 8
q-16 38 -49.5 63t-77.5 29v-421q48 5 83 32.5t49 71.5q2 8 11 8h71zM178 133.5q45 -58.5 116 -67.5v421q-71 -9 -116 -66.5t-45 -141.5q0 -87 45 -145.5z" />
    <glyph glyph-name="sterling" unicode="&#xa3;" horiz-adv-x="623" 
d="M67 0q-10 0 -10 10v77q0 9 9 10q69 11 105.5 47t36.5 85q0 33 -12.5 68t-35.5 80q-4 7 -12 7h-76q-10 0 -10 10v36q0 10 10 10h60q5 0 7.5 3.5t0.5 8.5q-20 45 -20 99q0 65 30 115.5t82.5 78.5t117.5 28q79 0 142 -46t78 -135v-3q0 -8 -9 -8h-63q-8 0 -11 9
q-13 53 -51 80.5t-84 27.5q-65 0 -106 -44t-41 -114q0 -58 13 -92q3 -8 11 -8h203q10 0 10 -10v-36q0 -10 -10 -10h-182q-5 0 -7 -3.5t0 -8.5q23 -48 33 -82.5t10 -64.5q0 -40 -19 -72.5t-63 -65.5q-4 -3 -4 -7q0 -5 8 -5h347q10 0 10 -10v-55q0 -10 -10 -10h-488z" />
    <glyph glyph-name="currency" unicode="&#xa4;" horiz-adv-x="731" 
d="M148 72l-53 49l71 71q-52 69 -52 151t51 148l-69 70l50 50l70 -70q32 25 71 38t80 13q81 0 148 -49l68 68l53 -51l-70 -70q25 -32 38 -70t13 -78q0 -83 -51 -151l67 -68l-53 -49l-65 66q-67 -50 -149 -50q-83 0 -150 50zM434 175q33 13 58 38q53 53 53 127q0 35 -14 68.5
t-40 59.5t-58.5 39t-67.5 13t-68 -13.5t-59 -39.5q-25 -25 -37.5 -57.5t-12.5 -67.5q0 -37 13 -70t38 -58q26 -26 59 -39t68 -13t68 13z" />
    <glyph glyph-name="yen" unicode="&#xa5;" horiz-adv-x="674" 
d="M300 0q-10 0 -10 10v135q0 10 -10 10h-146q-10 0 -10 10v38q0 10 10 10h146q10 0 10 10v36q0 10 -10 10h-146q-10 0 -10 10v38q0 10 10 10h121q6 0 8 3.5t-1 8.5l-251 412q-2 4 -2 6q0 6 9 6h85q7 0 12 -7l214 -361q3 -4 7 -4t7 4l217 361q5 7 12 7h83q6 0 8 -3.5
t-1 -8.5l-248 -412q-2 -4 -2 -6q0 -6 9 -6h119q10 0 10 -10v-38q0 -10 -10 -10h-144q-10 0 -10 -10v-36q0 -10 10 -10h144q10 0 10 -10v-38q0 -10 -10 -10h-144q-10 0 -10 -10v-135q0 -10 -10 -10h-76z" />
    <glyph glyph-name="brokenbar" unicode="&#xa6;" horiz-adv-x="329" 
d="M132 447q-10 0 -10 10v405q0 10 10 10h65q10 0 10 -10v-405q0 -10 -10 -10h-65zM132 -110q-10 0 -10 10v401q0 10 10 10h65q10 0 10 -10v-401q0 -10 -10 -10h-65z" />
    <glyph glyph-name="section" unicode="&#xa7;" horiz-adv-x="698" 
d="M170.5 -186.5q-82.5 50.5 -105.5 148.5v2q0 9 9 9h74q9 0 12 -8q22 -61 75.5 -93t123.5 -32q78 0 123.5 33.5t45.5 93.5q0 48 -27 76.5t-67 43t-106 28.5q-12 4 -29 7q-61 13 -105.5 32.5t-73.5 56.5t-29 97q0 38 17.5 69.5t56.5 60.5q4 3 4 7q0 5 -5 7q-39 26 -56 56
t-17 72q0 59 33.5 103t91 67t130.5 23q95 0 161 -45t93 -131l1 -3q0 -8 -10 -8h-69q-8 0 -11 8q-22 49 -66 75t-104 26q-71 0 -112 -30t-41 -82q0 -42 26 -67t63.5 -37.5t101.5 -25.5q75 -16 124.5 -35t84.5 -61t35 -114q0 -38 -13.5 -70t-48.5 -61q-4 -4 -4 -7q0 -1 4 -7
q35 -27 48.5 -56.5t13.5 -70.5q0 -96 -68.5 -152t-192.5 -56q-109 0 -191.5 50.5zM486 155q4 0 7 3q35 33 35 81q0 49 -27.5 77.5t-67.5 42t-109 28.5l-24 5q-5 1 -35 9l-6 1l-8 -2q-30 -12 -46.5 -35t-16.5 -53q0 -42 25.5 -67t62.5 -37t101 -26q63 -13 102 -26q2 -1 7 -1z
" />
    <glyph glyph-name="dieresis" unicode="&#xa8;" horiz-adv-x="364" 
d="M36 666.5q-19 18.5 -19 44.5t19 44t46 18t46 -18t19 -44t-19 -44.5t-46 -18.5t-46 18.5zM236 666.5q-19 18.5 -19 44.5t19 44t46 18t46 -18t19 -44t-19 -44.5t-46 -18.5t-46 18.5z" />
    <glyph glyph-name="copyright" unicode="&#xa9;" horiz-adv-x="903" 
d="M255 43.5q-90 52.5 -142.5 142t-52.5 196.5q0 106 52.5 195.5t142.5 142t196 52.5t196 -52t142.5 -141.5t52.5 -196.5t-52.5 -196.5t-142.5 -142t-196 -52.5t-196 52.5zM611 106.5q73 42.5 115.5 115.5t42.5 160t-42.5 159.5t-115.5 115t-160 42.5t-160 -42.5
t-115.5 -115t-42.5 -159.5t42.5 -160t115.5 -115.5t160 -42.5t160 42.5zM337.5 186q-51.5 30 -81.5 82t-30 114t30 114t81.5 82t113.5 30q45 0 86.5 -17t72.5 -48q3 -3 3 -7t-3 -7l-39 -37q-3 -3 -7 -3q-3 0 -7 3q-45 43 -106 43q-42 0 -77 -20.5t-55 -55.5t-20 -77t20 -77
t55 -55.5t77 -20.5q61 0 106 43q8 6 14 0l39 -37q3 -3 3.5 -7t-3.5 -7q-31 -31 -72.5 -48t-86.5 -17q-62 0 -113.5 30z" />
    <glyph glyph-name="ordfeminine" unicode="&#xaa;" horiz-adv-x="437" 
d="M82 401.5q-34 29.5 -34 80.5q0 50 37 80q29 23 89 36l132 25q6 2 6 8q-1 41 -24 63q-25 27 -71 27q-34 0 -60 -17.5t-34 -47.5q-1 -6 -7 -6h-46q-8 0 -6 8q12 54 55 84.5t99 30.5q35 0 64 -10t49 -30q27 -25 34 -58t7 -68v-221q0 -7 -7 -7h-46q-7 0 -7 7v40q0 5 -2.5 6
t-5.5 -3q-16 -20 -39 -35q-36 -22 -91 -22q-58 0 -92 29.5zM242 438q38 19 54 51t17 80q0 4 -2.5 5.5t-5.5 0.5l-118 -24q-43 -7 -64 -27q-16 -18 -16 -41q0 -26 20 -42t54 -16q36 0 61 13z" />
    <glyph glyph-name="guillemotleft" unicode="&#xab;" horiz-adv-x="572" 
d="M238 165v-75l-217 186l217 186v-75l-130 -112zM504 165v-75l-217 186l217 186v-75l-130 -112z" />
    <glyph glyph-name="uni00AD" unicode="&#xad;" horiz-adv-x="373" 
d="M373 302h-373v64h373v-64z" />
    <glyph glyph-name="registered" unicode="&#xae;" horiz-adv-x="495" 
d="M144.5 394q-46.5 27 -73.5 73.5t-27 102.5t27 102.5t73.5 73.5t102.5 27t102.5 -27t73.5 -73.5t27 -102.5t-27 -102.5t-73.5 -73.5t-102.5 -27t-102.5 27zM333.5 421q39.5 23 62.5 62.5t23 86.5t-23 86.5t-62.5 62.5t-86.5 23t-86.5 -23t-62.5 -62.5t-23 -86.5t23 -86.5
t62.5 -62.5t86.5 -23t86.5 23zM178 451q-10 0 -10 10v216q0 10 10 10h87q34 0 54.5 -17t20.5 -51q0 -20 -7.5 -35.5t-22.5 -22.5q-9 -4 -6 -13l36 -85l1 -4q0 -8 -9 -8h-21q-8 0 -11 8l-33 81q-3 8 -11 8h-39q-10 0 -10 -10v-77q0 -10 -10 -10h-19zM260 582q19 0 30 9t11 26
t-11 26.5t-30 9.5h-43q-10 0 -10 -10v-51q0 -10 10 -10h43z" />
    <glyph glyph-name="macron" unicode="&#xaf;" horiz-adv-x="330" 
d="M27 660q-10 0 -10 10v23q0 10 10 10h276q10 0 10 -10v-23q0 -10 -10 -10h-276z" />
    <glyph glyph-name="degree" unicode="&#xb0;" horiz-adv-x="478" 
d="M161 482q-36 21 -57.5 57t-21.5 78t21 78t57 57t78 21t78.5 -21t57.5 -56.5t21 -78.5q0 -42 -21.5 -78t-57.5 -57t-78 -21q-41 0 -77 21zM301.5 554q26.5 26 26.5 63t-26 63t-64 26q-37 0 -63 -26t-26 -63t26 -63t63 -26t63.5 26z" />
    <glyph glyph-name="plusminus" unicode="&#xb1;" horiz-adv-x="695" 
d="M322 158q-10 0 -10 10v142q0 10 -10 10h-222q-10 0 -10 10v51q0 10 10 10h222q10 0 10 10v142q0 10 10 10h51q10 0 10 -10v-142q0 -10 10 -10h222q10 0 10 -10v-51q0 -10 -10 -10h-222q-10 0 -10 -10v-142q0 -10 -10 -10h-51zM80 0q-10 0 -10 10v51q0 10 10 10h535
q10 0 10 -10v-51q0 -10 -10 -10h-535z" />
    <glyph glyph-name="acute" unicode="&#xb4;" horiz-adv-x="239" 
d="M25 611q-6 0 -8 4t2 8l103 134q4 6 13 6h79q6 0 7.5 -3.5t-2.5 -8.5l-126 -135q-5 -5 -12 -5h-56z" />
    <glyph glyph-name="paragraph" unicode="&#xb6;" horiz-adv-x="629" 
d="M304 -110q-10 0 -10 10v425q0 10 -10 11q-63 5 -116.5 32t-85.5 74t-32 108q0 65 34 113.5t90 74t120 25.5h76q10 0 10 -10v-853q0 -10 -10 -10h-66zM474 -110q-10 0 -10 10v853q0 10 10 10h66q10 0 10 -10v-853q0 -10 -10 -10h-66z" />
    <glyph glyph-name="periodcentered" unicode="&#xb7;" horiz-adv-x="327" 
d="M110 344.5q-21 21.5 -21 51.5q0 31 21.5 52.5t51.5 21.5q31 0 53 -21.5t22 -52.5q0 -30 -22 -51.5t-53 -21.5t-52 21.5z" />
    <glyph glyph-name="cedilla" unicode="&#xb8;" horiz-adv-x="249" 
d="M26 -209q-9 1 -9 11v16q0 5 3.5 7.5t8.5 0.5q39 -14 76 -14q34 0 54 13.5t20 38.5q0 33 -33 46.5t-97 13.5q-7 0 -8.5 3.5t2.5 8.5l60 78h54q-4 -4 -20 -23t-47 -41l7 -9q24 3 38 3q23 0 38 -6q59 -19 59 -72q0 -41 -34 -63.5t-89 -22.5q-40 0 -83 11z" />
    <glyph glyph-name="ordmasculine" unicode="&#xba;" horiz-adv-x="476" 
d="M139 398q-43 26 -67 72t-24 104q0 57 24 102.5t67 71t98 25.5q54 0 97.5 -25.5t68 -71t24.5 -102.5q0 -58 -24 -104t-67.5 -72t-98.5 -26t-98 26zM330 467.5q37 42.5 37 106.5q0 63 -37 105t-93 42t-93 -42t-37 -105q0 -65 37 -107t93 -42t93 42.5z" />
    <glyph glyph-name="guillemotright" unicode="&#xbb;" horiz-adv-x="572" 
d="M285 276l-217 -186v75l130 110l-130 112v75zM551 276l-217 -186v75l130 110l-130 112v75z" />
    <glyph glyph-name="questiondown" unicode="&#xbf;" horiz-adv-x="529" 
d="M307.5 545.5q17.5 -17.5 17.5 -42.5q0 -23 -17.5 -40.5t-41.5 -17.5t-41.5 17t-17.5 41q0 25 17.5 42.5t41.5 17.5t41.5 -17.5zM305 309q0 -58 -15.5 -96.5t-37 -60.5t-56.5 -48q-28 -20 -43.5 -35t-26 -37t-10.5 -53q0 -60 38.5 -92t105.5 -32q71 0 111 38t45 105h78
q-6 -101 -68.5 -159t-160.5 -58q-99 0 -163 53t-64 149q0 42 12.5 71.5t31 48.5t49.5 42q31 24 49.5 43t31.5 48.5t13 72.5v28h80v-28z" />
    <glyph glyph-name="Agrave" unicode="&#xc0;" horiz-adv-x="694" 
d="M26 0q-5 0 -7.5 3.5t-0.5 8.5l274 743q3 8 12 8h86q9 0 12 -8l274 -743l1 -4q0 -8 -9 -8h-72q-9 0 -12 8l-61 171q-3 8 -12 8h-328q-9 0 -12 -8l-61 -171q-3 -8 -12 -8h-72zM477 269q11 0 8 11l-131 371q-1 6 -7 6q-4 0 -7 -6l-131 -371l-1 -4q0 -7 9 -7h260zM322 821
q-7 0 -12 5l-126 135q-3 5 -3 7q0 5 8 5h79q9 0 13 -6l103 -134q2 -2 2 -6q0 -2 -2 -4t-6 -2h-56z" />
    <glyph glyph-name="Aacute" unicode="&#xc1;" horiz-adv-x="694" 
d="M26 0q-5 0 -7.5 3.5t-0.5 8.5l274 743q3 8 12 8h86q9 0 12 -8l274 -743l1 -4q0 -8 -9 -8h-72q-9 0 -12 8l-61 171q-3 8 -12 8h-328q-9 0 -12 -8l-61 -171q-3 -8 -12 -8h-72zM477 269q11 0 8 11l-131 371q-1 6 -7 6q-4 0 -7 -6l-131 -371l-1 -4q0 -7 9 -7h260zM316 821
q-6 0 -8 4t2 8l103 134q4 6 13 6h79q6 0 7.5 -3.5t-2.5 -8.5l-126 -135q-5 -5 -12 -5h-56z" />
    <glyph glyph-name="Acircumflex" unicode="&#xc2;" horiz-adv-x="694" 
d="M26 0q-5 0 -7.5 3.5t-0.5 8.5l274 743q3 8 12 8h86q9 0 12 -8l274 -743l1 -4q0 -8 -9 -8h-72q-9 0 -12 8l-61 171q-3 8 -12 8h-328q-9 0 -12 -8l-61 -171q-3 -8 -12 -8h-72zM477 269q11 0 8 11l-131 371q-1 6 -7 6q-4 0 -7 -6l-131 -371l-1 -4q0 -7 9 -7h260zM195 828
q-6 0 -7.5 3.5t2.5 8.5l145 153q5 5 12 5t12 -5l145 -153q3 -4 3 -7q0 -5 -8 -5h-74q-8 0 -12 6l-59 72q-3 4 -7 4t-7 -4l-59 -72q-5 -6 -12 -6h-74z" />
    <glyph glyph-name="Atilde" unicode="&#xc3;" horiz-adv-x="694" 
d="M26 0q-5 0 -7.5 3.5t-0.5 8.5l274 743q3 8 12 8h86q9 0 12 -8l274 -743l1 -4q0 -8 -9 -8h-72q-9 0 -12 8l-61 171q-3 8 -12 8h-328q-9 0 -12 -8l-61 -171q-3 -8 -12 -8h-72zM477 269q11 0 8 11l-131 371q-1 6 -7 6q-4 0 -7 -6l-131 -371l-1 -4q0 -7 9 -7h260z
M363.5 836.5q-20.5 13.5 -42.5 37.5q-14 16 -24 23.5t-22 7.5q-35 0 -41 -68q-1 -10 -11 -10h-47q-5 0 -7.5 3t-1.5 8q5 65 34.5 102.5t77.5 37.5q30 0 49 -13t41 -37q16 -17 26 -24.5t23 -7.5q15 0 24.5 16.5t12.5 50.5q1 10 11 10h49q10 0 9 -15q-6 -69 -31.5 -102
t-75.5 -33q-33 0 -53.5 13.5z" />
    <glyph glyph-name="Adieresis" unicode="&#xc4;" horiz-adv-x="694" 
d="M26 0q-5 0 -7.5 3.5t-0.5 8.5l274 743q3 8 12 8h86q9 0 12 -8l274 -743l1 -4q0 -8 -9 -8h-72q-9 0 -12 8l-61 171q-3 8 -12 8h-328q-9 0 -12 -8l-61 -171q-3 -8 -12 -8h-72zM477 269q11 0 8 11l-131 371q-1 6 -7 6q-4 0 -7 -6l-131 -371l-1 -4q0 -7 9 -7h260z
M205.5 827.5q-17.5 16.5 -17.5 40.5t17.5 41t41.5 17q23 0 40.5 -17t17.5 -41q0 -23 -17.5 -40t-40.5 -17q-24 0 -41.5 16.5zM405.5 827.5q-17.5 16.5 -17.5 40.5t17.5 41t41.5 17q23 0 40.5 -17t17.5 -41q0 -23 -17.5 -40t-40.5 -17q-24 0 -41.5 16.5z" />
    <glyph glyph-name="Aring" unicode="&#xc5;" horiz-adv-x="694" 
d="M26 0q-5 0 -7.5 3.5t-0.5 8.5l259 703q1 1 1 4q0 4 -5 9q-22 16 -33.5 40.5t-11.5 52.5q0 49 34.5 83.5t83.5 34.5t84.5 -34t35.5 -84q0 -28 -11.5 -52.5t-33.5 -40.5q-7 -7 -4 -13l259 -703l1 -4q0 -8 -9 -8h-72q-9 0 -12 8l-61 171q-3 8 -12 8h-328q-9 0 -12 -8
l-61 -171q-3 -8 -12 -8h-72zM388 780.5q16 16.5 16 42.5q0 23 -15.5 39t-41.5 16q-24 0 -40 -16t-16 -39q0 -25 16.5 -42t39.5 -17q25 0 41 16.5zM477 269q11 0 8 11l-131 373q-1 6 -7 6q-4 0 -7 -6l-131 -373l-1 -4q0 -7 9 -7h260z" />
    <glyph glyph-name="AE" unicode="&#xc6;" horiz-adv-x="1072" 
d="M26 0q-5 0 -7.5 3.5t-0.5 8.5l274 743q3 8 12 8h465q8 0 11 -8l24 -63l1 -4q0 -8 -9 -8h-353q-11 0 -8 -11l87 -237q3 -8 12 -8h359q9 0 12 -8l22 -63l1 -4q0 -7 -9 -7h-352q-11 0 -8 -11l88 -240q3 -8 12 -8h360q8 0 11 -8l24 -63l1 -4q0 -8 -9 -8h-454q-9 0 -12 8
l-57 171q-3 8 -12 8h-328q-9 0 -12 -8l-61 -171q-3 -8 -12 -8h-72zM477 269q11 0 8 11l-131 374q-1 7 -7 7q-4 0 -7 -7l-131 -374l-1 -4q0 -7 9 -7h260z" />
    <glyph glyph-name="Ccedilla" unicode="&#xc7;" horiz-adv-x="748" 
d="M696 231q11 0 9 -10q-20 -108 -100 -169.5t-203 -61.5h-16q-19 -21 -46 -40l7 -9q24 3 38 3q23 0 38 -6q59 -19 59 -72q0 -41 -34 -63.5t-89 -22.5q-40 0 -83 11q-9 1 -9 11v16q0 5 3.5 7.5t8.5 0.5q39 -14 76 -14q34 0 54 13.5t20 38.5q0 33 -33 46.5t-97 13.5
q-7 0 -8.5 3.5t2.5 8.5l45 59q-95 14 -160 69.5t-96.5 138t-31.5 179.5q0 107 39 196t118 142t195 53q121 0 201.5 -57.5t101.5 -152.5v-2q0 -9 -9 -9h-80q-9 0 -11 9q-17 60 -71.5 95t-133.5 35q-83 0 -141 -39.5t-87.5 -109.5t-29.5 -160q0 -91 29.5 -161t87.5 -109.5
t141 -39.5q81 0 135 38.5t70 111.5q3 9 11 9h80z" />
    <glyph glyph-name="Egrave" unicode="&#xc8;" horiz-adv-x="616" 
d="M89 0q-10 0 -10 10v743q0 10 10 10h473q10 0 10 -10v-63q0 -10 -10 -10h-381q-10 0 -10 -10v-236q0 -10 10 -10h334q10 0 10 -10v-62q0 -10 -10 -10h-334q-10 0 -10 -10v-239q0 -10 10 -10h381q10 0 10 -10v-63q0 -10 -10 -10h-473zM301 821q-7 0 -12 5l-126 135
q-3 5 -3 7q0 5 8 5h79q9 0 13 -6l103 -134q2 -2 2 -6q0 -2 -2 -4t-6 -2h-56z" />
    <glyph glyph-name="Eacute" unicode="&#xc9;" horiz-adv-x="616" 
d="M89 0q-10 0 -10 10v743q0 10 10 10h473q10 0 10 -10v-63q0 -10 -10 -10h-381q-10 0 -10 -10v-236q0 -10 10 -10h334q10 0 10 -10v-62q0 -10 -10 -10h-334q-10 0 -10 -10v-239q0 -10 10 -10h381q10 0 10 -10v-63q0 -10 -10 -10h-473zM295 821q-6 0 -8 4t2 8l103 134
q4 6 13 6h79q6 0 7.5 -3.5t-2.5 -8.5l-126 -135q-5 -5 -12 -5h-56z" />
    <glyph glyph-name="Ecircumflex" unicode="&#xca;" horiz-adv-x="616" 
d="M89 0q-10 0 -10 10v743q0 10 10 10h473q10 0 10 -10v-63q0 -10 -10 -10h-381q-10 0 -10 -10v-236q0 -10 10 -10h334q10 0 10 -10v-62q0 -10 -10 -10h-334q-10 0 -10 -10v-239q0 -10 10 -10h381q10 0 10 -10v-63q0 -10 -10 -10h-473zM174 828q-6 0 -7.5 3.5t2.5 8.5
l145 153q5 5 12 5t12 -5l145 -153q3 -4 3 -7q0 -5 -8 -5h-74q-8 0 -12 6l-59 72q-3 4 -7 4t-7 -4l-59 -72q-5 -6 -12 -6h-74z" />
    <glyph glyph-name="Edieresis" unicode="&#xcb;" horiz-adv-x="616" 
d="M89 0q-10 0 -10 10v743q0 10 10 10h473q10 0 10 -10v-63q0 -10 -10 -10h-381q-10 0 -10 -10v-236q0 -10 10 -10h334q10 0 10 -10v-62q0 -10 -10 -10h-334q-10 0 -10 -10v-239q0 -10 10 -10h381q10 0 10 -10v-63q0 -10 -10 -10h-473zM184.5 827.5q-17.5 16.5 -17.5 40.5
t17.5 41t41.5 17q23 0 40.5 -17t17.5 -41q0 -23 -17.5 -40t-40.5 -17q-24 0 -41.5 16.5zM384.5 827.5q-17.5 16.5 -17.5 40.5t17.5 41t41.5 17q23 0 40.5 -17t17.5 -41q0 -23 -17.5 -40t-40.5 -17q-24 0 -41.5 16.5z" />
    <glyph glyph-name="Igrave" unicode="&#xcc;" horiz-adv-x="251" 
d="M89 0q-10 0 -10 10v743q0 10 10 10h72q10 0 10 -10v-743q0 -10 -10 -10h-72zM100 821q-7 0 -12 5l-126 135q-3 5 -3 7q0 5 8 5h79q9 0 13 -6l103 -134q2 -2 2 -6q0 -2 -2 -4t-6 -2h-56z" />
    <glyph glyph-name="Iacute" unicode="&#xcd;" horiz-adv-x="251" 
d="M89 0q-10 0 -10 10v743q0 10 10 10h72q10 0 10 -10v-743q0 -10 -10 -10h-72zM94 821q-6 0 -8 4t2 8l103 134q4 6 13 6h79q6 0 7.5 -3.5t-2.5 -8.5l-126 -135q-5 -5 -12 -5h-56z" />
    <glyph glyph-name="Icircumflex" unicode="&#xce;" horiz-adv-x="251" 
d="M89 0q-10 0 -10 10v743q0 10 10 10h72q10 0 10 -10v-743q0 -10 -10 -10h-72zM-27 828q-6 0 -7.5 3.5t2.5 8.5l145 153q5 5 12 5t12 -5l145 -153q3 -4 3 -7q0 -5 -8 -5h-74q-8 0 -12 6l-59 72q-3 4 -7 4t-7 -4l-59 -72q-5 -6 -12 -6h-74z" />
    <glyph glyph-name="Idieresis" unicode="&#xcf;" horiz-adv-x="251" 
d="M89 0q-10 0 -10 10v743q0 10 10 10h72q10 0 10 -10v-743q0 -10 -10 -10h-72zM-16.5 827.5q-17.5 16.5 -17.5 40.5t17.5 41t41.5 17q23 0 40.5 -17t17.5 -41q0 -23 -17.5 -40t-40.5 -17q-24 0 -41.5 16.5zM183.5 827.5q-17.5 16.5 -17.5 40.5t17.5 41t41.5 17
q23 0 40.5 -17t17.5 -41q0 -23 -17.5 -40t-40.5 -17q-24 0 -41.5 16.5z" />
    <glyph glyph-name="Eth" unicode="&#xd0;" horiz-adv-x="732" 
d="M289 763q190 0 291 -100t101 -284q0 -181 -101.5 -280t-291.5 -99h-199q-10 0 -10 10v336h-62q-10 0 -10 10v51q0 10 10 10h62v336q0 10 10 10h200zM287 83q138 0 220 65t82 231q0 301 -301 301h-107q-10 0 -10 -10v-253h235q10 0 10 -10v-51q0 -10 -10 -10h-235v-253
q0 -10 10 -10h106z" />
    <glyph glyph-name="Ntilde" unicode="&#xd1;" horiz-adv-x="727" 
d="M89 0q-10 0 -10 10v743q0 10 10 10h116q9 0 12 -7l327 -641q3 -6 7 -6q2 0 3.5 2.5t1.5 6.5v635q0 10 10 10h71q10 0 10 -10v-743q0 -10 -10 -10h-116q-9 0 -12 7l-326 639q-3 6 -7 6q-2 0 -3.5 -2.5t-1.5 -6.5v-633q0 -10 -10 -10h-72zM379.5 836.5
q-20.5 13.5 -42.5 37.5q-14 16 -24 23.5t-22 7.5q-35 0 -41 -68q-1 -10 -11 -10h-47q-5 0 -7.5 3t-1.5 8q5 65 34.5 102.5t77.5 37.5q30 0 49 -13t41 -37q16 -17 26 -24.5t23 -7.5q15 0 24.5 16.5t12.5 50.5q1 10 11 10h49q10 0 9 -15q-6 -69 -31.5 -102t-75.5 -33
q-33 0 -53.5 13.5z" />
    <glyph glyph-name="Ograve" unicode="&#xd2;" horiz-adv-x="811" 
d="M209 43q-80 53 -119.5 142.5t-39.5 196.5t39.5 196t119.5 142t195 53q116 0 196.5 -53t120 -141.5t39.5 -196.5t-39.5 -197t-120 -142t-196.5 -53q-115 0 -195 53zM547.5 112.5q59.5 39.5 90 109.5t30.5 160t-30.5 159.5t-90 109t-143.5 39.5q-83 0 -142 -39.5
t-89.5 -109t-30.5 -159.5t30.5 -160t89.5 -109.5t142 -39.5q84 0 143.5 39.5zM380 821q-7 0 -12 5l-126 135q-3 5 -3 7q0 5 8 5h79q9 0 13 -6l103 -134q2 -2 2 -6q0 -2 -2 -4t-6 -2h-56z" />
    <glyph glyph-name="Oacute" unicode="&#xd3;" horiz-adv-x="811" 
d="M209 43q-80 53 -119.5 142.5t-39.5 196.5t39.5 196t119.5 142t195 53q116 0 196.5 -53t120 -141.5t39.5 -196.5t-39.5 -197t-120 -142t-196.5 -53q-115 0 -195 53zM547.5 112.5q59.5 39.5 90 109.5t30.5 160t-30.5 159.5t-90 109t-143.5 39.5q-83 0 -142 -39.5
t-89.5 -109t-30.5 -159.5t30.5 -160t89.5 -109.5t142 -39.5q84 0 143.5 39.5zM374 821q-6 0 -8 4t2 8l103 134q4 6 13 6h79q6 0 7.5 -3.5t-2.5 -8.5l-126 -135q-5 -5 -12 -5h-56z" />
    <glyph glyph-name="Ocircumflex" unicode="&#xd4;" horiz-adv-x="811" 
d="M209 43q-80 53 -119.5 142.5t-39.5 196.5t39.5 196t119.5 142t195 53q116 0 196.5 -53t120 -141.5t39.5 -196.5t-39.5 -197t-120 -142t-196.5 -53q-115 0 -195 53zM547.5 112.5q59.5 39.5 90 109.5t30.5 160t-30.5 159.5t-90 109t-143.5 39.5q-83 0 -142 -39.5
t-89.5 -109t-30.5 -159.5t30.5 -160t89.5 -109.5t142 -39.5q84 0 143.5 39.5zM253 828q-6 0 -7.5 3.5t2.5 8.5l145 153q5 5 12 5t12 -5l145 -153q3 -4 3 -7q0 -5 -8 -5h-74q-8 0 -12 6l-59 72q-3 4 -7 4t-7 -4l-59 -72q-5 -6 -12 -6h-74z" />
    <glyph glyph-name="Otilde" unicode="&#xd5;" horiz-adv-x="811" 
d="M209 43q-80 53 -119.5 142.5t-39.5 196.5t39.5 196t119.5 142t195 53q116 0 196.5 -53t120 -141.5t39.5 -196.5t-39.5 -197t-120 -142t-196.5 -53q-115 0 -195 53zM547.5 112.5q59.5 39.5 90 109.5t30.5 160t-30.5 159.5t-90 109t-143.5 39.5q-83 0 -142 -39.5
t-89.5 -109t-30.5 -159.5t30.5 -160t89.5 -109.5t142 -39.5q84 0 143.5 39.5zM421.5 836.5q-20.5 13.5 -42.5 37.5q-14 16 -24 23.5t-22 7.5q-35 0 -41 -68q-1 -10 -11 -10h-47q-5 0 -7.5 3t-1.5 8q5 65 34.5 102.5t77.5 37.5q30 0 49 -13t41 -37q16 -17 26 -24.5t23 -7.5
q15 0 24.5 16.5t12.5 50.5q1 10 11 10h49q10 0 9 -15q-6 -69 -31.5 -102t-75.5 -33q-33 0 -53.5 13.5z" />
    <glyph glyph-name="Odieresis" unicode="&#xd6;" horiz-adv-x="811" 
d="M209 43q-80 53 -119.5 142.5t-39.5 196.5t39.5 196t119.5 142t195 53q116 0 196.5 -53t120 -141.5t39.5 -196.5t-39.5 -197t-120 -142t-196.5 -53q-115 0 -195 53zM547.5 112.5q59.5 39.5 90 109.5t30.5 160t-30.5 159.5t-90 109t-143.5 39.5q-83 0 -142 -39.5
t-89.5 -109t-30.5 -159.5t30.5 -160t89.5 -109.5t142 -39.5q84 0 143.5 39.5zM263.5 827.5q-17.5 16.5 -17.5 40.5t17.5 41t41.5 17q23 0 40.5 -17t17.5 -41q0 -23 -17.5 -40t-40.5 -17q-24 0 -41.5 16.5zM463.5 827.5q-17.5 16.5 -17.5 40.5t17.5 41t41.5 17q23 0 40.5 -17
t17.5 -41q0 -23 -17.5 -40t-40.5 -17q-24 0 -41.5 16.5z" />
    <glyph glyph-name="multiply" unicode="&#xd7;" horiz-adv-x="567" 
d="M69 159q-3 3 -3 7t3 7l157 158q3 3 3 7t-3 7l-157 157q-3 3 -3 7t3 7l36 36q3 3 7 3t7 -3l158 -157q3 -3 7 -3t7 3l157 157q3 3 7 3t7 -3l36 -36q3 -3 3 -7t-3 -7l-157 -157q-3 -3 -3 -7t3 -7l157 -158q3 -3 3 -7t-3 -7l-36 -36q-3 -3 -7 -3t-7 3l-157 157q-3 3 -7 3
t-7 -3l-158 -157q-3 -3 -7 -3t-7 3z" />
    <glyph glyph-name="Oslash" unicode="&#xd8;" horiz-adv-x="811" 
d="M695 626q32 -50 48.5 -112.5t16.5 -131.5q0 -108 -39.5 -197t-120 -142t-196.5 -53q-79 0 -141.5 25.5t-107.5 71.5l-52 -52q-3 -3 -7 -3t-7 3l-31 31q-3 3 -3 7t3 7l58 58q-33 50 -49.5 113t-16.5 131q0 107 39.5 196t119.5 142t195 53q156 0 250 -97l53 53q3 3 7 3
t7 -3l31 -32q3 -3 3 -7t-3 -7zM181 203l410 410q-69 77 -187 77q-83 0 -142 -39.5t-89.5 -109t-30.5 -159.5q0 -104 39 -179zM547.5 112.5q59.5 39.5 90 109.5t30.5 160q0 105 -39 178l-411 -410q69 -77 186 -77q84 0 143.5 39.5z" />
    <glyph glyph-name="Ugrave" unicode="&#xd9;" horiz-adv-x="711" 
d="M143 62q-71 72 -71 202v489q0 10 10 10h72q10 0 10 -10v-489q0 -92 47 -142t144 -50t144 50t47 142v489q0 10 10 10h72q10 0 10 -10v-489q0 -130 -71 -202t-212 -72t-212 72zM330 821q-7 0 -12 5l-126 135q-3 5 -3 7q0 5 8 5h79q9 0 13 -6l103 -134q2 -2 2 -6q0 -2 -2 -4
t-6 -2h-56z" />
    <glyph glyph-name="Uacute" unicode="&#xda;" horiz-adv-x="711" 
d="M143 62q-71 72 -71 202v489q0 10 10 10h72q10 0 10 -10v-489q0 -92 47 -142t144 -50t144 50t47 142v489q0 10 10 10h72q10 0 10 -10v-489q0 -130 -71 -202t-212 -72t-212 72zM324 821q-6 0 -8 4t2 8l103 134q4 6 13 6h79q6 0 7.5 -3.5t-2.5 -8.5l-126 -135q-5 -5 -12 -5
h-56z" />
    <glyph glyph-name="Ucircumflex" unicode="&#xdb;" horiz-adv-x="711" 
d="M143 62q-71 72 -71 202v489q0 10 10 10h72q10 0 10 -10v-489q0 -92 47 -142t144 -50t144 50t47 142v489q0 10 10 10h72q10 0 10 -10v-489q0 -130 -71 -202t-212 -72t-212 72zM203 828q-6 0 -7.5 3.5t2.5 8.5l145 153q5 5 12 5t12 -5l145 -153q3 -4 3 -7q0 -5 -8 -5h-74
q-8 0 -12 6l-59 72q-3 4 -7 4t-7 -4l-59 -72q-5 -6 -12 -6h-74z" />
    <glyph glyph-name="Udieresis" unicode="&#xdc;" horiz-adv-x="711" 
d="M143 62q-71 72 -71 202v489q0 10 10 10h72q10 0 10 -10v-489q0 -92 47 -142t144 -50t144 50t47 142v489q0 10 10 10h72q10 0 10 -10v-489q0 -130 -71 -202t-212 -72t-212 72zM213.5 827.5q-17.5 16.5 -17.5 40.5t17.5 41t41.5 17q23 0 40.5 -17t17.5 -41q0 -23 -17.5 -40
t-40.5 -17q-24 0 -41.5 16.5zM413.5 827.5q-17.5 16.5 -17.5 40.5t17.5 41t41.5 17q23 0 40.5 -17t17.5 -41q0 -23 -17.5 -40t-40.5 -17q-24 0 -41.5 16.5z" />
    <glyph glyph-name="Yacute" unicode="&#xdd;" horiz-adv-x="674" 
d="M300 0q-10 0 -10 10v275q0 7 -3 13l-276 453q-2 4 -2 6q0 6 9 6h85q7 0 12 -7l214 -361q3 -4 7 -4t7 4l217 361q5 7 12 7h83q6 0 8 -3.5t-1 -8.5l-273 -453q-3 -6 -3 -13v-275q0 -10 -10 -10h-76zM306 821q-6 0 -8 4t2 8l103 134q4 6 13 6h79q6 0 7.5 -3.5t-2.5 -8.5
l-126 -135q-5 -5 -12 -5h-56z" />
    <glyph glyph-name="Thorn" unicode="&#xde;" horiz-adv-x="641" 
d="M89 0q-10 0 -10 10v743q0 10 10 10h71q10 0 10 -10v-88q0 -10 10 -10h182q113 0 178 -55t65 -160q0 -103 -65.5 -161t-177.5 -58h-182q-10 0 -10 -10v-201q0 -10 -10 -10h-71zM352 302q78 0 120 34.5t42 100.5q0 64 -42.5 99.5t-119.5 35.5h-172q-10 0 -10 -10v-250
q0 -10 10 -10h172z" />
    <glyph glyph-name="germandbls" unicode="&#xdf;" horiz-adv-x="674" 
d="M90 0q-10 0 -10 10v483q0 134 69 207t199 73q73 0 130 -24.5t89 -68t32 -98.5q0 -122 -94 -164q-12 -4 0 -9q67 -18 99.5 -66.5t32.5 -128.5q0 -99 -70 -156.5t-190 -57.5h-71q-10 0 -10 10v55q0 10 10 10h62q88 0 136 37.5t48 106.5q0 70 -42 107.5t-120 37.5h-84
q-10 0 -10 10v55q0 10 10 10h68q66 0 103 34t37 95q0 58 -46 94t-120 36q-84 0 -133.5 -50.5t-49.5 -154.5v-483q0 -10 -10 -10h-65z" />
    <glyph glyph-name="agrave" unicode="&#xe0;" horiz-adv-x="576" 
d="M96.5 32q-48.5 42 -48.5 115q0 72 54 114q44 35 127 52l188 36q9 2 9 11q-3 59 -34 90q-38 38 -102 38q-49 0 -85.5 -25t-48.5 -67q-3 -9 -11 -9h-65q-11 0 -9 11q17 78 78 121.5t142 43.5q49 0 91 -14.5t71 -42.5q38 -36 48 -83t10 -97v-316q0 -10 -10 -10h-65
q-10 0 -10 10v57q0 8 -5 8q-4 0 -7 -4q-25 -31 -55 -49q-51 -32 -131 -32q-83 0 -131.5 42zM326 84q54 28 76.5 73t24.5 114q0 5 -3 7.5t-8 1.5l-169 -34q-62 -12 -91 -39q-23 -23 -23 -58q0 -38 28.5 -61t76.5 -23q51 0 88 19zM270 611q-7 0 -12 5l-126 135q-3 5 -3 7
q0 5 8 5h79q9 0 13 -6l103 -134q2 -2 2 -6q0 -2 -2 -4t-6 -2h-56z" />
    <glyph glyph-name="aacute" unicode="&#xe1;" horiz-adv-x="576" 
d="M96.5 32q-48.5 42 -48.5 115q0 72 54 114q44 35 127 52l188 36q9 2 9 11q-3 59 -34 90q-38 38 -102 38q-49 0 -85.5 -25t-48.5 -67q-3 -9 -11 -9h-65q-11 0 -9 11q17 78 78 121.5t142 43.5q49 0 91 -14.5t71 -42.5q38 -36 48 -83t10 -97v-316q0 -10 -10 -10h-65
q-10 0 -10 10v57q0 8 -5 8q-4 0 -7 -4q-25 -31 -55 -49q-51 -32 -131 -32q-83 0 -131.5 42zM326 84q54 28 76.5 73t24.5 114q0 5 -3 7.5t-8 1.5l-169 -34q-62 -12 -91 -39q-23 -23 -23 -58q0 -38 28.5 -61t76.5 -23q51 0 88 19zM264 611q-6 0 -8 4t2 8l103 134q4 6 13 6h79
q6 0 7.5 -3.5t-2.5 -8.5l-126 -135q-5 -5 -12 -5h-56z" />
    <glyph glyph-name="acircumflex" unicode="&#xe2;" horiz-adv-x="576" 
d="M96.5 32q-48.5 42 -48.5 115q0 72 54 114q44 35 127 52l188 36q9 2 9 11q-3 59 -34 90q-38 38 -102 38q-49 0 -85.5 -25t-48.5 -67q-3 -9 -11 -9h-65q-11 0 -9 11q17 78 78 121.5t142 43.5q49 0 91 -14.5t71 -42.5q38 -36 48 -83t10 -97v-316q0 -10 -10 -10h-65
q-10 0 -10 10v57q0 8 -5 8q-4 0 -7 -4q-25 -31 -55 -49q-51 -32 -131 -32q-83 0 -131.5 42zM326 84q54 28 76.5 73t24.5 114q0 5 -3 7.5t-8 1.5l-169 -34q-62 -12 -91 -39q-23 -23 -23 -58q0 -38 28.5 -61t76.5 -23q51 0 88 19zM143 618q-6 0 -7.5 3.5t2.5 8.5l145 153
q5 5 12 5t12 -5l145 -153q3 -4 3 -7q0 -5 -8 -5h-74q-8 0 -12 6l-59 72q-3 4 -7 4t-7 -4l-59 -72q-5 -6 -12 -6h-74z" />
    <glyph glyph-name="atilde" unicode="&#xe3;" horiz-adv-x="576" 
d="M96.5 32q-48.5 42 -48.5 115q0 72 54 114q44 35 127 52l188 36q9 2 9 11q-3 59 -34 90q-38 38 -102 38q-49 0 -85.5 -25t-48.5 -67q-3 -9 -11 -9h-65q-11 0 -9 11q17 78 78 121.5t142 43.5q49 0 91 -14.5t71 -42.5q38 -36 48 -83t10 -97v-316q0 -10 -10 -10h-65
q-10 0 -10 10v57q0 8 -5 8q-4 0 -7 -4q-25 -31 -55 -49q-51 -32 -131 -32q-83 0 -131.5 42zM326 84q54 28 76.5 73t24.5 114q0 5 -3 7.5t-8 1.5l-169 -34q-62 -12 -91 -39q-23 -23 -23 -58q0 -38 28.5 -61t76.5 -23q51 0 88 19zM311.5 626.5q-20.5 13.5 -42.5 37.5
q-14 16 -24 23.5t-22 7.5q-35 0 -41 -68q-1 -10 -11 -10h-47q-5 0 -7.5 3t-1.5 8q5 65 34.5 102.5t77.5 37.5q30 0 49 -13t41 -37q16 -17 26 -24.5t23 -7.5q15 0 24.5 16.5t12.5 50.5q1 10 11 10h49q10 0 9 -15q-6 -69 -31.5 -102t-75.5 -33q-33 0 -53.5 13.5z" />
    <glyph glyph-name="adieresis" unicode="&#xe4;" horiz-adv-x="576" 
d="M96.5 32q-48.5 42 -48.5 115q0 72 54 114q44 35 127 52l188 36q9 2 9 11q-3 59 -34 90q-38 38 -102 38q-49 0 -85.5 -25t-48.5 -67q-3 -9 -11 -9h-65q-11 0 -9 11q17 78 78 121.5t142 43.5q49 0 91 -14.5t71 -42.5q38 -36 48 -83t10 -97v-316q0 -10 -10 -10h-65
q-10 0 -10 10v57q0 8 -5 8q-4 0 -7 -4q-25 -31 -55 -49q-51 -32 -131 -32q-83 0 -131.5 42zM326 84q54 28 76.5 73t24.5 114q0 5 -3 7.5t-8 1.5l-169 -34q-62 -12 -91 -39q-23 -23 -23 -58q0 -38 28.5 -61t76.5 -23q51 0 88 19zM149 666.5q-19 18.5 -19 44.5t19 44t46 18
t46 -18t19 -44t-19 -44.5t-46 -18.5t-46 18.5zM349 666.5q-19 18.5 -19 44.5t19 44t46 18t46 -18t19 -44t-19 -44.5t-46 -18.5t-46 18.5z" />
    <glyph glyph-name="aring" unicode="&#xe5;" horiz-adv-x="576" 
d="M96.5 32q-48.5 42 -48.5 115q0 72 54 114q44 35 127 52l188 36q9 2 9 11q-3 59 -34 90q-38 38 -102 38q-49 0 -85.5 -25t-48.5 -67q-3 -9 -11 -9h-65q-11 0 -9 11q17 78 78 121.5t142 43.5q49 0 91 -14.5t71 -42.5q38 -36 48 -83t10 -97v-316q0 -10 -10 -10h-65
q-10 0 -10 10v57q0 8 -5 8q-4 0 -7 -4q-25 -31 -55 -49q-51 -32 -131 -32q-83 0 -131.5 42zM326 84q54 28 76.5 73t24.5 114q0 5 -3 7.5t-8 1.5l-169 -34q-62 -12 -91 -39q-23 -23 -23 -58q0 -38 28.5 -61t76.5 -23q51 0 88 19zM210.5 616.5q-34.5 35.5 -34.5 83.5
q0 49 34.5 83.5t83.5 34.5t84.5 -34t35.5 -84q0 -49 -35 -84t-85 -35q-49 0 -83.5 35.5zM335 659.5q16 16.5 16 42.5q0 23 -15.5 39t-41.5 16q-24 0 -40 -16t-16 -39q0 -25 16.5 -42t39.5 -17q25 0 41 16.5z" />
    <glyph glyph-name="ae" unicode="&#xe6;" horiz-adv-x="1008" 
d="M96.5 32q-48.5 42 -48.5 115q0 72 54 114q44 35 127 52l188 36q9 2 9 11q-3 59 -34 90q-38 38 -102 38q-49 0 -85.5 -25t-48.5 -67q-3 -9 -11 -9h-65q-11 0 -9 11q17 78 78 121.5t142 43.5q49 0 91 -14.5t71 -42.5q12 -11 26 -33q3 -5 7 -5t7 4q36 43 86.5 67t114.5 24
q71 0 132 -32t98 -93.5t37 -147.5v-20q0 -10 -10 -10h-430q-5 0 -7.5 -3t-1.5 -7q4 -27 10 -45q21 -64 67.5 -102t105.5 -38q57 0 99 29.5t63 75.5q3 8 11 8h71q5 0 7.5 -3t0.5 -8q-29 -79 -93 -128t-158 -49q-73 0 -131.5 32.5t-93.5 90.5q-3 5 -7 5t-7 -5q-42 -64 -96 -94
q-54 -29 -133 -29q-83 0 -131.5 42zM860 335q5 0 7.5 3t1.5 7q-4 28 -11 44q-21 47 -64.5 73t-97.5 26q-55 0 -96.5 -26t-64.5 -73q-9 -19 -14 -43v-2q0 -9 9 -9h330zM326 84q54 28 76.5 73t24.5 114q0 5 -3 7.5t-8 1.5l-169 -34q-62 -12 -91 -39q-23 -23 -23 -58
q0 -38 28.5 -61t76.5 -23q51 0 88 19z" />
    <glyph glyph-name="ccedilla" unicode="&#xe7;" horiz-adv-x="602" 
d="M550 178q11 0 9 -11q-21 -83 -86.5 -130t-156.5 -47q-19 -21 -46 -40l7 -9q24 3 38 3q23 0 38 -6q59 -19 59 -72q0 -41 -34 -63.5t-89 -22.5q-40 0 -83 11q-9 1 -9 11v16q0 5 3.5 7.5t8.5 0.5q39 -14 76 -14q34 0 54 13.5t20 38.5q0 33 -33 46.5t-97 13.5q-7 0 -8.5 3.5
t2.5 8.5l45 58q-65 11 -115 50t-77.5 99.5t-27.5 135.5q0 81 34 146t95 101.5t139 36.5q89 0 152.5 -44.5t85.5 -120.5l1 -3q0 -8 -10 -8h-70q-9 0 -12 8q-17 43 -56.5 68t-90.5 25q-52 0 -93.5 -27t-65.5 -74.5t-24 -107.5q0 -62 23.5 -110.5t65.5 -76t94 -27.5
q55 0 95.5 28.5t56.5 76.5q2 8 11 8h71z" />
    <glyph glyph-name="egrave" unicode="&#xe8;" horiz-adv-x="629" 
d="M177.5 27q-61.5 37 -95.5 102t-34 146q0 77 32 142.5t92.5 105.5t142.5 40q71 0 132 -32t98 -93.5t37 -147.5v-20q0 -10 -10 -10h-430q-5 0 -7.5 -3t-1.5 -7q4 -27 10 -45q21 -64 67.5 -102t105.5 -38q57 0 99 29.5t63 75.5q3 8 11 8h71q5 0 8 -2.5t1 -6.5
q-29 -80 -93 -129.5t-159 -49.5q-78 0 -139.5 37zM481 335q5 0 7.5 3t1.5 7q-4 28 -11 44q-21 47 -64.5 73t-97.5 26q-55 0 -96.5 -26t-64.5 -73q-9 -19 -14 -43v-2q0 -9 9 -9h330zM289 611q-7 0 -12 5l-126 135q-3 5 -3 7q0 5 8 5h79q9 0 13 -6l103 -134q2 -2 2 -6
q0 -2 -2 -4t-6 -2h-56z" />
    <glyph glyph-name="eacute" unicode="&#xe9;" horiz-adv-x="629" 
d="M177.5 27q-61.5 37 -95.5 102t-34 146q0 77 32 142.5t92.5 105.5t142.5 40q71 0 132 -32t98 -93.5t37 -147.5v-20q0 -10 -10 -10h-430q-5 0 -7.5 -3t-1.5 -7q4 -27 10 -45q21 -64 67.5 -102t105.5 -38q57 0 99 29.5t63 75.5q3 8 11 8h71q5 0 8 -2.5t1 -6.5
q-29 -80 -93 -129.5t-159 -49.5q-78 0 -139.5 37zM481 335q5 0 7.5 3t1.5 7q-4 28 -11 44q-21 47 -64.5 73t-97.5 26q-55 0 -96.5 -26t-64.5 -73q-9 -19 -14 -43v-2q0 -9 9 -9h330zM283 611q-6 0 -8 4t2 8l103 134q4 6 13 6h79q6 0 7.5 -3.5t-2.5 -8.5l-126 -135
q-5 -5 -12 -5h-56z" />
    <glyph glyph-name="ecircumflex" unicode="&#xea;" horiz-adv-x="629" 
d="M177.5 27q-61.5 37 -95.5 102t-34 146q0 77 32 142.5t92.5 105.5t142.5 40q71 0 132 -32t98 -93.5t37 -147.5v-20q0 -10 -10 -10h-430q-5 0 -7.5 -3t-1.5 -7q4 -27 10 -45q21 -64 67.5 -102t105.5 -38q57 0 99 29.5t63 75.5q3 8 11 8h71q5 0 8 -2.5t1 -6.5
q-29 -80 -93 -129.5t-159 -49.5q-78 0 -139.5 37zM481 335q5 0 7.5 3t1.5 7q-4 28 -11 44q-21 47 -64.5 73t-97.5 26q-55 0 -96.5 -26t-64.5 -73q-9 -19 -14 -43v-2q0 -9 9 -9h330zM162 618q-6 0 -7.5 3.5t2.5 8.5l145 153q5 5 12 5t12 -5l145 -153q3 -4 3 -7q0 -5 -8 -5
h-74q-8 0 -12 6l-59 72q-3 4 -7 4t-7 -4l-59 -72q-5 -6 -12 -6h-74z" />
    <glyph glyph-name="edieresis" unicode="&#xeb;" horiz-adv-x="629" 
d="M177.5 27q-61.5 37 -95.5 102t-34 146q0 77 32 142.5t92.5 105.5t142.5 40q71 0 132 -32t98 -93.5t37 -147.5v-20q0 -10 -10 -10h-430q-5 0 -7.5 -3t-1.5 -7q4 -27 10 -45q21 -64 67.5 -102t105.5 -38q57 0 99 29.5t63 75.5q3 8 11 8h71q5 0 8 -2.5t1 -6.5
q-29 -80 -93 -129.5t-159 -49.5q-78 0 -139.5 37zM481 335q5 0 7.5 3t1.5 7q-4 28 -11 44q-21 47 -64.5 73t-97.5 26q-55 0 -96.5 -26t-64.5 -73q-9 -19 -14 -43v-2q0 -9 9 -9h330zM168 666.5q-19 18.5 -19 44.5t19 44t46 18t46 -18t19 -44t-19 -44.5t-46 -18.5t-46 18.5z
M368 666.5q-19 18.5 -19 44.5t19 44t46 18t46 -18t19 -44t-19 -44.5t-46 -18.5t-46 18.5z" />
    <glyph glyph-name="igrave" unicode="&#xec;" horiz-adv-x="227" 
d="M81 0q-10 0 -10 10v533q0 10 10 10h65q10 0 10 -10v-533q0 -10 -10 -10h-65zM89 611q-7 0 -12 5l-126 135q-3 5 -3 7q0 5 8 5h79q9 0 13 -6l103 -134q2 -2 2 -6q0 -2 -2 -4t-6 -2h-56z" />
    <glyph glyph-name="iacute" unicode="&#xed;" horiz-adv-x="227" 
d="M81 0q-10 0 -10 10v533q0 10 10 10h65q10 0 10 -10v-533q0 -10 -10 -10h-65zM83 611q-6 0 -8 4t2 8l103 134q4 6 13 6h79q6 0 7.5 -3.5t-2.5 -8.5l-126 -135q-5 -5 -12 -5h-56z" />
    <glyph glyph-name="icircumflex" unicode="&#xee;" horiz-adv-x="227" 
d="M81 0q-10 0 -10 10v533q0 10 10 10h65q10 0 10 -10v-533q0 -10 -10 -10h-65zM-38 618q-6 0 -7.5 3.5t2.5 8.5l145 153q5 5 12 5t12 -5l145 -153q3 -4 3 -7q0 -5 -8 -5h-74q-8 0 -12 6l-59 72q-3 4 -7 4t-7 -4l-59 -72q-5 -6 -12 -6h-74z" />
    <glyph glyph-name="idieresis" unicode="&#xef;" horiz-adv-x="227" 
d="M81 0q-10 0 -10 10v533q0 10 10 10h65q10 0 10 -10v-533q0 -10 -10 -10h-65zM-32 666.5q-19 18.5 -19 44.5t19 44t46 18t46 -18t19 -44t-19 -44.5t-46 -18.5t-46 18.5zM168 666.5q-19 18.5 -19 44.5t19 44t46 18t46 -18t19 -44t-19 -44.5t-46 -18.5t-46 18.5z" />
    <glyph glyph-name="eth" unicode="&#xf0;" horiz-adv-x="605" 
d="M150 24.5q-56 33.5 -87 92t-31 130.5t30 127.5t84.5 86.5t126.5 31q111 0 186 -85q4 -4 7 -4q4 0 4 8q-5 138 -56 213q-5 8 -13 3l-135 -77q-2 -1 -5 -1q-6 0 -9 5l-22 37q-1 2 -1 5q0 6 5 9l110 64q5 3 5 7q0 5 -5 6q-35 15 -69 15q-47 0 -84 -20q-4 -2 -6 -2q-4 0 -7 5
l-34 50q-2 2 -2 6q0 6 5 8q54 28 128 28q90 0 151 -47q8 -5 14 -1l59 34q2 1 5 1q6 0 9 -5l22 -37q1 -2 1 -5q0 -6 -5 -9l-44 -26q-9 -6 -3 -13q70 -106 70 -295q0 -174 -68.5 -276t-208.5 -102q-71 0 -127 33.5zM367.5 89.5q39.5 23.5 61.5 65.5t22 93q0 47 -22.5 85.5
t-61 61t-86.5 22.5t-85.5 -22t-58 -60.5t-20.5 -86.5q0 -49 20.5 -90.5t57 -66.5t83.5 -25q50 0 89.5 23.5z" />
    <glyph glyph-name="ntilde" unicode="&#xf1;" horiz-adv-x="576" 
d="M81 0q-10 0 -10 10v533q0 10 10 10h65q10 0 10 -10v-57q0 -8 5 -8q4 0 7 4q37 44 73 62.5t79 18.5q117 0 163 -87q17 -33 21.5 -67.5t4.5 -75.5v-323q0 -10 -10 -10h-65q-10 0 -10 10v323q0 88 -32 124q-28 31 -85 31q-63 0 -101 -41q-27 -28 -38.5 -77t-11.5 -134v-226
q0 -10 -10 -10h-65zM305.5 626.5q-20.5 13.5 -42.5 37.5q-14 16 -24 23.5t-22 7.5q-35 0 -41 -68q-1 -10 -11 -10h-47q-5 0 -7.5 3t-1.5 8q5 65 34.5 102.5t77.5 37.5q30 0 49 -13t41 -37q16 -17 26 -24.5t23 -7.5q15 0 24.5 16.5t12.5 50.5q1 10 11 10h49q10 0 9 -15
q-6 -69 -31.5 -102t-75.5 -33q-33 0 -53.5 13.5z" />
    <glyph glyph-name="ograve" unicode="&#xf2;" horiz-adv-x="639" 
d="M178.5 27q-61.5 37 -96 103t-34.5 149q0 81 34.5 146t96 101.5t139.5 36.5t140 -36.5t97 -101.5t35 -146q0 -83 -34.5 -148.5t-96.5 -103t-141 -37.5q-78 0 -139.5 37zM412.5 93q42.5 28 67 76.5t24.5 109.5q0 58 -24 106t-66.5 75.5t-95.5 27.5q-52 0 -94.5 -27
t-66.5 -75t-24 -107q0 -61 24 -110t66.5 -76.5t94.5 -27.5t94.5 28zM294 611q-7 0 -12 5l-126 135q-3 5 -3 7q0 5 8 5h79q9 0 13 -6l103 -134q2 -2 2 -6q0 -2 -2 -4t-6 -2h-56z" />
    <glyph glyph-name="oacute" unicode="&#xf3;" horiz-adv-x="639" 
d="M178.5 27q-61.5 37 -96 103t-34.5 149q0 81 34.5 146t96 101.5t139.5 36.5t140 -36.5t97 -101.5t35 -146q0 -83 -34.5 -148.5t-96.5 -103t-141 -37.5q-78 0 -139.5 37zM412.5 93q42.5 28 67 76.5t24.5 109.5q0 58 -24 106t-66.5 75.5t-95.5 27.5q-52 0 -94.5 -27
t-66.5 -75t-24 -107q0 -61 24 -110t66.5 -76.5t94.5 -27.5t94.5 28zM288 611q-6 0 -8 4t2 8l103 134q4 6 13 6h79q6 0 7.5 -3.5t-2.5 -8.5l-126 -135q-5 -5 -12 -5h-56z" />
    <glyph glyph-name="ocircumflex" unicode="&#xf4;" horiz-adv-x="639" 
d="M178.5 27q-61.5 37 -96 103t-34.5 149q0 81 34.5 146t96 101.5t139.5 36.5t140 -36.5t97 -101.5t35 -146q0 -83 -34.5 -148.5t-96.5 -103t-141 -37.5q-78 0 -139.5 37zM412.5 93q42.5 28 67 76.5t24.5 109.5q0 58 -24 106t-66.5 75.5t-95.5 27.5q-52 0 -94.5 -27
t-66.5 -75t-24 -107q0 -61 24 -110t66.5 -76.5t94.5 -27.5t94.5 28zM167 618q-6 0 -7.5 3.5t2.5 8.5l145 153q5 5 12 5t12 -5l145 -153q3 -4 3 -7q0 -5 -8 -5h-74q-8 0 -12 6l-59 72q-3 4 -7 4t-7 -4l-59 -72q-5 -6 -12 -6h-74z" />
    <glyph glyph-name="otilde" unicode="&#xf5;" horiz-adv-x="639" 
d="M178.5 27q-61.5 37 -96 103t-34.5 149q0 81 34.5 146t96 101.5t139.5 36.5t140 -36.5t97 -101.5t35 -146q0 -83 -34.5 -148.5t-96.5 -103t-141 -37.5q-78 0 -139.5 37zM412.5 93q42.5 28 67 76.5t24.5 109.5q0 58 -24 106t-66.5 75.5t-95.5 27.5q-52 0 -94.5 -27
t-66.5 -75t-24 -107q0 -61 24 -110t66.5 -76.5t94.5 -27.5t94.5 28zM335.5 626.5q-20.5 13.5 -42.5 37.5q-14 16 -24 23.5t-22 7.5q-35 0 -41 -68q-1 -10 -11 -10h-47q-5 0 -7.5 3t-1.5 8q5 65 34.5 102.5t77.5 37.5q30 0 49 -13t41 -37q16 -17 26 -24.5t23 -7.5
q15 0 24.5 16.5t12.5 50.5q1 10 11 10h49q10 0 9 -15q-6 -69 -31.5 -102t-75.5 -33q-33 0 -53.5 13.5z" />
    <glyph glyph-name="odieresis" unicode="&#xf6;" horiz-adv-x="639" 
d="M178.5 27q-61.5 37 -96 103t-34.5 149q0 81 34.5 146t96 101.5t139.5 36.5t140 -36.5t97 -101.5t35 -146q0 -83 -34.5 -148.5t-96.5 -103t-141 -37.5q-78 0 -139.5 37zM412.5 93q42.5 28 67 76.5t24.5 109.5q0 58 -24 106t-66.5 75.5t-95.5 27.5q-52 0 -94.5 -27
t-66.5 -75t-24 -107q0 -61 24 -110t66.5 -76.5t94.5 -27.5t94.5 28zM173 666.5q-19 18.5 -19 44.5t19 44t46 18t46 -18t19 -44t-19 -44.5t-46 -18.5t-46 18.5zM373 666.5q-19 18.5 -19 44.5t19 44t46 18t46 -18t19 -44t-19 -44.5t-46 -18.5t-46 18.5z" />
    <glyph glyph-name="divide" unicode="&#xf7;" horiz-adv-x="470" 
d="M194 465q-10 0 -10 10v107q0 10 10 10h82q10 0 10 -10v-107q0 -10 -10 -10h-82zM37 304q-10 0 -10 10v51q0 10 10 10h396q10 0 10 -10v-51q0 -10 -10 -10h-396zM194 76q-10 0 -10 10v109q0 10 10 10h82q10 0 10 -10v-109q0 -10 -10 -10h-82z" />
    <glyph glyph-name="oslash" unicode="&#xf8;" horiz-adv-x="639" 
d="M539 451q51 -75 51 -172q0 -83 -34.5 -148.5t-96.5 -103t-141 -37.5q-52 0 -97 16.5t-80 47.5l-32 -32q-3 -3 -7 -3t-7 3l-31 31q-3 3 -3 7t3 7l35 35q-51 74 -51 177q0 81 34.5 146t96 101.5t139.5 36.5q103 0 178 -64l32 32q3 3 7 3t7 -3l31 -32q3 -3 3 -7t-3 -7z
M160 163l278 278q-50 47 -120 47q-52 0 -94.5 -27t-66.5 -75t-24 -107q0 -64 27 -116zM412.5 93q42.5 28 67 76.5t24.5 109.5q0 60 -27 111l-278 -278q50 -47 119 -47q52 0 94.5 28z" />
    <glyph glyph-name="ugrave" unicode="&#xf9;" horiz-adv-x="578" 
d="M95 77q-26 49 -26 143v323q0 10 10 10h65q10 0 10 -10v-323q0 -88 32 -124q28 -31 85 -31q63 0 101 41q27 28 38.5 77t11.5 134v226q0 10 10 10h65q10 0 10 -10v-533q0 -10 -10 -10h-65q-10 0 -10 10v57q0 7 -5 7t-11 -8q-35 -40 -70.5 -58t-77.5 -18q-116 0 -163 87z
M264 611q-7 0 -12 5l-126 135q-3 5 -3 7q0 5 8 5h79q9 0 13 -6l103 -134q2 -2 2 -6q0 -2 -2 -4t-6 -2h-56z" />
    <glyph glyph-name="uacute" unicode="&#xfa;" horiz-adv-x="578" 
d="M95 77q-26 49 -26 143v323q0 10 10 10h65q10 0 10 -10v-323q0 -88 32 -124q28 -31 85 -31q63 0 101 41q27 28 38.5 77t11.5 134v226q0 10 10 10h65q10 0 10 -10v-533q0 -10 -10 -10h-65q-10 0 -10 10v57q0 7 -5 7t-11 -8q-35 -40 -70.5 -58t-77.5 -18q-116 0 -163 87z
M258 611q-6 0 -8 4t2 8l103 134q4 6 13 6h79q6 0 7.5 -3.5t-2.5 -8.5l-126 -135q-5 -5 -12 -5h-56z" />
    <glyph glyph-name="ucircumflex" unicode="&#xfb;" horiz-adv-x="578" 
d="M95 77q-26 49 -26 143v323q0 10 10 10h65q10 0 10 -10v-323q0 -88 32 -124q28 -31 85 -31q63 0 101 41q27 28 38.5 77t11.5 134v226q0 10 10 10h65q10 0 10 -10v-533q0 -10 -10 -10h-65q-10 0 -10 10v57q0 7 -5 7t-11 -8q-35 -40 -70.5 -58t-77.5 -18q-116 0 -163 87z
M137 618q-6 0 -7.5 3.5t2.5 8.5l145 153q5 5 12 5t12 -5l145 -153q3 -4 3 -7q0 -5 -8 -5h-74q-8 0 -12 6l-59 72q-3 4 -7 4t-7 -4l-59 -72q-5 -6 -12 -6h-74z" />
    <glyph glyph-name="udieresis" unicode="&#xfc;" horiz-adv-x="578" 
d="M95 77q-26 49 -26 143v323q0 10 10 10h65q10 0 10 -10v-323q0 -88 32 -124q28 -31 85 -31q63 0 101 41q27 28 38.5 77t11.5 134v226q0 10 10 10h65q10 0 10 -10v-533q0 -10 -10 -10h-65q-10 0 -10 10v57q0 7 -5 7t-11 -8q-35 -40 -70.5 -58t-77.5 -18q-116 0 -163 87z
M143 666.5q-19 18.5 -19 44.5t19 44t46 18t46 -18t19 -44t-19 -44.5t-46 -18.5t-46 18.5zM343 666.5q-19 18.5 -19 44.5t19 44t46 18t46 -18t19 -44t-19 -44.5t-46 -18.5t-46 18.5z" />
    <glyph glyph-name="yacute" unicode="&#xfd;" horiz-adv-x="549" 
d="M81 -210q-10 0 -10 10v58q0 10 10 10h42q25 0 38 3.5t23 15.5t20 39l28 75q1 2 1 5q0 5 -2 9l-208 526q-1 2 -1 5q0 7 8 7h74q8 0 11 -8l158 -404q2 -6 6 -6t7 6l147 404q3 8 12 8h71q5 0 7.5 -3.5t0.5 -8.5l-241 -652q-22 -59 -50 -79t-80 -20h-72zM243 611q-6 0 -8 4
t2 8l103 134q4 6 13 6h79q6 0 7.5 -3.5t-2.5 -8.5l-126 -135q-5 -5 -12 -5h-56z" />
    <glyph glyph-name="thorn" unicode="&#xfe;" horiz-adv-x="634" 
d="M82 -210q-10 0 -10 10v953q0 10 10 10h65q10 0 10 -10v-267q0 -8 5 -8q4 0 7 4q38 44 77 62.5t92 18.5q73 0 129 -36t86.5 -101t30.5 -149t-30.5 -149.5t-86 -101.5t-129.5 -36q-53 0 -92 18t-77 63q-3 4 -7 4q-5 0 -5 -8v-267q0 -10 -10 -10h-65zM419.5 92.5
q38.5 27.5 59 75.5t20.5 109q0 60 -20.5 108t-59 75.5t-89.5 27.5t-91 -27t-62.5 -75.5t-22.5 -108.5q0 -61 22.5 -109t62.5 -75.5t91 -27.5t89.5 27.5z" />
    <glyph glyph-name="ydieresis" unicode="&#xff;" horiz-adv-x="549" 
d="M81 -210q-10 0 -10 10v58q0 10 10 10h42q25 0 38 3.5t23 15.5t20 39l28 75q1 2 1 5q0 5 -2 9l-208 526q-1 2 -1 5q0 7 8 7h74q8 0 11 -8l158 -404q2 -6 6 -6t7 6l147 404q3 8 12 8h71q5 0 7.5 -3.5t0.5 -8.5l-241 -652q-22 -59 -50 -79t-80 -20h-72zM128 666.5
q-19 18.5 -19 44.5t19 44t46 18t46 -18t19 -44t-19 -44.5t-46 -18.5t-46 18.5zM328 666.5q-19 18.5 -19 44.5t19 44t46 18t46 -18t19 -44t-19 -44.5t-46 -18.5t-46 18.5z" />
    <glyph glyph-name="Amacron" unicode="&#x100;" horiz-adv-x="694" 
d="M26 0q-5 0 -7.5 3.5t-0.5 8.5l274 743q3 8 12 8h86q9 0 12 -8l274 -743l1 -4q0 -8 -9 -8h-72q-9 0 -12 8l-61 171q-3 8 -12 8h-328q-9 0 -12 -8l-61 -171q-3 -8 -12 -8h-72zM477 269q11 0 8 11l-131 371q-1 6 -7 6q-4 0 -7 -6l-131 -371l-1 -4q0 -7 9 -7h260zM209 870
q-10 0 -10 10v23q0 10 10 10h276q10 0 10 -10v-23q0 -10 -10 -10h-276z" />
    <glyph glyph-name="amacron" unicode="&#x101;" horiz-adv-x="576" 
d="M96.5 32q-48.5 42 -48.5 115q0 72 54 114q44 35 127 52l188 36q9 2 9 11q-3 59 -34 90q-38 38 -102 38q-49 0 -85.5 -25t-48.5 -67q-3 -9 -11 -9h-65q-11 0 -9 11q17 78 78 121.5t142 43.5q49 0 91 -14.5t71 -42.5q38 -36 48 -83t10 -97v-316q0 -10 -10 -10h-65
q-10 0 -10 10v57q0 8 -5 8q-4 0 -7 -4q-25 -31 -55 -49q-51 -32 -131 -32q-83 0 -131.5 42zM326 84q54 28 76.5 73t24.5 114q0 5 -3 7.5t-8 1.5l-169 -34q-62 -12 -91 -39q-23 -23 -23 -58q0 -38 28.5 -61t76.5 -23q51 0 88 19zM157 660q-10 0 -10 10v23q0 10 10 10h276
q10 0 10 -10v-23q0 -10 -10 -10h-276z" />
    <glyph glyph-name="Abreve" unicode="&#x102;" horiz-adv-x="694" 
d="M26 0q-5 0 -7.5 3.5t-0.5 8.5l274 743q3 8 12 8h86q9 0 12 -8l274 -743l1 -4q0 -8 -9 -8h-72q-9 0 -12 8l-61 171q-3 8 -12 8h-328q-9 0 -12 -8l-61 -171q-3 -8 -12 -8h-72zM477 269q11 0 8 11l-131 371q-1 6 -7 6q-4 0 -7 -6l-131 -371l-1 -4q0 -7 9 -7h260zM229.5 855
q-41.5 37 -48.5 104v2q0 8 9 8h43q8 0 10 -9q7 -40 34.5 -60.5t69.5 -20.5q41 0 68 20.5t34 60.5q1 9 10 9h45q10 0 9 -10q-6 -66 -49.5 -103.5t-116.5 -37.5q-76 0 -117.5 37z" />
    <glyph glyph-name="abreve" unicode="&#x103;" horiz-adv-x="576" 
d="M96.5 32q-48.5 42 -48.5 115q0 72 54 114q44 35 127 52l188 36q9 2 9 11q-3 59 -34 90q-38 38 -102 38q-49 0 -85.5 -25t-48.5 -67q-3 -9 -11 -9h-65q-11 0 -9 11q17 78 78 121.5t142 43.5q49 0 91 -14.5t71 -42.5q38 -36 48 -83t10 -97v-316q0 -10 -10 -10h-65
q-10 0 -10 10v57q0 8 -5 8q-4 0 -7 -4q-25 -31 -55 -49q-51 -32 -131 -32q-83 0 -131.5 42zM326 84q54 28 76.5 73t24.5 114q0 5 -3 7.5t-8 1.5l-169 -34q-62 -12 -91 -39q-23 -23 -23 -58q0 -38 28.5 -61t76.5 -23q51 0 88 19zM177.5 645q-41.5 37 -48.5 104v2q0 8 9 8h43
q8 0 10 -9q7 -40 34.5 -60.5t69.5 -20.5q41 0 68 20.5t34 60.5q1 9 10 9h45q10 0 9 -10q-6 -66 -49.5 -103.5t-116.5 -37.5q-76 0 -117.5 37z" />
    <glyph glyph-name="Aogonek" unicode="&#x104;" horiz-adv-x="694" 
d="M26 0q-5 0 -7.5 3.5t-0.5 8.5l274 743q3 8 12 8h86q9 0 12 -8l274 -743l1 -4q0 -8 -9 -8h-72q-9 0 -12 8l-61 171q-3 8 -12 8h-328q-9 0 -12 -8l-61 -171q-3 -8 -12 -8h-72zM477 269q11 0 8 11l-131 371q-1 6 -7 6q-4 0 -7 -6l-131 -371l-1 -4q0 -7 9 -7h260zM542.5 -195
q-28.5 25 -28.5 67q0 37 25 64t79 49v15h50q-10 -10 -26 -24q-37 -34 -50 -51t-13 -40t14 -36.5t39 -13.5q10 0 25 3h2q9 0 9 -9v-33q0 -9 -12 -12q-20 -4 -39 -4q-46 0 -74.5 25z" />
    <glyph glyph-name="aogonek" unicode="&#x105;" horiz-adv-x="576" 
d="M501 423q10 -47 10 -97v-316q0 -10 -10 -10q-10 -10 -26 -24q-37 -34 -50 -51t-13 -40t14 -36.5t39 -13.5q10 0 25 3h2q9 0 9 -9v-33q0 -9 -12 -12q-20 -4 -39 -4q-46 0 -74.5 25t-28.5 67q0 37 25 64t79 49v15h-15q-10 0 -10 10v57q0 8 -5 8q-4 0 -7 -4q-25 -31 -55 -49
q-51 -32 -131 -32q-83 0 -131.5 42t-48.5 115q0 72 54 114q44 35 127 52l188 36q9 2 9 11q-3 59 -34 90q-38 38 -102 38q-49 0 -85.5 -25t-48.5 -67q-3 -9 -11 -9h-65q-11 0 -9 11q17 78 78 121.5t142 43.5q49 0 91 -14.5t71 -42.5q38 -36 48 -83zM402.5 157
q22.5 45 24.5 114q0 5 -3 7.5t-8 1.5l-169 -34q-62 -12 -91 -39q-23 -23 -23 -58q0 -38 28.5 -61t76.5 -23q51 0 88 19q54 28 76.5 73z" />
    <glyph glyph-name="Cacute" unicode="&#x106;" horiz-adv-x="748" 
d="M207 43.5q-79 53.5 -118 142.5t-39 196t39 196t118 142t195 53q121 0 201.5 -57.5t101.5 -152.5v-2q0 -9 -9 -9h-80q-9 0 -11 9q-17 60 -71.5 95t-133.5 35q-83 0 -141 -39.5t-87.5 -109.5t-29.5 -160q0 -91 29.5 -161t87.5 -109.5t141 -39.5q81 0 135 38.5t70 111.5
q3 9 11 9h80q11 0 9 -10q-20 -108 -100 -169.5t-203 -61.5q-116 0 -195 53.5zM341 821q-6 0 -8 4t2 8l103 134q4 6 13 6h79q6 0 7.5 -3.5t-2.5 -8.5l-126 -135q-5 -5 -12 -5h-56z" />
    <glyph glyph-name="cacute" unicode="&#x107;" horiz-adv-x="602" 
d="M177 27q-61 37 -95 103t-34 149q0 81 34 146t95 101.5t139 36.5q89 0 152.5 -44.5t85.5 -120.5l1 -3q0 -8 -10 -8h-70q-9 0 -12 8q-17 43 -56.5 68t-90.5 25q-52 0 -93.5 -27t-65.5 -74.5t-24 -107.5q0 -62 23.5 -110.5t65.5 -76t94 -27.5q55 0 95.5 28.5t56.5 76.5
q2 8 11 8h71q11 0 9 -11q-21 -83 -86.5 -130t-156.5 -47q-78 0 -139 37zM271 611q-6 0 -8 4t2 8l103 134q4 6 13 6h79q6 0 7.5 -3.5t-2.5 -8.5l-126 -135q-5 -5 -12 -5h-56z" />
    <glyph glyph-name="Cdotaccent" unicode="&#x10a;" horiz-adv-x="748" 
d="M207 43.5q-79 53.5 -118 142.5t-39 196t39 196t118 142t195 53q121 0 201.5 -57.5t101.5 -152.5v-2q0 -9 -9 -9h-80q-9 0 -11 9q-17 60 -71.5 95t-133.5 35q-83 0 -141 -39.5t-87.5 -109.5t-29.5 -160q0 -91 29.5 -161t87.5 -109.5t141 -39.5q81 0 135 38.5t70 111.5
q3 9 11 9h80q11 0 9 -10q-20 -108 -100 -169.5t-203 -61.5q-116 0 -195 53.5zM330.5 827.5q-17.5 16.5 -17.5 40.5t17.5 41t41.5 17q23 0 40.5 -17t17.5 -41q0 -23 -17.5 -40t-40.5 -17q-24 0 -41.5 16.5z" />
    <glyph glyph-name="cdotaccent" unicode="&#x10b;" horiz-adv-x="602" 
d="M177 27q-61 37 -95 103t-34 149q0 81 34 146t95 101.5t139 36.5q89 0 152.5 -44.5t85.5 -120.5l1 -3q0 -8 -10 -8h-70q-9 0 -12 8q-17 43 -56.5 68t-90.5 25q-52 0 -93.5 -27t-65.5 -74.5t-24 -107.5q0 -62 23.5 -110.5t65.5 -76t94 -27.5q55 0 95.5 28.5t56.5 76.5
q2 8 11 8h71q11 0 9 -11q-21 -83 -86.5 -130t-156.5 -47q-78 0 -139 37zM256 666.5q-19 18.5 -19 44.5t19 44t46 18t46 -18t19 -44t-19 -44.5t-46 -18.5t-46 18.5z" />
    <glyph glyph-name="Ccaron" unicode="&#x10c;" horiz-adv-x="748" 
d="M207 43.5q-79 53.5 -118 142.5t-39 196t39 196t118 142t195 53q121 0 201.5 -57.5t101.5 -152.5v-2q0 -9 -9 -9h-80q-9 0 -11 9q-17 60 -71.5 95t-133.5 35q-83 0 -141 -39.5t-87.5 -109.5t-29.5 -160q0 -91 29.5 -161t87.5 -109.5t141 -39.5q81 0 135 38.5t70 111.5
q3 9 11 9h80q11 0 9 -10q-20 -108 -100 -169.5t-203 -61.5q-116 0 -195 53.5zM360 809l-145 153q-3 5 -3 7q0 5 8 5h74q7 0 12 -6l59 -72q3 -4 7 -4t7 4l59 72q4 6 12 6h74q6 0 7.5 -3.5t-2.5 -8.5l-145 -153q-5 -5 -12 -5t-12 5z" />
    <glyph glyph-name="ccaron" unicode="&#x10d;" horiz-adv-x="602" 
d="M177 27q-61 37 -95 103t-34 149q0 81 34 146t95 101.5t139 36.5q89 0 152.5 -44.5t85.5 -120.5l1 -3q0 -8 -10 -8h-70q-9 0 -12 8q-17 43 -56.5 68t-90.5 25q-52 0 -93.5 -27t-65.5 -74.5t-24 -107.5q0 -62 23.5 -110.5t65.5 -76t94 -27.5q55 0 95.5 28.5t56.5 76.5
q2 8 11 8h71q11 0 9 -11q-21 -83 -86.5 -130t-156.5 -47q-78 0 -139 37zM290 599l-145 153q-3 5 -3 7q0 5 8 5h74q7 0 12 -6l59 -72q3 -4 7 -4t7 4l59 72q4 6 12 6h74q6 0 7.5 -3.5t-2.5 -8.5l-145 -153q-5 -5 -12 -5t-12 5z" />
    <glyph glyph-name="Dcaron" unicode="&#x10e;" horiz-adv-x="732" 
d="M89 0q-10 0 -10 10v743q0 10 10 10h200q190 0 291 -100t101 -284q0 -181 -101.5 -280t-291.5 -99h-199zM287 83q138 0 220 65t82 231q0 301 -301 301h-107q-10 0 -10 -10v-577q0 -10 10 -10h106zM344 809l-145 153q-3 5 -3 7q0 5 8 5h74q7 0 12 -6l59 -72q3 -4 7 -4t7 4
l59 72q4 6 12 6h74q6 0 7.5 -3.5t-2.5 -8.5l-145 -153q-5 -5 -12 -5t-12 5z" />
    <glyph glyph-name="dcaron" unicode="&#x10f;" horiz-adv-x="634" 
d="M167 26q-56 36 -86.5 101t-30.5 149t30.5 149.5t86 101.5t129.5 36q53 0 92 -18t77 -63q3 -4 7 -4q5 0 5 8v267q0 10 10 10h65q10 0 10 -10v-743q0 -10 -10 -10h-65q-10 0 -10 10v57q0 8 -5 8q-4 0 -7 -4q-38 -44 -77 -62.5t-92 -18.5q-73 0 -129 36zM395 92
q40 27 62.5 75.5t22.5 108.5q0 61 -22.5 109t-62.5 75.5t-91 27.5t-89.5 -27.5t-59 -75.5t-20.5 -109q0 -60 20.5 -108t59 -75.5t89.5 -27.5t91 27zM664 495q-4 0 -6.5 3t-2.5 7v25q0 8 9 11q41 8 64 36.5t23 69.5q0 10 -1 15q-1 6 -4.5 7t-7.5 -3q-11 -11 -35 -11
q-22 0 -37 15.5t-15 41.5q0 27 17.5 44t46.5 17q39 0 62.5 -32t23.5 -84q0 -58 -33.5 -104.5t-101.5 -57.5h-2z" />
    <glyph glyph-name="Dcroat" unicode="&#x110;" horiz-adv-x="732" 
d="M289 763q190 0 291 -100t101 -284q0 -181 -101.5 -280t-291.5 -99h-199q-10 0 -10 10v336h-62q-10 0 -10 10v51q0 10 10 10h62v336q0 10 10 10h200zM287 83q138 0 220 65t82 231q0 301 -301 301h-107q-10 0 -10 -10v-253h235q10 0 10 -10v-51q0 -10 -10 -10h-235v-253
q0 -10 10 -10h106z" />
    <glyph glyph-name="Emacron" unicode="&#x112;" horiz-adv-x="616" 
d="M89 0q-10 0 -10 10v743q0 10 10 10h473q10 0 10 -10v-63q0 -10 -10 -10h-381q-10 0 -10 -10v-236q0 -10 10 -10h334q10 0 10 -10v-62q0 -10 -10 -10h-334q-10 0 -10 -10v-239q0 -10 10 -10h381q10 0 10 -10v-63q0 -10 -10 -10h-473zM188 870q-10 0 -10 10v23q0 10 10 10
h276q10 0 10 -10v-23q0 -10 -10 -10h-276z" />
    <glyph glyph-name="emacron" unicode="&#x113;" horiz-adv-x="629" 
d="M177.5 27q-61.5 37 -95.5 102t-34 146q0 77 32 142.5t92.5 105.5t142.5 40q71 0 132 -32t98 -93.5t37 -147.5v-20q0 -10 -10 -10h-430q-5 0 -7.5 -3t-1.5 -7q4 -27 10 -45q21 -64 67.5 -102t105.5 -38q57 0 99 29.5t63 75.5q3 8 11 8h71q5 0 8 -2.5t1 -6.5
q-29 -80 -93 -129.5t-159 -49.5q-78 0 -139.5 37zM481 335q5 0 7.5 3t1.5 7q-4 28 -11 44q-21 47 -64.5 73t-97.5 26q-55 0 -96.5 -26t-64.5 -73q-9 -19 -14 -43v-2q0 -9 9 -9h330zM176 660q-10 0 -10 10v23q0 10 10 10h276q10 0 10 -10v-23q0 -10 -10 -10h-276z" />
    <glyph glyph-name="Edotaccent" unicode="&#x116;" horiz-adv-x="616" 
d="M89 0q-10 0 -10 10v743q0 10 10 10h473q10 0 10 -10v-63q0 -10 -10 -10h-381q-10 0 -10 -10v-236q0 -10 10 -10h334q10 0 10 -10v-62q0 -10 -10 -10h-334q-10 0 -10 -10v-239q0 -10 10 -10h381q10 0 10 -10v-63q0 -10 -10 -10h-473zM284.5 827.5q-17.5 16.5 -17.5 40.5
t17.5 41t41.5 17q23 0 40.5 -17t17.5 -41q0 -23 -17.5 -40t-40.5 -17q-24 0 -41.5 16.5z" />
    <glyph glyph-name="edotaccent" unicode="&#x117;" horiz-adv-x="629" 
d="M177.5 27q-61.5 37 -95.5 102t-34 146q0 77 32 142.5t92.5 105.5t142.5 40q71 0 132 -32t98 -93.5t37 -147.5v-20q0 -10 -10 -10h-430q-5 0 -7.5 -3t-1.5 -7q4 -27 10 -45q21 -64 67.5 -102t105.5 -38q57 0 99 29.5t63 75.5q3 8 11 8h71q5 0 8 -2.5t1 -6.5
q-29 -80 -93 -129.5t-159 -49.5q-78 0 -139.5 37zM481 335q5 0 7.5 3t1.5 7q-4 28 -11 44q-21 47 -64.5 73t-97.5 26q-55 0 -96.5 -26t-64.5 -73q-9 -19 -14 -43v-2q0 -9 9 -9h330zM268 666.5q-19 18.5 -19 44.5t19 44t46 18t46 -18t19 -44t-19 -44.5t-46 -18.5t-46 18.5z
" />
    <glyph glyph-name="Eogonek" unicode="&#x118;" horiz-adv-x="616" 
d="M89 0q-10 0 -10 10v743q0 10 10 10h473q10 0 10 -10v-63q0 -10 -10 -10h-381q-10 0 -10 -10v-236q0 -10 10 -10h334q10 0 10 -10v-62q0 -10 -10 -10h-334q-10 0 -10 -10v-239q0 -10 10 -10h381q10 0 10 -10v-63q0 -10 -10 -10h-473zM436.5 -195q-28.5 25 -28.5 67
q0 37 25 64t79 49v15h50q-10 -10 -26 -24q-37 -34 -50 -51t-13 -40t14 -36.5t39 -13.5q10 0 25 3h2q9 0 9 -9v-33q0 -9 -12 -12q-20 -4 -39 -4q-46 0 -74.5 25z" />
    <glyph glyph-name="eogonek" unicode="&#x119;" horiz-adv-x="629" 
d="M447 531q61 -32 98 -93.5t37 -147.5v-20q0 -10 -10 -10h-430q-5 0 -7.5 -3t-1.5 -7q4 -27 10 -45q21 -64 67.5 -102t105.5 -38q57 0 99 29.5t63 75.5q3 8 11 8h71q5 0 8 -2.5t1 -6.5q-29 -82 -92 -129q-9 -9 -23 -21q-36 -34 -49 -51t-13 -39q0 -23 14 -36.5t39 -13.5
q10 0 25 3h2q9 0 9 -9v-33q0 -9 -12 -12q-20 -4 -39 -4q-46 0 -74.5 25t-28.5 67q0 47 40 78q-21 -4 -50 -4q-78 0 -139.5 37t-95.5 102t-34 146q0 77 32 142.5t92.5 105.5t142.5 40q71 0 132 -32zM481 335q5 0 7.5 3t1.5 7q-4 28 -11 44q-21 47 -64.5 73t-97.5 26
q-55 0 -96.5 -26t-64.5 -73q-9 -19 -14 -43v-2q0 -9 9 -9h330z" />
    <glyph glyph-name="Ecaron" unicode="&#x11a;" horiz-adv-x="616" 
d="M89 0q-10 0 -10 10v743q0 10 10 10h473q10 0 10 -10v-63q0 -10 -10 -10h-381q-10 0 -10 -10v-236q0 -10 10 -10h334q10 0 10 -10v-62q0 -10 -10 -10h-334q-10 0 -10 -10v-239q0 -10 10 -10h381q10 0 10 -10v-63q0 -10 -10 -10h-473zM314 809l-145 153q-3 5 -3 7q0 5 8 5
h74q7 0 12 -6l59 -72q3 -4 7 -4t7 4l59 72q4 6 12 6h74q6 0 7.5 -3.5t-2.5 -8.5l-145 -153q-5 -5 -12 -5t-12 5z" />
    <glyph glyph-name="ecaron" unicode="&#x11b;" horiz-adv-x="629" 
d="M177.5 27q-61.5 37 -95.5 102t-34 146q0 77 32 142.5t92.5 105.5t142.5 40q71 0 132 -32t98 -93.5t37 -147.5v-20q0 -10 -10 -10h-430q-5 0 -7.5 -3t-1.5 -7q4 -27 10 -45q21 -64 67.5 -102t105.5 -38q57 0 99 29.5t63 75.5q3 8 11 8h71q5 0 8 -2.5t1 -6.5
q-29 -80 -93 -129.5t-159 -49.5q-78 0 -139.5 37zM481 335q5 0 7.5 3t1.5 7q-4 28 -11 44q-21 47 -64.5 73t-97.5 26q-55 0 -96.5 -26t-64.5 -73q-9 -19 -14 -43v-2q0 -9 9 -9h330zM302 599l-145 153q-3 5 -3 7q0 5 8 5h74q7 0 12 -6l59 -72q3 -4 7 -4t7 4l59 72q4 6 12 6
h74q6 0 7.5 -3.5t-2.5 -8.5l-145 -153q-5 -5 -12 -5t-12 5z" />
    <glyph glyph-name="Gbreve" unicode="&#x11e;" horiz-adv-x="807" 
d="M209.5 44.5q-81.5 54.5 -120.5 143t-39 193.5t39.5 194t120 143.5t199.5 54.5q120 0 201.5 -56.5t116.5 -152.5l1 -4q0 -7 -9 -7h-83q-8 0 -11 8q-28 61 -83.5 95.5t-134.5 34.5q-89 0 -148.5 -42.5t-88 -112.5t-28.5 -152q0 -86 30 -157t90.5 -113t146.5 -42
q110 0 176 63t69 172q0 10 -10 10h-163q-10 0 -10 10v62q0 10 10 10h253q10 0 10 -10v-379q0 -10 -10 -10h-64q-10 0 -10 10v79q0 8 -5 8q-4 0 -7 -4q-40 -51 -104 -77t-134 -26q-119 0 -200.5 54.5zM286.5 855q-41.5 37 -48.5 104v2q0 8 9 8h43q8 0 10 -9q7 -40 34.5 -60.5
t69.5 -20.5q41 0 68 20.5t34 60.5q1 9 10 9h45q10 0 9 -10q-6 -66 -49.5 -103.5t-116.5 -37.5q-76 0 -117.5 37z" />
    <glyph glyph-name="gbreve" unicode="&#x11f;" horiz-adv-x="635" 
d="M155.5 -181.5q-67.5 38.5 -85.5 125.5v2q0 9 9 9h67q9 0 11 -8q15 -46 53.5 -69t103.5 -23q165 0 165 148v64q0 8 -5 8q-4 0 -7 -4q-38 -45 -77 -63t-92 -18q-73 0 -129 36t-86.5 100.5t-30.5 147.5q0 85 30.5 150.5t86 102t128.5 36.5q54 0 93 -18.5t77 -62.5q3 -4 7 -4
q5 0 5 8v57q0 10 10 10h65q10 0 10 -10v-524q0 -128 -66 -183.5t-183 -55.5q-92 0 -159.5 38.5zM397 92.5q40 27.5 62.5 75.5t22.5 109q0 60 -22.5 108t-63 75.5t-90.5 27.5q-51 0 -89.5 -27.5t-59 -75.5t-20.5 -108q0 -61 20.5 -109t59 -75.5t89.5 -27.5t91 27.5z
M200.5 645q-41.5 37 -48.5 104v2q0 8 9 8h43q8 0 10 -9q7 -40 34.5 -60.5t69.5 -20.5q41 0 68 20.5t34 60.5q1 9 10 9h45q10 0 9 -10q-6 -66 -49.5 -103.5t-116.5 -37.5q-76 0 -117.5 37z" />
    <glyph glyph-name="Gdotaccent" unicode="&#x120;" horiz-adv-x="807" 
d="M209.5 44.5q-81.5 54.5 -120.5 143t-39 193.5t39.5 194t120 143.5t199.5 54.5q120 0 201.5 -56.5t116.5 -152.5l1 -4q0 -7 -9 -7h-83q-8 0 -11 8q-28 61 -83.5 95.5t-134.5 34.5q-89 0 -148.5 -42.5t-88 -112.5t-28.5 -152q0 -86 30 -157t90.5 -113t146.5 -42
q110 0 176 63t69 172q0 10 -10 10h-163q-10 0 -10 10v62q0 10 10 10h253q10 0 10 -10v-379q0 -10 -10 -10h-64q-10 0 -10 10v79q0 8 -5 8q-4 0 -7 -4q-40 -51 -104 -77t-134 -26q-119 0 -200.5 54.5zM362.5 827.5q-17.5 16.5 -17.5 40.5t17.5 41t41.5 17q23 0 40.5 -17
t17.5 -41q0 -23 -17.5 -40t-40.5 -17q-24 0 -41.5 16.5z" />
    <glyph glyph-name="gdotaccent" unicode="&#x121;" horiz-adv-x="635" 
d="M155.5 -181.5q-67.5 38.5 -85.5 125.5v2q0 9 9 9h67q9 0 11 -8q15 -46 53.5 -69t103.5 -23q165 0 165 148v64q0 8 -5 8q-4 0 -7 -4q-38 -45 -77 -63t-92 -18q-73 0 -129 36t-86.5 100.5t-30.5 147.5q0 85 30.5 150.5t86 102t128.5 36.5q54 0 93 -18.5t77 -62.5q3 -4 7 -4
q5 0 5 8v57q0 10 10 10h65q10 0 10 -10v-524q0 -128 -66 -183.5t-183 -55.5q-92 0 -159.5 38.5zM397 92.5q40 27.5 62.5 75.5t22.5 109q0 60 -22.5 108t-63 75.5t-90.5 27.5q-51 0 -89.5 -27.5t-59 -75.5t-20.5 -108q0 -61 20.5 -109t59 -75.5t89.5 -27.5t91 27.5z
M272 666.5q-19 18.5 -19 44.5t19 44t46 18t46 -18t19 -44t-19 -44.5t-46 -18.5t-46 18.5z" />
    <glyph glyph-name="uni0122" unicode="&#x122;" horiz-adv-x="807" 
d="M209.5 44.5q-81.5 54.5 -120.5 143t-39 193.5t39.5 194t120 143.5t199.5 54.5q120 0 201.5 -56.5t116.5 -152.5l1 -4q0 -7 -9 -7h-83q-8 0 -11 8q-28 61 -83.5 95.5t-134.5 34.5q-89 0 -148.5 -42.5t-88 -112.5t-28.5 -152q0 -86 30 -157t90.5 -113t146.5 -42
q110 0 176 63t69 172q0 10 -10 10h-163q-10 0 -10 10v62q0 10 10 10h253q10 0 10 -10v-379q0 -10 -10 -10h-64q-10 0 -10 10v79q0 8 -5 8q-4 0 -7 -4q-40 -51 -104 -77t-134 -26q-119 0 -200.5 54.5zM356 -196q0 15 10 15q66 3 66 42q0 6 -1 10h-10q-1 -8 -8 -13t-18 -5
q-18 0 -30 13t-12 33q0 22 14 35.5t37 13.5q32 0 50.5 -20t18.5 -54q0 -39 -27 -60.5t-80 -23.5q-10 0 -10 14z" />
    <glyph glyph-name="uni0123" unicode="&#x123;" horiz-adv-x="635" 
d="M155.5 -181.5q-67.5 38.5 -85.5 125.5v2q0 9 9 9h67q9 0 11 -8q15 -46 53.5 -69t103.5 -23q165 0 165 148v64q0 8 -5 8q-4 0 -7 -4q-38 -45 -77 -63t-92 -18q-73 0 -129 36t-86.5 100.5t-30.5 147.5q0 85 30.5 150.5t86 102t128.5 36.5q54 0 93 -18.5t77 -62.5q3 -4 7 -4
q5 0 5 8v57q0 10 10 10h65q10 0 10 -10v-524q0 -128 -66 -183.5t-183 -55.5q-92 0 -159.5 38.5zM397 92.5q40 27.5 62.5 75.5t22.5 109q0 60 -22.5 108t-63 75.5t-90.5 27.5q-51 0 -89.5 -27.5t-59 -75.5t-20.5 -108q0 -61 20.5 -109t59 -75.5t89.5 -27.5t91 27.5zM293 622
q-19 23 -19 60q0 44 29.5 77.5t88.5 39.5v-32q-37 -4 -57.5 -25t-20.5 -52q0 -11 3 -22q10 16 36 16q17 0 29.5 -11.5t12.5 -29.5q0 -19 -14 -31.5t-38 -12.5q-31 0 -50 23z" />
    <glyph glyph-name="Imacron" unicode="&#x12a;" horiz-adv-x="251" 
d="M89 0q-10 0 -10 10v743q0 10 10 10h72q10 0 10 -10v-743q0 -10 -10 -10h-72zM-13 870q-10 0 -10 10v23q0 10 10 10h276q10 0 10 -10v-23q0 -10 -10 -10h-276z" />
    <glyph glyph-name="imacron" unicode="&#x12b;" horiz-adv-x="227" 
d="M81 0q-10 0 -10 10v533q0 10 10 10h65q10 0 10 -10v-533q0 -10 -10 -10h-65zM-24 660q-10 0 -10 10v23q0 10 10 10h276q10 0 10 -10v-23q0 -10 -10 -10h-276z" />
    <glyph glyph-name="Iogonek" unicode="&#x12e;" horiz-adv-x="251" 
d="M89 0q-10 0 -10 10v743q0 10 10 10h72q10 0 10 -10v-743q0 -10 -10 -10h-72zM35.5 -195q-28.5 25 -28.5 67q0 37 25 64t79 49v15h50q-10 -10 -26 -24q-37 -34 -50 -51t-13 -40t14 -36.5t39 -13.5q10 0 25 3h2q9 0 9 -9v-33q0 -9 -12 -12q-20 -4 -39 -4q-46 0 -74.5 25z
" />
    <glyph glyph-name="iogonek" unicode="&#x12f;" horiz-adv-x="227" 
d="M81 0q-10 0 -10 10v533q0 10 10 10h65q10 0 10 -10v-533q0 -10 -10 -10h-65zM68 666.5q-19 18.5 -19 44.5t19 44t46 18t46 -18t19 -44t-19 -44.5t-46 -18.5t-46 18.5zM20.5 -195q-28.5 25 -28.5 67q0 37 25 64t79 49v15h50q-10 -10 -26 -24q-37 -34 -50 -51t-13 -40
t14 -36.5t39 -13.5q10 0 25 3h2q9 0 9 -9v-33q0 -9 -12 -12q-20 -4 -39 -4q-46 0 -74.5 25z" />
    <glyph glyph-name="Idotaccent" unicode="&#x130;" horiz-adv-x="251" 
d="M89 0q-10 0 -10 10v743q0 10 10 10h72q10 0 10 -10v-743q0 -10 -10 -10h-72zM83.5 827.5q-17.5 16.5 -17.5 40.5t17.5 41t41.5 17q23 0 40.5 -17t17.5 -41q0 -23 -17.5 -40t-40.5 -17q-24 0 -41.5 16.5z" />
    <glyph glyph-name="dotlessi" unicode="&#x131;" horiz-adv-x="227" 
d="M81 0q-10 0 -10 10v533q0 10 10 10h65q10 0 10 -10v-533q0 -10 -10 -10h-65z" />
    <glyph glyph-name="uni0136" unicode="&#x136;" horiz-adv-x="632" 
d="M89 0q-10 0 -10 10v743q0 10 10 10h72q10 0 10 -10v-322q0 -8 5 -8q4 0 7 4l300 331q4 5 12 5h94q6 0 8 -3.5t-2 -8.5l-322 -347q-6 -8 0 -14l340 -378q3 -3 3 -6q0 -2 -2.5 -4t-6.5 -2h-98q-7 0 -12 6l-314 351q-3 4 -7 4q-5 0 -5 -8v-343q0 -10 -10 -10h-72zM268 -196
q0 15 10 15q66 3 66 42q0 6 -1 10h-10q-1 -8 -8 -13t-18 -5q-18 0 -30 13t-12 33q0 22 14 35.5t37 13.5q32 0 50.5 -20t18.5 -54q0 -39 -27 -60.5t-80 -23.5q-10 0 -10 14z" />
    <glyph glyph-name="uni0137" unicode="&#x137;" horiz-adv-x="554" 
d="M82 0q-10 0 -10 10v743q0 10 10 10h65q10 0 10 -10v-404q0 -6 4 -8t8 2l226 205q5 5 12 5h93q8 0 8 -5q0 -4 -4 -7l-249 -224q-7 -7 -1 -14l277 -291q3 -4 3 -7q0 -5 -8 -5h-92q-7 0 -12 5l-253 271q-3 3 -7 3q-5 0 -5 -8v-261q0 -10 -10 -10h-65zM224 -196q0 15 10 15
q66 3 66 42q0 6 -1 10h-10q-1 -8 -8 -13t-18 -5q-18 0 -30 13t-12 33q0 22 14 35.5t37 13.5q32 0 50.5 -20t18.5 -54q0 -39 -27 -60.5t-80 -23.5q-10 0 -10 14z" />
    <glyph glyph-name="kgreenlandic" unicode="&#x138;" horiz-adv-x="554" 
d="M82 0q-10 0 -10 10v533q0 10 10 10h65q10 0 10 -10v-194q0 -6 4 -8t8 2l226 205q5 5 12 5h93q8 0 8 -5q0 -4 -4 -7l-249 -224q-7 -7 -1 -14l277 -291q3 -4 3 -7q0 -5 -8 -5h-92q-7 0 -12 5l-253 271q-3 3 -7 3q-5 0 -5 -8v-261q0 -10 -10 -10h-65z" />
    <glyph glyph-name="Lacute" unicode="&#x139;" horiz-adv-x="528" 
d="M89 0q-10 0 -10 10v743q0 10 10 10h72q10 0 10 -10v-660q0 -10 10 -10h322q10 0 10 -10v-63q0 -10 -10 -10h-414zM94 821q-6 0 -8 4t2 8l103 134q4 6 13 6h79q6 0 7.5 -3.5t-2.5 -8.5l-126 -135q-5 -5 -12 -5h-56z" />
    <glyph glyph-name="lacute" unicode="&#x13a;" horiz-adv-x="277" 
d="M200 0q-67 0 -99 30t-32 109v614q0 10 10 10h65q10 0 10 -10v-601q0 -29 4 -44.5t18 -24t44 -8.5h17q10 0 10 -10v-55q0 -10 -10 -10h-37zM81 821q-6 0 -8 4t2 8l103 134q4 6 13 6h79q6 0 7.5 -3.5t-2.5 -8.5l-126 -135q-5 -5 -12 -5h-56z" />
    <glyph glyph-name="uni013B" unicode="&#x13b;" horiz-adv-x="528" 
d="M89 0q-10 0 -10 10v743q0 10 10 10h72q10 0 10 -10v-660q0 -10 10 -10h322q10 0 10 -10v-63q0 -10 -10 -10h-414zM248 -196q0 15 10 15q66 3 66 42q0 6 -1 10h-10q-1 -8 -8 -13t-18 -5q-18 0 -30 13t-12 33q0 22 14 35.5t37 13.5q32 0 50.5 -20t18.5 -54q0 -39 -27 -60.5
t-80 -23.5q-10 0 -10 14z" />
    <glyph glyph-name="uni013C" unicode="&#x13c;" horiz-adv-x="277" 
d="M200 0q-67 0 -99 30t-32 109v614q0 10 10 10h65q10 0 10 -10v-601q0 -29 4 -44.5t18 -24t44 -8.5h17q10 0 10 -10v-55q0 -10 -10 -10h-37zM78 -196q0 15 10 15q66 3 66 42q0 6 -1 10h-10q-1 -8 -8 -13t-18 -5q-18 0 -30 13t-12 33q0 22 14 35.5t37 13.5q32 0 50.5 -20
t18.5 -54q0 -39 -27 -60.5t-80 -23.5q-10 0 -10 14z" />
    <glyph glyph-name="Lcaron" unicode="&#x13d;" horiz-adv-x="528" 
d="M89 0q-10 0 -10 10v743q0 10 10 10h72q10 0 10 -10v-660q0 -10 10 -10h322q10 0 10 -10v-63q0 -10 -10 -10h-414zM386 495q-4 0 -6.5 3t-2.5 7v25q0 8 9 11q41 8 64 36.5t23 69.5q0 10 -1 15q-1 6 -4.5 7t-7.5 -3q-11 -11 -35 -11q-22 0 -37 15.5t-15 41.5q0 27 17.5 44
t46.5 17q39 0 62.5 -32t23.5 -84q0 -58 -33.5 -104.5t-101.5 -57.5h-2z" />
    <glyph glyph-name="lcaron" unicode="&#x13e;" horiz-adv-x="277" 
d="M200 0q-67 0 -99 30t-32 109v614q0 10 10 10h65q10 0 10 -10v-601q0 -29 4 -44.5t18 -24t44 -8.5h17q10 0 10 -10v-55q0 -10 -10 -10h-37zM240 495q-4 0 -6.5 3t-2.5 7v25q0 8 9 11q41 8 64 36.5t23 69.5q0 10 -1 15q-1 6 -4.5 7t-7.5 -3q-11 -11 -35 -11q-22 0 -37 15.5
t-15 41.5q0 27 17.5 44t46.5 17q39 0 62.5 -32t23.5 -84q0 -58 -33.5 -104.5t-101.5 -57.5h-2z" />
    <glyph glyph-name="Lslash" unicode="&#x141;" horiz-adv-x="568" 
d="M124 0q-10 0 -10 10v317q0 5 -3.5 7.5t-8.5 -0.5l-52 -25l-5 -2q-3 0 -5 2.5t-2 6.5v57q0 9 7 12l62 31q7 3 7 12v325q0 10 10 10h72q10 0 10 -10v-273q0 -5 3.5 -7t8.5 0l175 91q2 1 5 1q7 0 7 -8v-57q0 -9 -7 -12l-185 -95q-7 -3 -7 -12v-288q0 -10 10 -10h322
q10 0 10 -10v-63q0 -10 -10 -10h-414z" />
    <glyph glyph-name="lslash" unicode="&#x142;" horiz-adv-x="277" 
d="M237 75q10 0 10 -10v-55q0 -10 -10 -10h-37q-67 0 -99 30t-32 109v284l-41 -21q-2 -1 -5 -1q-7 0 -7 8v39q0 9 7 12l46 24v269q0 10 10 10h65q10 0 10 -10v-225l70 36q2 1 5 1q7 0 7 -8v-39q0 -9 -7 -12l-75 -39v-315q0 -29 4 -44.5t18 -24t44 -8.5h17z" />
    <glyph glyph-name="Nacute" unicode="&#x143;" horiz-adv-x="727" 
d="M89 0q-10 0 -10 10v743q0 10 10 10h116q9 0 12 -7l327 -641q3 -6 7 -6q2 0 3.5 2.5t1.5 6.5v635q0 10 10 10h71q10 0 10 -10v-743q0 -10 -10 -10h-116q-9 0 -12 7l-326 639q-3 6 -7 6q-2 0 -3.5 -2.5t-1.5 -6.5v-633q0 -10 -10 -10h-72zM332 821q-6 0 -8 4t2 8l103 134
q4 6 13 6h79q6 0 7.5 -3.5t-2.5 -8.5l-126 -135q-5 -5 -12 -5h-56z" />
    <glyph glyph-name="nacute" unicode="&#x144;" horiz-adv-x="576" 
d="M81 0q-10 0 -10 10v533q0 10 10 10h65q10 0 10 -10v-57q0 -8 5 -8q4 0 7 4q37 44 73 62.5t79 18.5q117 0 163 -87q17 -33 21.5 -67.5t4.5 -75.5v-323q0 -10 -10 -10h-65q-10 0 -10 10v323q0 88 -32 124q-28 31 -85 31q-63 0 -101 -41q-27 -28 -38.5 -77t-11.5 -134v-226
q0 -10 -10 -10h-65zM258 611q-6 0 -8 4t2 8l103 134q4 6 13 6h79q6 0 7.5 -3.5t-2.5 -8.5l-126 -135q-5 -5 -12 -5h-56z" />
    <glyph glyph-name="uni0145" unicode="&#x145;" horiz-adv-x="727" 
d="M89 0q-10 0 -10 10v743q0 10 10 10h116q9 0 12 -7l327 -641q3 -6 7 -6q2 0 3.5 2.5t1.5 6.5v635q0 10 10 10h71q10 0 10 -10v-743q0 -10 -10 -10h-116q-9 0 -12 7l-326 639q-3 6 -7 6q-2 0 -3.5 -2.5t-1.5 -6.5v-633q0 -10 -10 -10h-72zM315 -196q0 15 10 15q66 3 66 42
q0 6 -1 10h-10q-1 -8 -8 -13t-18 -5q-18 0 -30 13t-12 33q0 22 14 35.5t37 13.5q32 0 50.5 -20t18.5 -54q0 -39 -27 -60.5t-80 -23.5q-10 0 -10 14z" />
    <glyph glyph-name="uni0146" unicode="&#x146;" horiz-adv-x="576" 
d="M81 0q-10 0 -10 10v533q0 10 10 10h65q10 0 10 -10v-57q0 -8 5 -8q4 0 7 4q37 44 73 62.5t79 18.5q117 0 163 -87q17 -33 21.5 -67.5t4.5 -75.5v-323q0 -10 -10 -10h-65q-10 0 -10 10v323q0 88 -32 124q-28 31 -85 31q-63 0 -101 -41q-27 -28 -38.5 -77t-11.5 -134v-226
q0 -10 -10 -10h-65zM241 -196q0 15 10 15q66 3 66 42q0 6 -1 10h-10q-1 -8 -8 -13t-18 -5q-18 0 -30 13t-12 33q0 22 14 35.5t37 13.5q32 0 50.5 -20t18.5 -54q0 -39 -27 -60.5t-80 -23.5q-10 0 -10 14z" />
    <glyph glyph-name="Ncaron" unicode="&#x147;" horiz-adv-x="727" 
d="M89 0q-10 0 -10 10v743q0 10 10 10h116q9 0 12 -7l327 -641q3 -6 7 -6q2 0 3.5 2.5t1.5 6.5v635q0 10 10 10h71q10 0 10 -10v-743q0 -10 -10 -10h-116q-9 0 -12 7l-326 639q-3 6 -7 6q-2 0 -3.5 -2.5t-1.5 -6.5v-633q0 -10 -10 -10h-72zM351 809l-145 153q-3 5 -3 7
q0 5 8 5h74q7 0 12 -6l59 -72q3 -4 7 -4t7 4l59 72q4 6 12 6h74q6 0 7.5 -3.5t-2.5 -8.5l-145 -153q-5 -5 -12 -5t-12 5z" />
    <glyph glyph-name="ncaron" unicode="&#x148;" horiz-adv-x="576" 
d="M81 0q-10 0 -10 10v533q0 10 10 10h65q10 0 10 -10v-57q0 -8 5 -8q4 0 7 4q37 44 73 62.5t79 18.5q117 0 163 -87q17 -33 21.5 -67.5t4.5 -75.5v-323q0 -10 -10 -10h-65q-10 0 -10 10v323q0 88 -32 124q-28 31 -85 31q-63 0 -101 -41q-27 -28 -38.5 -77t-11.5 -134v-226
q0 -10 -10 -10h-65zM277 599l-145 153q-3 5 -3 7q0 5 8 5h74q7 0 12 -6l59 -72q3 -4 7 -4t7 4l59 72q4 6 12 6h74q6 0 7.5 -3.5t-2.5 -8.5l-145 -153q-5 -5 -12 -5t-12 5z" />
    <glyph glyph-name="Omacron" unicode="&#x14c;" horiz-adv-x="811" 
d="M209 43q-80 53 -119.5 142.5t-39.5 196.5t39.5 196t119.5 142t195 53q116 0 196.5 -53t120 -141.5t39.5 -196.5t-39.5 -197t-120 -142t-196.5 -53q-115 0 -195 53zM547.5 112.5q59.5 39.5 90 109.5t30.5 160t-30.5 159.5t-90 109t-143.5 39.5q-83 0 -142 -39.5
t-89.5 -109t-30.5 -159.5t30.5 -160t89.5 -109.5t142 -39.5q84 0 143.5 39.5zM267 870q-10 0 -10 10v23q0 10 10 10h276q10 0 10 -10v-23q0 -10 -10 -10h-276z" />
    <glyph glyph-name="omacron" unicode="&#x14d;" horiz-adv-x="639" 
d="M178.5 27q-61.5 37 -96 103t-34.5 149q0 81 34.5 146t96 101.5t139.5 36.5t140 -36.5t97 -101.5t35 -146q0 -83 -34.5 -148.5t-96.5 -103t-141 -37.5q-78 0 -139.5 37zM412.5 93q42.5 28 67 76.5t24.5 109.5q0 58 -24 106t-66.5 75.5t-95.5 27.5q-52 0 -94.5 -27
t-66.5 -75t-24 -107q0 -61 24 -110t66.5 -76.5t94.5 -27.5t94.5 28zM181 660q-10 0 -10 10v23q0 10 10 10h276q10 0 10 -10v-23q0 -10 -10 -10h-276z" />
    <glyph glyph-name="Ohungarumlaut" unicode="&#x150;" horiz-adv-x="811" 
d="M209 43q-80 53 -119.5 142.5t-39.5 196.5t39.5 196t119.5 142t195 53q116 0 196.5 -53t120 -141.5t39.5 -196.5t-39.5 -197t-120 -142t-196.5 -53q-115 0 -195 53zM547.5 112.5q59.5 39.5 90 109.5t30.5 160t-30.5 159.5t-90 109t-143.5 39.5q-83 0 -142 -39.5
t-89.5 -109t-30.5 -159.5t30.5 -160t89.5 -109.5t142 -39.5q84 0 143.5 39.5zM290 821q-6 0 -8 3.5t2 8.5l102 134q4 6 13 6h80q6 0 7.5 -3.5t-2.5 -8.5l-126 -135q-5 -5 -12 -5h-56zM472 821q-6 0 -8 4t2 8l104 134q4 6 13 6h85q7 0 8.5 -3.5t-3.5 -8.5l-132 -135
q-5 -5 -12 -5h-57z" />
    <glyph glyph-name="ohungarumlaut" unicode="&#x151;" horiz-adv-x="639" 
d="M178.5 27q-61.5 37 -96 103t-34.5 149q0 81 34.5 146t96 101.5t139.5 36.5t140 -36.5t97 -101.5t35 -146q0 -83 -34.5 -148.5t-96.5 -103t-141 -37.5q-78 0 -139.5 37zM412.5 93q42.5 28 67 76.5t24.5 109.5q0 58 -24 106t-66.5 75.5t-95.5 27.5q-52 0 -94.5 -27
t-66.5 -75t-24 -107q0 -61 24 -110t66.5 -76.5t94.5 -27.5t94.5 28zM204 611q-6 0 -8 3.5t2 8.5l102 134q4 6 13 6h80q6 0 7.5 -3.5t-2.5 -8.5l-126 -135q-5 -5 -12 -5h-56zM386 611q-6 0 -8 4t2 8l104 134q4 6 13 6h85q7 0 8.5 -3.5t-3.5 -8.5l-132 -135q-5 -5 -12 -5h-57z
" />
    <glyph glyph-name="OE" unicode="&#x152;" horiz-adv-x="1204" 
d="M209 43q-80 53 -119.5 142.5t-39.5 196.5t39.5 196t119.5 142t195 53q77 0 138 -27t113 -85q3 -5 7 -5q5 0 5 9v88q0 10 10 10h473q10 0 10 -10v-63q0 -10 -10 -10h-381q-10 0 -10 -10v-236q0 -10 10 -10h334q10 0 10 -10v-62q0 -10 -10 -10h-334q-10 0 -10 -10v-239
q0 -10 10 -10h381q10 0 10 -10v-63q0 -10 -10 -10h-473q-10 0 -10 10v89q0 8 -5 8q-4 0 -9 -5q-53 -58 -114 -85t-135 -27q-115 0 -195 53zM547.5 112.5q59.5 39.5 90 109.5t30.5 160t-30.5 159.5t-90 109t-143.5 39.5q-83 0 -142 -39.5t-89.5 -109t-30.5 -159.5t30.5 -160
t89.5 -109.5t142 -39.5q84 0 143.5 39.5z" />
    <glyph glyph-name="oe" unicode="&#x153;" horiz-adv-x="1087" 
d="M178.5 27q-61.5 37 -96 103t-34.5 149q0 81 34.5 146t96 101.5t139.5 36.5q71 0 128.5 -30.5t94.5 -84.5q3 -5 7 -5t7 5q35 54 90.5 84.5t127.5 30.5q71 0 132 -32t98 -93.5t37 -147.5v-20q0 -10 -10 -10h-430q-5 0 -7.5 -3t-1.5 -7q4 -27 10 -45q21 -64 67.5 -102
t105.5 -38q57 0 99 29.5t63 75.5q3 8 11 8h71q5 0 7.5 -3t0.5 -8q-29 -79 -93 -128t-158 -49q-71 0 -128 30.5t-93 84.5q-3 5 -6.5 5.5t-6.5 -4.5q-36 -54 -94 -85t-129 -31q-78 0 -139.5 37zM412.5 93q42.5 28 67 76.5t24.5 109.5q0 58 -24 106t-66.5 75.5t-95.5 27.5
q-52 0 -94.5 -27t-66.5 -75t-24 -107q0 -61 24 -110t66.5 -76.5t94.5 -27.5t94.5 28zM938 335q5 0 7.5 3t1.5 7q-4 28 -11 44q-21 47 -64.5 73t-97.5 26q-55 0 -96.5 -26t-64.5 -73q-9 -19 -14 -43v-2q0 -9 9 -9h330z" />
    <glyph glyph-name="Racute" unicode="&#x154;" horiz-adv-x="660" 
d="M89 0q-10 0 -10 10v743q0 10 10 10h274q113 0 177.5 -55.5t64.5 -162.5q0 -74 -33 -126t-94 -76q-9 -4 -6 -13l138 -318l1 -4q0 -8 -9 -8h-80q-8 0 -11 8l-129 306q-3 8 -11 8h-190q-10 0 -10 -10v-302q0 -10 -10 -10h-72zM351 404q79 0 121 35.5t42 102.5q0 66 -43 102
t-120 36h-170q-10 0 -10 -10v-256q0 -10 10 -10h170zM290 821q-6 0 -8 4t2 8l103 134q4 6 13 6h79q6 0 7.5 -3.5t-2.5 -8.5l-126 -135q-5 -5 -12 -5h-56z" />
    <glyph glyph-name="racute" unicode="&#x155;" horiz-adv-x="363" 
d="M81 0q-10 0 -10 10v533q0 10 10 10h65q10 0 10 -10v-48q0 -8 5 -8q4 0 7 4q35 38 74.5 55t88.5 17q10 0 10 -10v-65q0 -10 -10 -10h-19q-67 0 -107 -40q-49 -47 -49 -147v-281q0 -10 -10 -10h-65zM151 611q-6 0 -8 4t2 8l103 134q4 6 13 6h79q6 0 7.5 -3.5t-2.5 -8.5
l-126 -135q-5 -5 -12 -5h-56z" />
    <glyph glyph-name="uni0156" unicode="&#x156;" horiz-adv-x="660" 
d="M89 0q-10 0 -10 10v743q0 10 10 10h274q113 0 177.5 -55.5t64.5 -162.5q0 -74 -33 -126t-94 -76q-9 -4 -6 -13l138 -318l1 -4q0 -8 -9 -8h-80q-8 0 -11 8l-129 306q-3 8 -11 8h-190q-10 0 -10 -10v-302q0 -10 -10 -10h-72zM351 404q79 0 121 35.5t42 102.5q0 66 -43 102
t-120 36h-170q-10 0 -10 -10v-256q0 -10 10 -10h170zM296 -196q0 15 10 15q66 3 66 42q0 6 -1 10h-10q-1 -8 -8 -13t-18 -5q-18 0 -30 13t-12 33q0 22 14 35.5t37 13.5q32 0 50.5 -20t18.5 -54q0 -39 -27 -60.5t-80 -23.5q-10 0 -10 14z" />
    <glyph glyph-name="uni0157" unicode="&#x157;" horiz-adv-x="363" 
d="M81 0q-10 0 -10 10v533q0 10 10 10h65q10 0 10 -10v-48q0 -8 5 -8q4 0 7 4q35 38 74.5 55t88.5 17q10 0 10 -10v-65q0 -10 -10 -10h-19q-67 0 -107 -40q-49 -47 -49 -147v-281q0 -10 -10 -10h-65zM66 -196q0 15 10 15q66 3 66 42q0 6 -1 10h-10q-1 -8 -8 -13t-18 -5
q-18 0 -30 13t-12 33q0 22 14 35.5t37 13.5q32 0 50.5 -20t18.5 -54q0 -39 -27 -60.5t-80 -23.5q-10 0 -10 14z" />
    <glyph glyph-name="Rcaron" unicode="&#x158;" horiz-adv-x="660" 
d="M89 0q-10 0 -10 10v743q0 10 10 10h274q113 0 177.5 -55.5t64.5 -162.5q0 -74 -33 -126t-94 -76q-9 -4 -6 -13l138 -318l1 -4q0 -8 -9 -8h-80q-8 0 -11 8l-129 306q-3 8 -11 8h-190q-10 0 -10 -10v-302q0 -10 -10 -10h-72zM351 404q79 0 121 35.5t42 102.5q0 66 -43 102
t-120 36h-170q-10 0 -10 -10v-256q0 -10 10 -10h170zM309 809l-145 153q-3 5 -3 7q0 5 8 5h74q7 0 12 -6l59 -72q3 -4 7 -4t7 4l59 72q4 6 12 6h74q6 0 7.5 -3.5t-2.5 -8.5l-145 -153q-5 -5 -12 -5t-12 5z" />
    <glyph glyph-name="rcaron" unicode="&#x159;" horiz-adv-x="363" 
d="M81 0q-10 0 -10 10v533q0 10 10 10h65q10 0 10 -10v-48q0 -8 5 -8q4 0 7 4q35 38 74.5 55t88.5 17q10 0 10 -10v-65q0 -10 -10 -10h-19q-67 0 -107 -40q-49 -47 -49 -147v-281q0 -10 -10 -10h-65zM170 599l-145 153q-3 5 -3 7q0 5 8 5h74q7 0 12 -6l59 -72q3 -4 7 -4t7 4
l59 72q4 6 12 6h74q6 0 7.5 -3.5t-2.5 -8.5l-145 -153q-5 -5 -12 -5t-12 5z" />
    <glyph glyph-name="Sacute" unicode="&#x15a;" horiz-adv-x="673" 
d="M150.5 47q-85.5 57 -106.5 173v2q0 9 9 9h73q10 0 11 -9q19 -80 80.5 -115t141.5 -35q82 0 126.5 34t44.5 101q0 51 -28 80.5t-70 44t-113 29.5q-80 17 -129 34.5t-83 57.5t-34 110q0 64 31.5 111.5t88 73t130.5 25.5q102 0 178 -52t97 -157v-2q0 -9 -9 -9h-69
q-9 0 -11 9q-18 68 -68.5 98.5t-118.5 30.5q-76 0 -116.5 -32t-40.5 -88q0 -44 25.5 -69.5t64 -38.5t105.5 -27q85 -18 137 -37.5t88.5 -63.5t36.5 -122q0 -103 -69.5 -163t-197.5 -60q-119 0 -204.5 57zM305 821q-6 0 -8 4t2 8l103 134q4 6 13 6h79q6 0 7.5 -3.5t-2.5 -8.5
l-126 -135q-5 -5 -12 -5h-56z" />
    <glyph glyph-name="sacute" unicode="&#x15b;" horiz-adv-x="557" 
d="M127 37q-65 47 -82 130v2q0 9 9 9h69q10 0 11 -9q13 -49 52.5 -76.5t108.5 -27.5q58 0 92.5 22t34.5 63q0 32 -20.5 51.5t-52 29.5t-83.5 20q-65 13 -104.5 26.5t-67.5 43.5t-28 83q0 75 56.5 117t144.5 42q87 0 146 -44t76 -121v-2q0 -9 -9 -9h-59q-9 0 -11 9
q-15 47 -52 69.5t-91 22.5q-55 0 -85.5 -20.5t-30.5 -56.5q0 -28 19 -44t47 -24.5t79 -18.5q67 -13 109 -27.5t72 -47t30 -90.5q0 -78 -56 -123.5t-157 -45.5q-102 0 -167 47zM248 611q-6 0 -8 4t2 8l103 134q4 6 13 6h79q6 0 7.5 -3.5t-2.5 -8.5l-126 -135q-5 -5 -12 -5
h-56z" />
    <glyph glyph-name="Scedilla" unicode="&#x15e;" horiz-adv-x="673" 
d="M304 -50l7 -9q24 3 38 3q23 0 38 -6q59 -19 59 -72q0 -41 -34 -63.5t-89 -22.5q-40 0 -83 11q-9 1 -9 11v16q0 5 3.5 7.5t8.5 0.5q39 -14 76 -14q34 0 54 13.5t20 38.5q0 33 -33 46.5t-97 13.5q-7 0 -8.5 3.5t2.5 8.5l44 57q-100 12 -169 68.5t-88 158.5v2q0 9 9 9h73
q10 0 11 -9q19 -80 80.5 -115t141.5 -35q82 0 126.5 34t44.5 101q0 51 -28 80.5t-70 44t-113 29.5q-80 17 -129 34.5t-83 57.5t-34 110q0 64 31.5 111.5t88 73t130.5 25.5q102 0 178 -52t97 -157v-2q0 -9 -9 -9h-69q-9 0 -11 9q-18 68 -68.5 98.5t-118.5 30.5
q-76 0 -116.5 -32t-40.5 -88q0 -44 25.5 -69.5t64 -38.5t105.5 -27q85 -18 137 -37.5t88.5 -63.5t36.5 -122q0 -103 -69.5 -163t-197.5 -60h-5q-19 -21 -46 -40z" />
    <glyph glyph-name="scedilla" unicode="&#x15f;" horiz-adv-x="557" 
d="M247 -50l7 -9q24 3 38 3q23 0 38 -6q59 -19 59 -72q0 -41 -34 -63.5t-89 -22.5q-40 0 -83 11q-9 1 -9 11v16q0 5 3.5 7.5t8.5 0.5q39 -14 76 -14q34 0 54 13.5t20 38.5q0 33 -33 46.5t-97 13.5q-7 0 -8.5 3.5t2.5 8.5l44 57q-81 11 -132.5 56.5t-66.5 117.5v2q0 9 9 9h69
q10 0 11 -9q13 -49 52.5 -76.5t108.5 -27.5q58 0 92.5 22t34.5 63q0 32 -20.5 51.5t-52 29.5t-83.5 20q-65 13 -104.5 26.5t-67.5 43.5t-28 83q0 75 56.5 117t144.5 42q87 0 146 -44t76 -121v-2q0 -9 -9 -9h-59q-9 0 -11 9q-15 47 -52 69.5t-91 22.5q-55 0 -85.5 -20.5
t-30.5 -56.5q0 -28 19 -44t47 -24.5t79 -18.5q67 -13 109 -27.5t72 -47t30 -90.5q0 -78 -56 -123.5t-157 -45.5h-1q-19 -21 -46 -40z" />
    <glyph glyph-name="Scaron" unicode="&#x160;" horiz-adv-x="673" 
d="M150.5 47q-85.5 57 -106.5 173v2q0 9 9 9h73q10 0 11 -9q19 -80 80.5 -115t141.5 -35q82 0 126.5 34t44.5 101q0 51 -28 80.5t-70 44t-113 29.5q-80 17 -129 34.5t-83 57.5t-34 110q0 64 31.5 111.5t88 73t130.5 25.5q102 0 178 -52t97 -157v-2q0 -9 -9 -9h-69
q-9 0 -11 9q-18 68 -68.5 98.5t-118.5 30.5q-76 0 -116.5 -32t-40.5 -88q0 -44 25.5 -69.5t64 -38.5t105.5 -27q85 -18 137 -37.5t88.5 -63.5t36.5 -122q0 -103 -69.5 -163t-197.5 -60q-119 0 -204.5 57zM324 809l-145 153q-3 5 -3 7q0 5 8 5h74q7 0 12 -6l59 -72q3 -4 7 -4
t7 4l59 72q4 6 12 6h74q6 0 7.5 -3.5t-2.5 -8.5l-145 -153q-5 -5 -12 -5t-12 5z" />
    <glyph glyph-name="scaron" unicode="&#x161;" horiz-adv-x="557" 
d="M127 37q-65 47 -82 130v2q0 9 9 9h69q10 0 11 -9q13 -49 52.5 -76.5t108.5 -27.5q58 0 92.5 22t34.5 63q0 32 -20.5 51.5t-52 29.5t-83.5 20q-65 13 -104.5 26.5t-67.5 43.5t-28 83q0 75 56.5 117t144.5 42q87 0 146 -44t76 -121v-2q0 -9 -9 -9h-59q-9 0 -11 9
q-15 47 -52 69.5t-91 22.5q-55 0 -85.5 -20.5t-30.5 -56.5q0 -28 19 -44t47 -24.5t79 -18.5q67 -13 109 -27.5t72 -47t30 -90.5q0 -78 -56 -123.5t-157 -45.5q-102 0 -167 47zM267 599l-145 153q-3 5 -3 7q0 5 8 5h74q7 0 12 -6l59 -72q3 -4 7 -4t7 4l59 72q4 6 12 6h74
q6 0 7.5 -3.5t-2.5 -8.5l-145 -153q-5 -5 -12 -5t-12 5z" />
    <glyph glyph-name="uni0162" unicode="&#x162;" horiz-adv-x="637" 
d="M613 763q10 0 10 -10v-63q0 -10 -10 -10h-239q-10 0 -10 -10v-660q0 -10 -10 -10h-12q-30 -33 -55 -50l7 -9q24 3 38 3q23 0 38 -6q59 -19 59 -72q0 -41 -34 -63.5t-89 -22.5q-40 0 -83 11q-9 1 -9 11v16q0 5 3.5 7.5t8.5 0.5q39 -14 76 -14q34 0 54 13.5t20 38.5
q0 33 -33 46.5t-97 13.5q-7 0 -8.5 3.5t2.5 8.5l49 64h-7q-10 0 -10 10v660q0 10 -10 10h-238q-10 0 -10 10v63q0 10 10 10h589z" />
    <glyph glyph-name="uni0163" unicode="&#x163;" horiz-adv-x="361" 
d="M211 478q-10 0 -10 -10v-312q0 -29 4 -45.5t18 -26t44 -9.5h47q10 0 10 -10v-55q0 -10 -10 -10h-67q-13 0 -19 1q-20 -25 -55 -51l7 -9q24 3 38 3q23 0 38 -6q59 -19 59 -72q0 -41 -34 -63.5t-89 -22.5q-40 0 -83 11q-9 1 -9 11v16q0 5 3.5 7.5t8.5 0.5q39 -14 76 -14
q34 0 54 13.5t20 38.5q0 33 -33 46.5t-97 13.5q-7 0 -8.5 3.5t2.5 8.5l56 73q-33 12 -49.5 42.5t-16.5 87.5v329q0 10 -10 10h-69q-10 0 -10 10v55q0 10 10 10h69q10 0 10 10v190q0 10 10 10h65q10 0 10 -10v-190q0 -10 10 -10h104q10 0 10 -10v-55q0 -10 -10 -10h-104z" />
    <glyph glyph-name="Tcaron" unicode="&#x164;" horiz-adv-x="637" 
d="M282 0q-10 0 -10 10v660q0 10 -10 10h-238q-10 0 -10 10v63q0 10 10 10h589q10 0 10 -10v-63q0 -10 -10 -10h-239q-10 0 -10 -10v-660q0 -10 -10 -10h-72zM307 809l-145 153q-3 5 -3 7q0 5 8 5h74q7 0 12 -6l59 -72q3 -4 7 -4t7 4l59 72q4 6 12 6h74q6 0 7.5 -3.5
t-2.5 -8.5l-145 -153q-5 -5 -12 -5t-12 5z" />
    <glyph glyph-name="tcaron" unicode="&#x165;" horiz-adv-x="361" 
d="M247 0q-67 0 -99 30t-32 109v329q0 10 -10 10h-69q-10 0 -10 10v55q0 10 10 10h69q10 0 10 10v190q0 10 10 10h65q10 0 10 -10v-190q0 -10 10 -10h104q10 0 10 -10v-55q0 -10 -10 -10h-104q-10 0 -10 -10v-312q0 -29 4 -45.5t18 -26t44 -9.5h47q10 0 10 -10v-55
q0 -10 -10 -10h-67zM287 632q-4 0 -6.5 3t-2.5 7v25q0 8 9 11q41 8 64 36.5t23 69.5q0 10 -1 15q-1 6 -4.5 7t-7.5 -3q-11 -11 -35 -11q-22 0 -37 15.5t-15 41.5q0 27 17.5 44t46.5 17q39 0 62.5 -32t23.5 -84q0 -58 -33.5 -104.5t-101.5 -57.5h-2z" />
    <glyph glyph-name="Umacron" unicode="&#x16a;" horiz-adv-x="711" 
d="M143 62q-71 72 -71 202v489q0 10 10 10h72q10 0 10 -10v-489q0 -92 47 -142t144 -50t144 50t47 142v489q0 10 10 10h72q10 0 10 -10v-489q0 -130 -71 -202t-212 -72t-212 72zM217 870q-10 0 -10 10v23q0 10 10 10h276q10 0 10 -10v-23q0 -10 -10 -10h-276z" />
    <glyph glyph-name="umacron" unicode="&#x16b;" horiz-adv-x="578" 
d="M95 77q-26 49 -26 143v323q0 10 10 10h65q10 0 10 -10v-323q0 -88 32 -124q28 -31 85 -31q63 0 101 41q27 28 38.5 77t11.5 134v226q0 10 10 10h65q10 0 10 -10v-533q0 -10 -10 -10h-65q-10 0 -10 10v57q0 7 -5 7t-11 -8q-35 -40 -70.5 -58t-77.5 -18q-116 0 -163 87z
M151 660q-10 0 -10 10v23q0 10 10 10h276q10 0 10 -10v-23q0 -10 -10 -10h-276z" />
    <glyph glyph-name="Uring" unicode="&#x16e;" horiz-adv-x="711" 
d="M143 62q-71 72 -71 202v489q0 10 10 10h72q10 0 10 -10v-489q0 -92 47 -142t144 -50t144 50t47 142v489q0 10 10 10h72q10 0 10 -10v-489q0 -130 -71 -202t-212 -72t-212 72zM270.5 826.5q-34.5 35.5 -34.5 83.5q0 49 34.5 83.5t83.5 34.5t84.5 -34t35.5 -84
q0 -49 -35 -84t-85 -35q-49 0 -83.5 35.5zM395 869.5q16 16.5 16 42.5q0 23 -15.5 39t-41.5 16q-24 0 -40 -16t-16 -39q0 -25 16.5 -42t39.5 -17q25 0 41 16.5z" />
    <glyph glyph-name="uring" unicode="&#x16f;" horiz-adv-x="578" 
d="M95 77q-26 49 -26 143v323q0 10 10 10h65q10 0 10 -10v-323q0 -88 32 -124q28 -31 85 -31q63 0 101 41q27 28 38.5 77t11.5 134v226q0 10 10 10h65q10 0 10 -10v-533q0 -10 -10 -10h-65q-10 0 -10 10v57q0 7 -5 7t-11 -8q-35 -40 -70.5 -58t-77.5 -18q-116 0 -163 87z
M204.5 616.5q-34.5 35.5 -34.5 83.5q0 49 34.5 83.5t83.5 34.5t84.5 -34t35.5 -84q0 -49 -35 -84t-85 -35q-49 0 -83.5 35.5zM329 659.5q16 16.5 16 42.5q0 23 -15.5 39t-41.5 16q-24 0 -40 -16t-16 -39q0 -25 16.5 -42t39.5 -17q25 0 41 16.5z" />
    <glyph glyph-name="Uhungarumlaut" unicode="&#x170;" horiz-adv-x="711" 
d="M143 62q-71 72 -71 202v489q0 10 10 10h72q10 0 10 -10v-489q0 -92 47 -142t144 -50t144 50t47 142v489q0 10 10 10h72q10 0 10 -10v-489q0 -130 -71 -202t-212 -72t-212 72zM240 821q-6 0 -8 3.5t2 8.5l102 134q4 6 13 6h80q6 0 7.5 -3.5t-2.5 -8.5l-126 -135
q-5 -5 -12 -5h-56zM422 821q-6 0 -8 4t2 8l104 134q4 6 13 6h85q7 0 8.5 -3.5t-3.5 -8.5l-132 -135q-5 -5 -12 -5h-57z" />
    <glyph glyph-name="uhungarumlaut" unicode="&#x171;" horiz-adv-x="578" 
d="M95 77q-26 49 -26 143v323q0 10 10 10h65q10 0 10 -10v-323q0 -88 32 -124q28 -31 85 -31q63 0 101 41q27 28 38.5 77t11.5 134v226q0 10 10 10h65q10 0 10 -10v-533q0 -10 -10 -10h-65q-10 0 -10 10v57q0 7 -5 7t-11 -8q-35 -40 -70.5 -58t-77.5 -18q-116 0 -163 87z
M174 611q-6 0 -8 3.5t2 8.5l102 134q4 6 13 6h80q6 0 7.5 -3.5t-2.5 -8.5l-126 -135q-5 -5 -12 -5h-56zM356 611q-6 0 -8 4t2 8l104 134q4 6 13 6h85q7 0 8.5 -3.5t-3.5 -8.5l-132 -135q-5 -5 -12 -5h-57z" />
    <glyph glyph-name="Uogonek" unicode="&#x172;" horiz-adv-x="711" 
d="M628 763q10 0 10 -10v-489q0 -110 -50.5 -179t-152.5 -88l-24 -22q-36 -34 -49 -51t-13 -39q0 -23 14 -36.5t39 -13.5q10 0 25 3h2q9 0 9 -9v-33q0 -9 -12 -12q-20 -4 -39 -4q-46 0 -74.5 25t-28.5 67q0 37 25 64t79 49v6q-11 -1 -33 -1q-141 0 -212 72t-71 202v489
q0 10 10 10h72q10 0 10 -10v-489q0 -92 47 -142t144 -50t144 50t47 142v489q0 10 10 10h72z" />
    <glyph glyph-name="uogonek" unicode="&#x173;" horiz-adv-x="578" 
d="M507 10q0 -10 -10 -10h10q-10 -10 -26 -24q-37 -34 -50 -51t-13 -40t14 -36.5t39 -13.5q10 0 25 3h2q9 0 9 -9v-33q0 -9 -12 -12q-20 -4 -39 -4q-46 0 -74.5 25t-28.5 67q0 37 25 64t79 49v15h-25q-10 0 -10 10v57q0 7 -5 7t-11 -8q-35 -40 -70.5 -58t-77.5 -18
q-116 0 -163 87q-26 49 -26 143v323q0 10 10 10h65q10 0 10 -10v-323q0 -88 32 -124q28 -31 85 -31q63 0 101 41q27 28 38.5 77t11.5 134v226q0 10 10 10h65q10 0 10 -10v-533z" />
    <glyph glyph-name="Wcircumflex" unicode="&#x174;" horiz-adv-x="1074" 
d="M255 0q-8 0 -11 8l-221 744l-1 3q0 8 10 8h75q9 0 12 -8l180 -602q3 -7 6 -7q5 0 6 7l180 602q3 8 11 8h70q9 0 12 -8l180 -603q3 -7 6 -7q5 0 6 7l180 603q3 8 11 8h75q5 0 7.5 -3t1.5 -8l-221 -744q-3 -8 -11 -8h-86q-9 0 -12 8l-178 584q-2 8 -6 8q-3 0 -6 -8
l-178 -584q-3 -8 -12 -8h-86zM384 828q-6 0 -7.5 3.5t2.5 8.5l145 153q5 5 12 5t12 -5l145 -153q3 -4 3 -7q0 -5 -8 -5h-74q-8 0 -12 6l-59 72q-3 4 -7 4t-7 -4l-59 -72q-5 -6 -12 -6h-74z" />
    <glyph glyph-name="wcircumflex" unicode="&#x175;" horiz-adv-x="820" 
d="M196 0q-8 0 -11 8l-157 534l-1 3q0 8 10 8h70q9 0 11 -8l108 -386q3 -7 7 -7q5 0 6 7l129 386q3 8 12 8h59q9 0 12 -8l129 -386q3 -7 7 -7q5 0 6 7l109 386q3 8 11 8h70q5 0 7.5 -3t1.5 -8l-159 -534q-3 -8 -11 -8h-61q-9 0 -12 8l-133 405q-1 7 -6 7q-3 0 -6 -7
l-135 -405q-3 -8 -12 -8h-61zM258 618q-6 0 -7.5 3.5t2.5 8.5l145 153q5 5 12 5t12 -5l145 -153q3 -4 3 -7q0 -5 -8 -5h-74q-8 0 -12 6l-59 72q-3 4 -7 4t-7 -4l-59 -72q-5 -6 -12 -6h-74z" />
    <glyph glyph-name="Ycircumflex" unicode="&#x176;" horiz-adv-x="674" 
d="M300 0q-10 0 -10 10v275q0 7 -3 13l-276 453q-2 4 -2 6q0 6 9 6h85q7 0 12 -7l214 -361q3 -4 7 -4t7 4l217 361q5 7 12 7h83q6 0 8 -3.5t-1 -8.5l-273 -453q-3 -6 -3 -13v-275q0 -10 -10 -10h-76zM185 828q-6 0 -7.5 3.5t2.5 8.5l145 153q5 5 12 5t12 -5l145 -153
q3 -4 3 -7q0 -5 -8 -5h-74q-8 0 -12 6l-59 72q-3 4 -7 4t-7 -4l-59 -72q-5 -6 -12 -6h-74z" />
    <glyph glyph-name="ycircumflex" unicode="&#x177;" horiz-adv-x="549" 
d="M81 -210q-10 0 -10 10v58q0 10 10 10h42q25 0 38 3.5t23 15.5t20 39l28 75q1 2 1 5q0 5 -2 9l-208 526q-1 2 -1 5q0 7 8 7h74q8 0 11 -8l158 -404q2 -6 6 -6t7 6l147 404q3 8 12 8h71q5 0 7.5 -3.5t0.5 -8.5l-241 -652q-22 -59 -50 -79t-80 -20h-72zM122 618
q-6 0 -7.5 3.5t2.5 8.5l145 153q5 5 12 5t12 -5l145 -153q3 -4 3 -7q0 -5 -8 -5h-74q-8 0 -12 6l-59 72q-3 4 -7 4t-7 -4l-59 -72q-5 -6 -12 -6h-74z" />
    <glyph glyph-name="Ydieresis" unicode="&#x178;" horiz-adv-x="674" 
d="M300 0q-10 0 -10 10v275q0 7 -3 13l-276 453q-2 4 -2 6q0 6 9 6h85q7 0 12 -7l214 -361q3 -4 7 -4t7 4l217 361q5 7 12 7h83q6 0 8 -3.5t-1 -8.5l-273 -453q-3 -6 -3 -13v-275q0 -10 -10 -10h-76zM195.5 827.5q-17.5 16.5 -17.5 40.5t17.5 41t41.5 17q23 0 40.5 -17
t17.5 -41q0 -23 -17.5 -40t-40.5 -17q-24 0 -41.5 16.5zM395.5 827.5q-17.5 16.5 -17.5 40.5t17.5 41t41.5 17q23 0 40.5 -17t17.5 -41q0 -23 -17.5 -40t-40.5 -17q-24 0 -41.5 16.5z" />
    <glyph glyph-name="Zacute" unicode="&#x179;" horiz-adv-x="634" 
d="M39 0q-10 0 -10 10v50q0 8 4 13l446 595q2 2 2 6q0 2 -2 4t-6 2h-410q-10 0 -10 10v63q0 10 10 10h529q10 0 10 -10v-52q0 -8 -4 -13l-442 -593q-2 -2 -2 -6q0 -2 2 -4t6 -2h429q10 0 10 -10v-63q0 -10 -10 -10h-552zM287 821q-6 0 -8 4t2 8l103 134q4 6 13 6h79
q6 0 7.5 -3.5t-2.5 -8.5l-126 -135q-5 -5 -12 -5h-56z" />
    <glyph glyph-name="zacute" unicode="&#x17a;" horiz-adv-x="533" 
d="M44 0q-10 0 -10 10v55q0 5 5 12l344 389q3 3 3 6q0 6 -8 6h-315q-10 0 -10 10v55q0 10 10 10h424q10 0 10 -10v-63q0 -5 -5 -12l-337 -381q-3 -3 -3 -6q0 -6 8 -6h324q10 0 10 -10v-55q0 -10 -10 -10h-440zM237 611q-6 0 -8 4t2 8l103 134q4 6 13 6h79q6 0 7.5 -3.5
t-2.5 -8.5l-126 -135q-5 -5 -12 -5h-56z" />
    <glyph glyph-name="Zdotaccent" unicode="&#x17b;" horiz-adv-x="634" 
d="M39 0q-10 0 -10 10v50q0 8 4 13l446 595q2 2 2 6q0 2 -2 4t-6 2h-410q-10 0 -10 10v63q0 10 10 10h529q10 0 10 -10v-52q0 -8 -4 -13l-442 -593q-2 -2 -2 -6q0 -2 2 -4t6 -2h429q10 0 10 -10v-63q0 -10 -10 -10h-552zM276.5 827.5q-17.5 16.5 -17.5 40.5t17.5 41t41.5 17
q23 0 40.5 -17t17.5 -41q0 -23 -17.5 -40t-40.5 -17q-24 0 -41.5 16.5z" />
    <glyph glyph-name="zdotaccent" unicode="&#x17c;" horiz-adv-x="533" 
d="M44 0q-10 0 -10 10v55q0 5 5 12l344 389q3 3 3 6q0 6 -8 6h-315q-10 0 -10 10v55q0 10 10 10h424q10 0 10 -10v-63q0 -5 -5 -12l-337 -381q-3 -3 -3 -6q0 -6 8 -6h324q10 0 10 -10v-55q0 -10 -10 -10h-440zM222 666.5q-19 18.5 -19 44.5t19 44t46 18t46 -18t19 -44
t-19 -44.5t-46 -18.5t-46 18.5z" />
    <glyph glyph-name="Zcaron" unicode="&#x17d;" horiz-adv-x="634" 
d="M39 0q-10 0 -10 10v50q0 8 4 13l446 595q2 2 2 6q0 2 -2 4t-6 2h-410q-10 0 -10 10v63q0 10 10 10h529q10 0 10 -10v-52q0 -8 -4 -13l-442 -593q-2 -2 -2 -6q0 -2 2 -4t6 -2h429q10 0 10 -10v-63q0 -10 -10 -10h-552zM306 809l-145 153q-3 5 -3 7q0 5 8 5h74q7 0 12 -6
l59 -72q3 -4 7 -4t7 4l59 72q4 6 12 6h74q6 0 7.5 -3.5t-2.5 -8.5l-145 -153q-5 -5 -12 -5t-12 5z" />
    <glyph glyph-name="zcaron" unicode="&#x17e;" horiz-adv-x="533" 
d="M44 0q-10 0 -10 10v55q0 5 5 12l344 389q3 3 3 6q0 6 -8 6h-315q-10 0 -10 10v55q0 10 10 10h424q10 0 10 -10v-63q0 -5 -5 -12l-337 -381q-3 -3 -3 -6q0 -6 8 -6h324q10 0 10 -10v-55q0 -10 -10 -10h-440zM256 599l-145 153q-3 5 -3 7q0 5 8 5h74q7 0 12 -6l59 -72
q3 -4 7 -4t7 4l59 72q4 6 12 6h74q6 0 7.5 -3.5t-2.5 -8.5l-145 -153q-5 -5 -12 -5t-12 5z" />
    <glyph glyph-name="florin" unicode="&#x192;" horiz-adv-x="454" 
d="M73 -210q-10 0 -10 10v55q0 10 10 10h38q37 0 56.5 21t19.5 71v511q0 10 -10 10h-104q-10 0 -10 10v55q0 10 10 10h104q10 0 10 10v53q0 147 139 147h60q10 0 10 -10v-55q0 -10 -10 -10h-41q-38 0 -55.5 -18t-17.5 -67v-40q0 -10 10 -10h104q10 0 10 -10v-55
q0 -10 -10 -10h-104q-10 0 -10 -10v-531q0 -73 -36 -110t-106 -37h-57z" />
    <glyph glyph-name="AEacute" unicode="&#x1fc;" horiz-adv-x="1072" 
d="M26 0q-5 0 -7.5 3.5t-0.5 8.5l274 743q3 8 12 8h465q8 0 11 -8l24 -63l1 -4q0 -8 -9 -8h-353q-11 0 -8 -11l87 -237q3 -8 12 -8h359q9 0 12 -8l22 -63l1 -4q0 -7 -9 -7h-352q-11 0 -8 -11l88 -240q3 -8 12 -8h360q8 0 11 -8l24 -63l1 -4q0 -8 -9 -8h-454q-9 0 -12 8
l-57 171q-3 8 -12 8h-328q-9 0 -12 -8l-61 -171q-3 -8 -12 -8h-72zM477 269q11 0 8 11l-131 374q-1 7 -7 7q-4 0 -7 -7l-131 -374l-1 -4q0 -7 9 -7h260zM505 821q-6 0 -8 4t2 8l103 134q4 6 13 6h79q6 0 7.5 -3.5t-2.5 -8.5l-126 -135q-5 -5 -12 -5h-56z" />
    <glyph glyph-name="aeacute" unicode="&#x1fd;" horiz-adv-x="1008" 
d="M96.5 32q-48.5 42 -48.5 115q0 72 54 114q44 35 127 52l188 36q9 2 9 11q-3 59 -34 90q-38 38 -102 38q-49 0 -85.5 -25t-48.5 -67q-3 -9 -11 -9h-65q-11 0 -9 11q17 78 78 121.5t142 43.5q49 0 91 -14.5t71 -42.5q12 -11 26 -33q3 -5 7 -5t7 4q36 43 86.5 67t114.5 24
q71 0 132 -32t98 -93.5t37 -147.5v-20q0 -10 -10 -10h-430q-5 0 -7.5 -3t-1.5 -7q4 -27 10 -45q21 -64 67.5 -102t105.5 -38q57 0 99 29.5t63 75.5q3 8 11 8h71q5 0 7.5 -3t0.5 -8q-29 -79 -93 -128t-158 -49q-73 0 -131.5 32.5t-93.5 90.5q-3 5 -7 5t-7 -5q-42 -64 -96 -94
q-54 -29 -133 -29q-83 0 -131.5 42zM860 335q5 0 7.5 3t1.5 7q-4 28 -11 44q-21 47 -64.5 73t-97.5 26q-55 0 -96.5 -26t-64.5 -73q-9 -19 -14 -43v-2q0 -9 9 -9h330zM326 84q54 28 76.5 73t24.5 114q0 5 -3 7.5t-8 1.5l-169 -34q-62 -12 -91 -39q-23 -23 -23 -58
q0 -38 28.5 -61t76.5 -23q51 0 88 19zM473 611q-6 0 -8 4t2 8l103 134q4 6 13 6h79q6 0 7.5 -3.5t-2.5 -8.5l-126 -135q-5 -5 -12 -5h-56z" />
    <glyph glyph-name="Oslashacute" unicode="&#x1fe;" horiz-adv-x="811" 
d="M695 626q32 -50 48.5 -112.5t16.5 -131.5q0 -108 -39.5 -197t-120 -142t-196.5 -53q-79 0 -141.5 25.5t-107.5 71.5l-52 -52q-3 -3 -7 -3t-7 3l-31 31q-3 3 -3 7t3 7l58 58q-33 50 -49.5 113t-16.5 131q0 107 39.5 196t119.5 142t195 53q156 0 250 -97l53 53q3 3 7 3
t7 -3l31 -32q3 -3 3 -7t-3 -7zM181 203l410 410q-69 77 -187 77q-83 0 -142 -39.5t-89.5 -109t-30.5 -159.5q0 -104 39 -179zM547.5 112.5q59.5 39.5 90 109.5t30.5 160q0 105 -39 178l-411 -410q69 -77 186 -77q84 0 143.5 39.5zM374 821q-6 0 -8 4t2 8l103 134q4 6 13 6
h79q6 0 7.5 -3.5t-2.5 -8.5l-126 -135q-5 -5 -12 -5h-56z" />
    <glyph glyph-name="oslashacute" unicode="&#x1ff;" horiz-adv-x="639" 
d="M539 451q51 -75 51 -172q0 -83 -34.5 -148.5t-96.5 -103t-141 -37.5q-52 0 -97 16.5t-80 47.5l-32 -32q-3 -3 -7 -3t-7 3l-31 31q-3 3 -3 7t3 7l35 35q-51 74 -51 177q0 81 34.5 146t96 101.5t139.5 36.5q103 0 178 -64l32 32q3 3 7 3t7 -3l31 -32q3 -3 3 -7t-3 -7z
M160 163l278 278q-50 47 -120 47q-52 0 -94.5 -27t-66.5 -75t-24 -107q0 -64 27 -116zM412.5 93q42.5 28 67 76.5t24.5 109.5q0 60 -27 111l-278 -278q50 -47 119 -47q52 0 94.5 28zM288 611q-6 0 -8 4t2 8l103 134q4 6 13 6h79q6 0 7.5 -3.5t-2.5 -8.5l-126 -135
q-5 -5 -12 -5h-56z" />
    <glyph glyph-name="uni0218" unicode="&#x218;" horiz-adv-x="673" 
d="M150.5 47q-85.5 57 -106.5 173v2q0 9 9 9h73q10 0 11 -9q19 -80 80.5 -115t141.5 -35q82 0 126.5 34t44.5 101q0 51 -28 80.5t-70 44t-113 29.5q-80 17 -129 34.5t-83 57.5t-34 110q0 64 31.5 111.5t88 73t130.5 25.5q102 0 178 -52t97 -157v-2q0 -9 -9 -9h-69
q-9 0 -11 9q-18 68 -68.5 98.5t-118.5 30.5q-76 0 -116.5 -32t-40.5 -88q0 -44 25.5 -69.5t64 -38.5t105.5 -27q85 -18 137 -37.5t88.5 -63.5t36.5 -122q0 -103 -69.5 -163t-197.5 -60q-119 0 -204.5 57zM288 -196q0 15 10 15q66 3 66 42q0 6 -1 10h-10q-1 -8 -8 -13t-18 -5
q-18 0 -30 13t-12 33q0 22 14 35.5t37 13.5q32 0 50.5 -20t18.5 -54q0 -39 -27 -60.5t-80 -23.5q-10 0 -10 14z" />
    <glyph glyph-name="uni0219" unicode="&#x219;" horiz-adv-x="557" 
d="M127 37q-65 47 -82 130v2q0 9 9 9h69q10 0 11 -9q13 -49 52.5 -76.5t108.5 -27.5q58 0 92.5 22t34.5 63q0 32 -20.5 51.5t-52 29.5t-83.5 20q-65 13 -104.5 26.5t-67.5 43.5t-28 83q0 75 56.5 117t144.5 42q87 0 146 -44t76 -121v-2q0 -9 -9 -9h-59q-9 0 -11 9
q-15 47 -52 69.5t-91 22.5q-55 0 -85.5 -20.5t-30.5 -56.5q0 -28 19 -44t47 -24.5t79 -18.5q67 -13 109 -27.5t72 -47t30 -90.5q0 -78 -56 -123.5t-157 -45.5q-102 0 -167 47zM231 -196q0 15 10 15q66 3 66 42q0 6 -1 10h-10q-1 -8 -8 -13t-18 -5q-18 0 -30 13t-12 33
q0 22 14 35.5t37 13.5q32 0 50.5 -20t18.5 -54q0 -39 -27 -60.5t-80 -23.5q-10 0 -10 14z" />
    <glyph glyph-name="uni021A" unicode="&#x21a;" horiz-adv-x="637" 
d="M282 0q-10 0 -10 10v660q0 10 -10 10h-238q-10 0 -10 10v63q0 10 10 10h589q10 0 10 -10v-63q0 -10 -10 -10h-239q-10 0 -10 -10v-660q0 -10 -10 -10h-72zM271 -196q0 15 10 15q66 3 66 42q0 6 -1 10h-10q-1 -8 -8 -13t-18 -5q-18 0 -30 13t-12 33q0 22 14 35.5t37 13.5
q32 0 50.5 -20t18.5 -54q0 -39 -27 -60.5t-80 -23.5q-10 0 -10 14z" />
    <glyph glyph-name="uni021B" unicode="&#x21b;" horiz-adv-x="361" 
d="M247 0q-67 0 -99 30t-32 109v329q0 10 -10 10h-69q-10 0 -10 10v55q0 10 10 10h69q10 0 10 10v190q0 10 10 10h65q10 0 10 -10v-190q0 -10 10 -10h104q10 0 10 -10v-55q0 -10 -10 -10h-104q-10 0 -10 -10v-312q0 -29 4 -45.5t18 -26t44 -9.5h47q10 0 10 -10v-55
q0 -10 -10 -10h-67zM157 -196q0 15 10 15q66 3 66 42q0 6 -1 10h-10q-1 -8 -8 -13t-18 -5q-18 0 -30 13t-12 33q0 22 14 35.5t37 13.5q32 0 50.5 -20t18.5 -54q0 -39 -27 -60.5t-80 -23.5q-10 0 -10 14z" />
    <glyph glyph-name="uni0237" unicode="&#x237;" horiz-adv-x="228" 
d="M-48 -210q-10 0 -10 10v58q0 10 10 10h42q38 0 58 18t20 66v591q0 10 10 10h65q10 0 10 -10v-602q0 -75 -36 -113t-107 -38h-62z" />
    <glyph glyph-name="circumflex" unicode="&#x2c6;" horiz-adv-x="354" 
d="M25 618q-6 0 -7.5 3.5t2.5 8.5l145 153q5 5 12 5t12 -5l145 -153q3 -4 3 -7q0 -5 -8 -5h-74q-8 0 -12 6l-59 72q-3 4 -7 4t-7 -4l-59 -72q-5 -6 -12 -6h-74z" />
    <glyph glyph-name="caron" unicode="&#x2c7;" horiz-adv-x="354" 
d="M165 599l-145 153q-3 5 -3 7q0 5 8 5h74q7 0 12 -6l59 -72q3 -4 7 -4t7 4l59 72q4 6 12 6h74q6 0 7.5 -3.5t-2.5 -8.5l-145 -153q-5 -5 -12 -5t-12 5z" />
    <glyph glyph-name="breve" unicode="&#x2d8;" horiz-adv-x="366" 
d="M65.5 649q-41.5 37 -48.5 104v2q0 8 9 8h43q8 0 10 -9q7 -40 34.5 -60.5t69.5 -20.5q41 0 68 20.5t34 60.5q1 9 10 9h45q10 0 9 -10q-6 -66 -49.5 -103.5t-116.5 -37.5q-76 0 -117.5 37z" />
    <glyph glyph-name="dotaccent" unicode="&#x2d9;" horiz-adv-x="164" 
d="M36 666.5q-19 18.5 -19 44.5t19 44t46 18t46 -18t19 -44t-19 -44.5t-46 -18.5t-46 18.5z" />
    <glyph glyph-name="ring" unicode="&#x2da;" horiz-adv-x="272" 
d="M51.5 616.5q-34.5 35.5 -34.5 83.5q0 49 34.5 83.5t83.5 34.5t84.5 -34t35.5 -84q0 -49 -35 -84t-85 -35q-49 0 -83.5 35.5zM176 659.5q16 16.5 16 42.5q0 23 -15.5 39t-41.5 16q-24 0 -40 -16t-16 -39q0 -25 16.5 -42t39.5 -17q25 0 41 16.5z" />
    <glyph glyph-name="ogonek" unicode="&#x2db;" horiz-adv-x="188" 
d="M45.5 -195q-28.5 25 -28.5 67q0 37 25 64t79 49v15h50q-10 -10 -26 -24q-37 -34 -50 -51t-13 -40t14 -36.5t39 -13.5q10 0 25 3h2q9 0 9 -9v-33q0 -9 -12 -12q-20 -4 -39 -4q-46 0 -74.5 25z" />
    <glyph glyph-name="tilde" unicode="&#x2dc;" horiz-adv-x="391" 
d="M213.5 626.5q-20.5 13.5 -42.5 37.5q-14 16 -24 23.5t-22 7.5q-35 0 -41 -68q-1 -10 -11 -10h-47q-5 0 -7.5 3t-1.5 8q5 65 34.5 102.5t77.5 37.5q30 0 49 -13t41 -37q16 -17 26 -24.5t23 -7.5q15 0 24.5 16.5t12.5 50.5q1 10 11 10h49q10 0 9 -15q-6 -69 -31.5 -102
t-75.5 -33q-33 0 -53.5 13.5z" />
    <glyph glyph-name="hungarumlaut" unicode="&#x2dd;" horiz-adv-x="428" 
d="M25 611q-6 0 -8 3.5t2 8.5l102 134q4 6 13 6h80q6 0 7.5 -3.5t-2.5 -8.5l-126 -135q-5 -5 -12 -5h-56zM207 611q-6 0 -8 4t2 8l104 134q4 6 13 6h85q7 0 8.5 -3.5t-3.5 -8.5l-132 -135q-5 -5 -12 -5h-57z" />
    <glyph glyph-name="gravecomb" unicode="&#x300;" 
d="M-81 611q-7 0 -12 5l-126 135q-3 5 -3 7q0 5 8 5h79q9 0 13 -6l103 -134q2 -2 2 -6q0 -2 -2 -4t-6 -2h-56z" />
    <glyph glyph-name="acutecomb" unicode="&#x301;" 
d="M-214 611q-6 0 -8 4t2 8l103 134q4 6 13 6h79q6 0 7.5 -3.5t-2.5 -8.5l-126 -135q-5 -5 -12 -5h-56z" />
    <glyph glyph-name="uni0302" unicode="&#x302;" 
d="M-329 618q-6 0 -7.5 3.5t2.5 8.5l145 153q5 5 12 5t12 -5l145 -153q3 -4 3 -7q0 -5 -8 -5h-74q-8 0 -12 6l-59 72q-3 4 -7 4t-7 -4l-59 -72q-5 -6 -12 -6h-74z" />
    <glyph glyph-name="tildecomb" unicode="&#x303;" 
d="M-177.5 626.5q-20.5 13.5 -42.5 37.5q-14 16 -24 23.5t-22 7.5q-35 0 -41 -68q-1 -10 -11 -10h-47q-5 0 -7.5 3t-1.5 8q5 65 34.5 102.5t77.5 37.5q30 0 49 -13t41 -37q16 -17 26 -24.5t23 -7.5q15 0 24.5 16.5t12.5 50.5q1 10 11 10h49q10 0 9 -15q-6 -69 -31.5 -102
t-75.5 -33q-33 0 -53.5 13.5z" />
    <glyph glyph-name="uni0304" unicode="&#x304;" 
d="M-303 660q-10 0 -10 10v23q0 10 10 10h276q10 0 10 -10v-23q0 -10 -10 -10h-276z" />
    <glyph glyph-name="uni0306" unicode="&#x306;" 
d="M-300.5 649q-41.5 37 -48.5 104v2q0 8 9 8h43q8 0 10 -9q7 -40 34.5 -60.5t69.5 -20.5q41 0 68 20.5t34 60.5q1 9 10 9h45q10 0 9 -10q-6 -66 -49.5 -103.5t-116.5 -37.5q-76 0 -117.5 37z" />
    <glyph glyph-name="uni0307" unicode="&#x307;" 
d="M-128 666.5q-19 18.5 -19 44.5t19 44t46 18t46 -18t19 -44t-19 -44.5t-46 -18.5t-46 18.5z" />
    <glyph glyph-name="uni0308" unicode="&#x308;" 
d="M-328 666.5q-19 18.5 -19 44.5t19 44t46 18t46 -18t19 -44t-19 -44.5t-46 -18.5t-46 18.5zM-128 666.5q-19 18.5 -19 44.5t19 44t46 18t46 -18t19 -44t-19 -44.5t-46 -18.5t-46 18.5z" />
    <glyph glyph-name="uni030A" unicode="&#x30a;" 
d="M-220.5 616.5q-34.5 35.5 -34.5 83.5q0 49 34.5 83.5t83.5 34.5t84.5 -34t35.5 -84q0 -49 -35 -84t-85 -35q-49 0 -83.5 35.5zM-96 659.5q16 16.5 16 42.5q0 23 -15.5 39t-41.5 16q-24 0 -40 -16t-16 -39q0 -25 16.5 -42t39.5 -17q25 0 41 16.5z" />
    <glyph glyph-name="uni030B" unicode="&#x30b;" 
d="M-403 611q-6 0 -8 3.5t2 8.5l102 134q4 6 13 6h80q6 0 7.5 -3.5t-2.5 -8.5l-126 -135q-5 -5 -12 -5h-56zM-221 611q-6 0 -8 4t2 8l104 134q4 6 13 6h85q7 0 8.5 -3.5t-3.5 -8.5l-132 -135q-5 -5 -12 -5h-57z" />
    <glyph glyph-name="uni030C" unicode="&#x30c;" 
d="M-189 599l-145 153q-3 5 -3 7q0 5 8 5h74q7 0 12 -6l59 -72q3 -4 7 -4t7 4l59 72q4 6 12 6h74q6 0 7.5 -3.5t-2.5 -8.5l-145 -153q-5 -5 -12 -5t-12 5z" />
    <glyph glyph-name="uni030F" unicode="&#x30f;" 
d="M-237 599q-13 0 -20 9l-114 135q-5 5 -5 10q0 4 4 7t10 3h42q12 0 19 -10l96 -135q4 -5 4 -10q0 -4 -3.5 -6.5t-10.5 -2.5h-22zM-54 599q-14 0 -20 9l-109 135q-4 4 -4 10q0 10 13 10h37q12 0 19 -10l97 -135q4 -4 4 -9q0 -10 -14 -10h-23z" />
    <glyph glyph-name="uni0312" unicode="&#x312;" 
d="M-119 622q-19 23 -19 60q0 44 29.5 77.5t88.5 39.5v-32q-37 -4 -57.5 -25t-20.5 -52q0 -11 3 -22q10 16 36 16q17 0 29.5 -11.5t12.5 -29.5q0 -19 -14 -31.5t-38 -12.5q-31 0 -50 23z" />
    <glyph glyph-name="uni031B" unicode="&#x31b;" 
d="M-166 592q95 0 95 113v42q0 16 16 16h22q16 0 16 -16v-37q0 -78 -36.5 -121.5t-112.5 -43.5v47z" />
    <glyph glyph-name="uni0326" unicode="&#x326;" 
d="M-134 -196q0 15 10 15q66 3 66 42q0 6 -1 10h-10q-1 -8 -8 -13t-18 -5q-18 0 -30 13t-12 33q0 22 14 35.5t37 13.5q32 0 50.5 -20t18.5 -54q0 -39 -27 -60.5t-80 -23.5q-10 0 -10 14z" />
    <glyph glyph-name="uni0327" unicode="&#x327;" 
d="M-223 -209q-9 1 -9 11v16q0 5 3.5 7.5t8.5 0.5q39 -14 76 -14q34 0 54 13.5t20 38.5q0 33 -33 46.5t-97 13.5q-7 0 -8.5 3.5t2.5 8.5l60 78h54q-4 -4 -20 -23t-47 -41l7 -9q24 3 38 3q23 0 38 -6q59 -19 59 -72q0 -41 -34 -63.5t-89 -22.5q-40 0 -83 11z" />
    <glyph glyph-name="uni0328" unicode="&#x328;" 
d="M-142.5 -195q-28.5 25 -28.5 67q0 37 25 64t79 49v15h50q-10 -10 -26 -24q-37 -34 -50 -51t-13 -40t14 -36.5t39 -13.5q10 0 25 3h2q9 0 9 -9v-33q0 -9 -12 -12q-20 -4 -39 -4q-46 0 -74.5 25z" />
    <glyph glyph-name="uni0337" unicode="&#x337;" 
d="M-225 283q-2 -1 -5 -1q-7 0 -7 8v39q0 9 7 12l201 104q2 1 5 1q7 0 7 -8v-39q0 -9 -7 -12z" />
    <glyph glyph-name="uni0338" unicode="&#x338;" 
d="M-484 35q-3 -3 -7 -3t-7 3l-31 31q-3 3 -3 7t3 7l464 464q3 3 7 3t7 -3l31 -32q3 -3 3 -7t-3 -7z" />
    <glyph glyph-name="uni0394" unicode="&#x394;" horiz-adv-x="694" 
d="M26 0q-5 0 -7.5 3.5t-0.5 8.5l274 743q3 8 12 8h86q9 0 12 -8l274 -743l1 -4q0 -8 -9 -8h-642zM545 85q11 0 8 11l-199 556q-1 6 -7 6q-4 0 -7 -6l-200 -556l-1 -4q0 -7 9 -7h397z" />
    <glyph glyph-name="pi" unicode="&#x3c0;" horiz-adv-x="576" 
d="M108 0q-10 0 -10 10v458q0 10 -10 10h-57q-10 0 -10 10v55q0 10 10 10h504q10 0 10 -10v-55q0 -10 -10 -10h-82q-10 0 -10 -10v-305q0 -39 4.5 -57t17 -24.5t40.5 -6.5h30q10 0 10 -10v-55q0 -10 -10 -10h-46q-67 0 -99 29.5t-32 106.5v332q0 10 -10 10h-155
q-10 0 -10 -10v-458q0 -10 -10 -10h-65z" />
    <glyph glyph-name="Wgrave" unicode="&#x1e80;" horiz-adv-x="1074" 
d="M255 0q-8 0 -11 8l-221 744l-1 3q0 8 10 8h75q9 0 12 -8l180 -602q3 -7 6 -7q5 0 6 7l180 602q3 8 11 8h70q9 0 12 -8l180 -603q3 -7 6 -7q5 0 6 7l180 603q3 8 11 8h75q5 0 7.5 -3t1.5 -8l-221 -744q-3 -8 -11 -8h-86q-9 0 -12 8l-178 584q-2 8 -6 8q-3 0 -6 -8
l-178 -584q-3 -8 -12 -8h-86zM511 821q-7 0 -12 5l-126 135q-3 5 -3 7q0 5 8 5h79q9 0 13 -6l103 -134q2 -2 2 -6q0 -2 -2 -4t-6 -2h-56z" />
    <glyph glyph-name="wgrave" unicode="&#x1e81;" horiz-adv-x="820" 
d="M196 0q-8 0 -11 8l-157 534l-1 3q0 8 10 8h70q9 0 11 -8l108 -386q3 -7 7 -7q5 0 6 7l129 386q3 8 12 8h59q9 0 12 -8l129 -386q3 -7 7 -7q5 0 6 7l109 386q3 8 11 8h70q5 0 7.5 -3t1.5 -8l-159 -534q-3 -8 -11 -8h-61q-9 0 -12 8l-133 405q-1 7 -6 7q-3 0 -6 -7
l-135 -405q-3 -8 -12 -8h-61zM385 611q-7 0 -12 5l-126 135q-3 5 -3 7q0 5 8 5h79q9 0 13 -6l103 -134q2 -2 2 -6q0 -2 -2 -4t-6 -2h-56z" />
    <glyph glyph-name="Wacute" unicode="&#x1e82;" horiz-adv-x="1074" 
d="M255 0q-8 0 -11 8l-221 744l-1 3q0 8 10 8h75q9 0 12 -8l180 -602q3 -7 6 -7q5 0 6 7l180 602q3 8 11 8h70q9 0 12 -8l180 -603q3 -7 6 -7q5 0 6 7l180 603q3 8 11 8h75q5 0 7.5 -3t1.5 -8l-221 -744q-3 -8 -11 -8h-86q-9 0 -12 8l-178 584q-2 8 -6 8q-3 0 -6 -8
l-178 -584q-3 -8 -12 -8h-86zM505 821q-6 0 -8 4t2 8l103 134q4 6 13 6h79q6 0 7.5 -3.5t-2.5 -8.5l-126 -135q-5 -5 -12 -5h-56z" />
    <glyph glyph-name="wacute" unicode="&#x1e83;" horiz-adv-x="820" 
d="M196 0q-8 0 -11 8l-157 534l-1 3q0 8 10 8h70q9 0 11 -8l108 -386q3 -7 7 -7q5 0 6 7l129 386q3 8 12 8h59q9 0 12 -8l129 -386q3 -7 7 -7q5 0 6 7l109 386q3 8 11 8h70q5 0 7.5 -3t1.5 -8l-159 -534q-3 -8 -11 -8h-61q-9 0 -12 8l-133 405q-1 7 -6 7q-3 0 -6 -7
l-135 -405q-3 -8 -12 -8h-61zM379 611q-6 0 -8 4t2 8l103 134q4 6 13 6h79q6 0 7.5 -3.5t-2.5 -8.5l-126 -135q-5 -5 -12 -5h-56z" />
    <glyph glyph-name="Wdieresis" unicode="&#x1e84;" horiz-adv-x="1074" 
d="M255 0q-8 0 -11 8l-221 744l-1 3q0 8 10 8h75q9 0 12 -8l180 -602q3 -7 6 -7q5 0 6 7l180 602q3 8 11 8h70q9 0 12 -8l180 -603q3 -7 6 -7q5 0 6 7l180 603q3 8 11 8h75q5 0 7.5 -3t1.5 -8l-221 -744q-3 -8 -11 -8h-86q-9 0 -12 8l-178 584q-2 8 -6 8q-3 0 -6 -8
l-178 -584q-3 -8 -12 -8h-86zM394.5 827.5q-17.5 16.5 -17.5 40.5t17.5 41t41.5 17q23 0 40.5 -17t17.5 -41q0 -23 -17.5 -40t-40.5 -17q-24 0 -41.5 16.5zM594.5 827.5q-17.5 16.5 -17.5 40.5t17.5 41t41.5 17q23 0 40.5 -17t17.5 -41q0 -23 -17.5 -40t-40.5 -17
q-24 0 -41.5 16.5z" />
    <glyph glyph-name="wdieresis" unicode="&#x1e85;" horiz-adv-x="820" 
d="M196 0q-8 0 -11 8l-157 534l-1 3q0 8 10 8h70q9 0 11 -8l108 -386q3 -7 7 -7q5 0 6 7l129 386q3 8 12 8h59q9 0 12 -8l129 -386q3 -7 7 -7q5 0 6 7l109 386q3 8 11 8h70q5 0 7.5 -3t1.5 -8l-159 -534q-3 -8 -11 -8h-61q-9 0 -12 8l-133 405q-1 7 -6 7q-3 0 -6 -7
l-135 -405q-3 -8 -12 -8h-61zM264 666.5q-19 18.5 -19 44.5t19 44t46 18t46 -18t19 -44t-19 -44.5t-46 -18.5t-46 18.5zM464 666.5q-19 18.5 -19 44.5t19 44t46 18t46 -18t19 -44t-19 -44.5t-46 -18.5t-46 18.5z" />
    <glyph glyph-name="uni1E9E" unicode="&#x1e9e;" horiz-adv-x="690" 
d="M89 0q-10 0 -10 10v497q0 149 85 215q64 51 173 51q74 0 128 -23t108 -70q5 -7 5 -12v-61q0 -7 -5 -12l-150 -149q-4 -4 -4 -7q0 -5 9 -5q26 -2 40 -4q83 -15 127 -70.5t44 -144.5q0 -120 -79.5 -167.5t-181.5 -47.5h-97q-10 0 -10 10v63q0 10 10 10h87q68 0 123.5 24.5
t55.5 113.5q0 90 -49 114.5t-110 24.5h-38q-10 0 -10 10v104q0 7 5 12l146 143q3 3 3 6q0 5 -4 8q-29 23 -68.5 35t-84.5 12q-74 0 -116 -36q-24 -21 -37 -56.5t-13 -90.5v-497q0 -10 -10 -10h-72z" />
    <glyph glyph-name="Ygrave" unicode="&#x1ef2;" horiz-adv-x="674" 
d="M300 0q-10 0 -10 10v275q0 7 -3 13l-276 453q-2 4 -2 6q0 6 9 6h85q7 0 12 -7l214 -361q3 -4 7 -4t7 4l217 361q5 7 12 7h83q6 0 8 -3.5t-1 -8.5l-273 -453q-3 -6 -3 -13v-275q0 -10 -10 -10h-76zM312 821q-7 0 -12 5l-126 135q-3 5 -3 7q0 5 8 5h79q9 0 13 -6l103 -134
q2 -2 2 -6q0 -2 -2 -4t-6 -2h-56z" />
    <glyph glyph-name="ygrave" unicode="&#x1ef3;" horiz-adv-x="549" 
d="M81 -210q-10 0 -10 10v58q0 10 10 10h42q25 0 38 3.5t23 15.5t20 39l28 75q1 2 1 5q0 5 -2 9l-208 526q-1 2 -1 5q0 7 8 7h74q8 0 11 -8l158 -404q2 -6 6 -6t7 6l147 404q3 8 12 8h71q5 0 7.5 -3.5t0.5 -8.5l-241 -652q-22 -59 -50 -79t-80 -20h-72zM249 611q-7 0 -12 5
l-126 135q-3 5 -3 7q0 5 8 5h79q9 0 13 -6l103 -134q2 -2 2 -6q0 -2 -2 -4t-6 -2h-56z" />
    <glyph glyph-name="endash" unicode="&#x2013;" horiz-adv-x="545" 
d="M523 302h-501v64h501v-64z" />
    <glyph glyph-name="emdash" unicode="&#x2014;" horiz-adv-x="1106" 
d="M1106 302h-1106v64h1106v-64z" />
    <glyph glyph-name="uni2015" unicode="&#x2015;" horiz-adv-x="795" 
d="M725 310h-655v54h655v-54z" />
    <glyph glyph-name="quoteleft" unicode="&#x2018;" horiz-adv-x="288" 
d="M88.5 525q-23.5 32 -23.5 84q0 61 36.5 108t109.5 55v-45q-46 -7 -71 -36t-25 -72q0 -15 3 -30q13 22 45 22q22 0 37 -15.5t15 -41.5q0 -27 -17.5 -44t-46.5 -17q-39 0 -62.5 32z" />
    <glyph glyph-name="quoteright" unicode="&#x2019;" horiz-adv-x="289" 
d="M86 495q-4 0 -6.5 3t-2.5 7v25q0 8 9 11q41 8 64 36.5t23 69.5q0 10 -1 15q-1 6 -4.5 7t-7.5 -3q-11 -11 -35 -11q-22 0 -37 15.5t-15 41.5q0 27 17.5 44t46.5 17q39 0 62.5 -32t23.5 -84q0 -58 -33.5 -104.5t-101.5 -57.5h-2z" />
    <glyph glyph-name="quotesinglbase" unicode="&#x201a;" horiz-adv-x="270" 
d="M73 -170q-4 0 -6.5 3t-2.5 7v25q0 8 9 11q41 8 64 36.5t23 69.5q0 10 -1 15q-1 6 -4.5 7t-7.5 -3q-11 -11 -35 -11q-22 0 -37 15.5t-15 41.5q0 27 17.5 44t46.5 17q39 0 62.5 -32t23.5 -84q0 -58 -33.5 -104.5t-101.5 -57.5h-2z" />
    <glyph glyph-name="quotedblleft" unicode="&#x201c;" horiz-adv-x="485" 
d="M202 770q4 0 6.5 -3t2.5 -7v-25q0 -8 -9 -11q-41 -8 -64 -36.5t-23 -69.5q0 -10 1 -15q1 -6 4.5 -7t7.5 3q11 11 35 11q22 0 37 -15.5t15 -41.5q0 -27 -17.5 -44t-46.5 -17q-39 0 -62.5 32t-23.5 84q0 58 33.5 104.5t101.5 57.5h2zM399 770q4 0 6.5 -3t2.5 -7v-25
q0 -8 -9 -11q-41 -8 -64 -36.5t-23 -69.5q0 -10 1 -15q1 -6 4.5 -7t7.5 3q11 11 35 11q22 0 37 -15.5t15 -41.5q0 -27 -17.5 -44t-46.5 -17q-39 0 -62.5 32t-23.5 84q0 58 33.5 104.5t101.5 57.5h2z" />
    <glyph glyph-name="quotedblright" unicode="&#x201d;" horiz-adv-x="486" 
d="M86 495q-4 0 -6.5 3t-2.5 7v25q0 8 9 11q41 8 64 36.5t23 69.5q0 10 -1 15q-1 6 -4.5 7t-7.5 -3q-11 -11 -35 -11q-22 0 -37 15.5t-15 41.5q0 27 17.5 44t46.5 17q39 0 62.5 -32t23.5 -84q0 -58 -33.5 -104.5t-101.5 -57.5h-2zM283 495q-4 0 -6.5 3t-2.5 7v25q0 8 9 11
q41 8 64 36.5t23 69.5q0 10 -1 15q-1 6 -4.5 7t-7.5 -3q-11 -11 -35 -11q-22 0 -37 15.5t-15 41.5q0 27 17.5 44t46.5 17q39 0 62.5 -32t23.5 -84q0 -58 -33.5 -104.5t-101.5 -57.5h-2z" />
    <glyph glyph-name="quotedblbase" unicode="&#x201e;" horiz-adv-x="467" 
d="M73 -170q-4 0 -6.5 3t-2.5 7v25q0 8 9 11q41 8 64 36.5t23 69.5q0 10 -1 15q-1 6 -4.5 7t-7.5 -3q-11 -11 -35 -11q-22 0 -37 15.5t-15 41.5q0 27 17.5 44t46.5 17q39 0 62.5 -32t23.5 -84q0 -58 -33.5 -104.5t-101.5 -57.5h-2zM270 -170q-4 0 -6.5 3t-2.5 7v25q0 8 9 11
q41 8 64 36.5t23 69.5q0 10 -1 15q-1 6 -4.5 7t-7.5 -3q-11 -11 -35 -11q-22 0 -37 15.5t-15 41.5q0 27 17.5 44t46.5 17q39 0 62.5 -32t23.5 -84q0 -58 -33.5 -104.5t-101.5 -57.5h-2z" />
    <glyph glyph-name="dagger" unicode="&#x2020;" horiz-adv-x="633" 
d="M291 -210q-10 0 -10 10v640q0 10 -10 10h-222q-10 0 -10 10v51q0 10 10 10h222q10 0 10 10v222q0 10 10 10h51q10 0 10 -10v-222q0 -10 10 -10h222q10 0 10 -10v-51q0 -10 -10 -10h-222q-10 0 -10 -10v-640q0 -10 -10 -10h-51z" />
    <glyph glyph-name="bullet" unicode="&#x2022;" horiz-adv-x="415" 
d="M143.5 149q-29.5 17 -47 46.5t-17.5 64.5t17.5 64.5t47 46.5t63.5 17q35 0 64.5 -17t47 -46.5t17.5 -64.5t-17.5 -64.5t-47 -46.5t-64.5 -17q-34 0 -63.5 17z" />
    <glyph glyph-name="uni2023" unicode="&#x2023;" horiz-adv-x="428" 
d="M395 273l-284 -163v325z" />
    <glyph glyph-name="ellipsis" unicode="&#x2026;" horiz-adv-x="684" 
d="M78 7q-18 17 -18 42q0 24 18 41.5t43 17.5q23 0 40 -17.5t17 -41.5t-17 -41.5t-40 -17.5q-25 0 -43 17zM300.5 7.5q-17.5 17.5 -17.5 41.5t17.5 41.5t42.5 17.5q24 0 41.5 -17.5t17.5 -41.5t-17.5 -41.5t-41.5 -17.5q-25 0 -42.5 17.5zM523.5 7q-17.5 17 -17.5 42
q0 24 17.5 41.5t42.5 17.5q23 0 40.5 -17.5t17.5 -41.5t-17 -41.5t-41 -17.5q-25 0 -42.5 17z" />
    <glyph glyph-name="perthousand" unicode="&#x2030;" horiz-adv-x="1132" 
d="M123.5 448q-34.5 24 -53 64t-18.5 87t18 86.5t52 63.5t79 24q42 0 76 -23t53.5 -63t19.5 -88q0 -49 -19 -89t-52.5 -63t-74.5 -23q-46 0 -80.5 24zM144 0q-6 0 -8 3.5t1 8.5l434 744q5 7 12 7h60q6 0 8 -3.5t-1 -8.5l-434 -744q-5 -7 -12 -7h-60zM260 524q22 30 22 75
q0 44 -22.5 75t-58.5 31q-38 0 -59 -30.5t-21 -75.5t21.5 -75t61.5 -30q34 0 56 30zM509.5 13.5q-34.5 23.5 -53 63.5t-18.5 87t18 87t52 63.5t79 23.5q42 0 76 -23t53.5 -63t19.5 -89t-19 -88.5t-52.5 -62t-74.5 -22.5q-46 0 -80.5 23.5zM853.5 13.5q-34.5 23.5 -53 63.5
t-18.5 87t18 87t52 63.5t79 23.5q42 0 76 -23t53.5 -63t19.5 -89t-19 -88.5t-52.5 -62t-74.5 -22.5q-46 0 -80.5 23.5zM646 88q22 30 22 75t-22 75.5t-59 30.5q-38 0 -58.5 -30t-20.5 -75q0 -46 21 -76t61 -30q34 0 56 30zM990 88q22 30 22 75t-22 75.5t-59 30.5
q-38 0 -58.5 -30t-20.5 -75q0 -46 21 -76t61 -30q34 0 56 30z" />
    <glyph glyph-name="guilsinglleft" unicode="&#x2039;" horiz-adv-x="306" 
d="M238 165v-75l-217 186l217 186v-75l-130 -112z" />
    <glyph glyph-name="guilsinglright" unicode="&#x203a;" horiz-adv-x="306" 
d="M285 276l-217 -186v75l130 110l-130 112v75z" />
    <glyph glyph-name="fraction" unicode="&#x2044;" horiz-adv-x="154" 
d="M-148 0q-6 0 -8 3.5t1 8.5l417 744q5 7 12 7h28q6 0 8 -3.5t-1 -8.5l-417 -744q-5 -7 -12 -7h-28z" />
    <glyph glyph-name="Euro" unicode="&#x20ac;" horiz-adv-x="633" 
d="M254 65.5q-87 75.5 -116 198.5q-1 9 -11 9h-64q-10 0 -10 10v40q0 10 10 10h54q5 0 7.5 3t1.5 7l-1 39q0 14 2 44v2q0 4 -3 6t-7 2h-54q-10 0 -10 10v40q0 10 10 10h65q10 0 11 9q30 121 116.5 194.5t223.5 73.5q30 0 65 -5q9 0 9 -10v-66q0 -11 -11 -8q-30 6 -63 6
q-92 0 -154.5 -48.5t-90.5 -134.5l-1 -3q0 -8 10 -8h256q10 0 10 -10v-40q0 -10 -10 -10h-270q-8 0 -10 -9q-2 -30 -2 -45l1 -39q1 -10 11 -10h270q10 0 10 -10v-40q0 -10 -10 -10h-257q-5 0 -7.5 -3t-1.5 -8q25 -88 88.5 -138.5t157.5 -50.5q33 0 63 6l4 1q7 0 7 -9v-66
q0 -10 -8 -10q-35 -5 -66 -5q-138 0 -225 75.5z" />
    <glyph glyph-name="uni2116" unicode="&#x2116;" horiz-adv-x="1265" 
d="M872.5 327q-51.5 31 -80 85.5t-28.5 124.5q0 67 28.5 121t80 84.5t116.5 30.5t117 -30.5t81 -84.5t29 -121q0 -69 -29 -124t-80.5 -86t-117.5 -31q-65 0 -116.5 31zM89 0q-10 0 -10 10v743q0 10 10 10h116q9 0 12 -7l327 -641q3 -6 7 -6q2 0 3.5 2.5t1.5 6.5v635
q0 10 10 10h71q10 0 10 -10v-743q0 -10 -10 -10h-116q-9 0 -12 7l-326 639q-3 6 -7 6q-2 0 -3.5 -2.5t-1.5 -6.5v-633q0 -10 -10 -10h-72zM1067.5 381.5q35.5 23.5 56 64t20.5 91.5q0 48 -20 88t-55.5 63t-79.5 23q-43 0 -78.5 -22.5t-55.5 -62.5t-20 -89q0 -52 20 -92.5
t55.5 -63.5t78.5 -23t78.5 23.5zM800 127q-10 0 -10 10v44q0 10 10 10h381q10 0 10 -10v-44q0 -10 -10 -10h-381z" />
    <glyph glyph-name="trademark" unicode="&#x2122;" horiz-adv-x="816" 
d="M166 381q-10 0 -10 10v320q0 10 -10 10h-109q-10 0 -10 10v22q0 10 10 10h285q10 0 10 -10v-22q0 -10 -10 -10h-110q-10 0 -10 -10v-320q0 -10 -10 -10h-26zM389 381q-10 0 -10 10v362q0 10 10 10h63q9 0 12 -8l94 -297q3 -7 6 -7q5 0 6 7l93 297q3 8 12 8h64
q10 0 10 -10v-362q0 -10 -10 -10h-26q-10 0 -10 10v308q0 7 -5 7t-6 -5l-102 -312q-3 -8 -12 -8h-28q-9 0 -12 8l-102 310q-1 5 -6 5t-5 -7v-306q0 -10 -10 -10h-26z" />
    <glyph glyph-name="minus" unicode="&#x2212;" horiz-adv-x="635" 
d="M123 304q-10 0 -10 10v51q0 10 10 10h389q10 0 10 -10v-51q0 -10 -10 -10h-389z" />
    <glyph glyph-name="lozenge" unicode="&#x25ca;" horiz-adv-x="623" 
d="M255 0q-9 0 -12 7l-195 368q-3 7 0 14l195 367q3 7 12 7h113q9 0 12 -7l195 -368q4 -7 0 -14l-195 -367q-3 -7 -12 -7h-113zM305 47q3 -6 7 -6t7 6l167 329q3 7 0 14l-167 326q-3 6 -7 6t-7 -6l-167 -326q-3 -7 0 -14z" />
    <glyph glyph-name="uniF8FF" unicode="&#xf8ff;" horiz-adv-x="921" 
d="M88 0q-9 0 -9 10v743q0 10 9 10h744q10 0 10 -10v-743q0 -10 -10 -10h-744zM255 94q11 11 17 22.5t14 31.5q13 36 33 69t67 82l25 26q4 4 8 4t9 -3q7 -4 17 -6q10 -3 10 -13v-36q0 -43 -5.5 -67t-15.5 -47q-10 -20 -10 -37q0 -14 11 -25t25 -11q15 0 26 11t11 25
q0 17 -10 37q-10 23 -15.5 47t-5.5 67v36q0 10 10 13q13 4 15 6q5 3 8 3q5 0 9 -4l26 -26q48 -48 68 -81.5t33 -69.5q6 -19 12 -30.5t18 -23.5q17 -15 40 -15q26 0 41 15q17 17 17 42t-16 40q-12 12 -23.5 18t-30.5 12q-37 13 -70 32.5t-81 67.5l-26 26q-4 4 -4 9q0 3 3 7
q6 12 7 18q3 11 12 11h36q44 0 68.5 -6t46.5 -16q2 -1 13 -5.5t24 -4.5q14 0 25 11t11 26q0 14 -11 25.5t-25 11.5q-13 0 -24 -4.5t-13 -5.5q-22 -10 -46.5 -16t-68.5 -6h-36q-9 0 -12 11q-4 10 -7 15t-3 8q0 4 4 8l26 26q48 48 82 68.5t69 31.5q4 2 16 6.5t21 10t16 13.5
q17 19 17 41q0 24 -17 41q-16 16 -41 16t-40 -15q-11 -11 -17 -22.5t-14 -32.5q-13 -37 -32.5 -70t-67.5 -81l-25 -24q-3 -4 -9 -4q-4 0 -7 2q-5 3 -17 7q-10 3 -10 13v36q0 43 5.5 67t15.5 47q10 20 10 37q0 14 -11 25t-25 11q-15 0 -26 -11t-11 -25q0 -17 10 -37
q10 -23 15.5 -47t5.5 -67v-36q0 -10 -10 -13q-2 -1 -7.5 -2.5t-9.5 -4.5q-3 -2 -7 -2q-6 0 -10 4l-25 24q-49 49 -69.5 83t-31.5 69q-7 19 -13 31t-17 23q-16 16 -40 16q-22 0 -40 -16q-17 -17 -17 -42t16 -41q11 -11 22.5 -17t30.5 -13q36 -13 69 -33t82 -67l26 -25
q4 -4 4 -8q0 -3 -3 -8q-2 -3 -7 -16q-3 -11 -12 -11h-36q-44 0 -68.5 6t-46.5 16q-2 1 -13 5.5t-24 4.5q-14 0 -25 -11.5t-11 -25.5q0 -15 11 -26t25 -11q13 0 24 4.5t13 5.5q22 10 46.5 16t68.5 6h36q9 0 12 -11q5 -12 8 -17q2 -6 2 -7q0 -5 -4 -9l-26 -27
q-48 -49 -81.5 -68.5t-69.5 -31.5q-20 -7 -31.5 -13t-22.5 -17q-16 -15 -16 -40q0 -24 16 -41q16 -16 42 -16q25 0 40 15zM422 343.5q-16 16.5 -16 38.5t16 38t38 16t38 -16t16 -38q0 -23 -16 -39t-38 -16t-38 16.5zM492 354l-6 6q-10 -13 -26 -13q-14 0 -24 10.5t-10 24.5
t10.5 24t23.5 10q16 0 27 -13l5 6q-10 15 -32 15q-17 0 -30 -12.5t-13 -29.5t13 -30t30 -13q22 0 32 15z" />
    <glyph glyph-name="i.loclTRK" horiz-adv-x="227" 
d="M81 0q-10 0 -10 10v533q0 10 10 10h65q10 0 10 -10v-533q0 -10 -10 -10h-65zM68 666.5q-19 18.5 -19 44.5t19 44t46 18t46 -18t19 -44t-19 -44.5t-46 -18.5t-46 18.5z" />
    <glyph glyph-name="uni030C.alt" 
d="M-154 495q-4 0 -6.5 3t-2.5 7v25q0 8 9 11q41 8 64 36.5t23 69.5q0 10 -1 15q-1 6 -4.5 7t-7.5 -3q-11 -11 -35 -11q-22 0 -37 15.5t-15 41.5q0 27 17.5 44t46.5 17q39 0 62.5 -32t23.5 -84q0 -58 -33.5 -104.5t-101.5 -57.5h-2z" />
    <glyph glyph-name="uni0308.case" 
d="M-358.5 827.5q-17.5 16.5 -17.5 40.5t17.5 41t41.5 17q23 0 40.5 -17t17.5 -41q0 -23 -17.5 -40t-40.5 -17q-24 0 -41.5 16.5zM-158.5 827.5q-17.5 16.5 -17.5 40.5t17.5 41t41.5 17q23 0 40.5 -17t17.5 -41q0 -23 -17.5 -40t-40.5 -17q-24 0 -41.5 16.5z" />
    <glyph glyph-name="uni0307.case" 
d="M-158.5 827.5q-17.5 16.5 -17.5 40.5t17.5 41t41.5 17q23 0 40.5 -17t17.5 -41q0 -23 -17.5 -40t-40.5 -17q-24 0 -41.5 16.5z" />
    <glyph glyph-name="uni0328.case" 
d="M-142.5 -195q-28.5 25 -28.5 67q0 37 25 64t79 49v15h50q-10 -10 -26 -24q-37 -34 -50 -51t-13 -40t14 -36.5t39 -13.5q10 0 25 3h2q9 0 9 -9v-33q0 -9 -12 -12q-20 -4 -39 -4q-46 0 -74.5 25z" />
    <glyph glyph-name="uni0335.case" 
d="M-475 304q-10 0 -10 10v51q0 10 10 10h389q10 0 10 -10v-51q0 -10 -10 -10h-389z" />
    <glyph glyph-name="uni0337.case" 
d="M-381 243q-2 -1 -5 -1q-7 0 -7 8v48q0 9 7 12l348 179q2 1 5 1q7 0 7 -8v-47q0 -9 -7 -12z" />
    <glyph glyph-name="uni0338.case" 
d="M-647 35q-3 -3 -7 -3t-7 3l-31 31q-3 3 -3 7t3 7l649 649q3 3 7 3t7 -3l31 -32q3 -3 3 -7t-3 -7z" />
    <glyph glyph-name="base_No" horiz-adv-x="481" 
d="M481 0h-481v77h481v-77z" />
    </font>
</defs>
</svg>
