<svg width="239" height="50" viewBox="0 0 239 50" fill="none" xmlns="http://www.w3.org/2000/svg">
<path fill-rule="evenodd" clip-rule="evenodd" d="M77.1393 14.1767C76.0903 14.8947 75.3133 16.2017 74.8303 18.0597L73.1963 24.2187L71.5613 18.0557C71.0603 16.2187 70.2813 14.9187 69.2463 14.1927C68.2113 13.4677 66.7233 13.1147 64.7003 13.1147H64.1123V32.4227H67.7223V17.6697C67.8513 17.8937 68.0303 18.2877 68.2293 18.9707L71.6173 30.5057H74.7763L78.1363 18.9737C78.3093 18.3967 78.4893 17.9547 78.6713 17.6577V32.4227H82.2803V13.1147H81.6933C79.6713 13.1147 78.1813 13.4627 77.1393 14.1767Z" fill="#222121"/>
<path fill-rule="evenodd" clip-rule="evenodd" d="M95.3943 20.7314H92.4843C91.0773 20.7314 89.8853 21.0294 88.9263 21.6204V20.6444C88.9263 19.1914 89.2473 18.1374 89.8793 17.5134C90.5213 16.8774 91.3733 16.5694 92.4843 16.5694H95.3943V20.7314ZM87.4013 15.2744C86.1043 16.6924 85.4463 18.4294 85.4463 20.4374V32.4224H88.9263V25.4274C89.3253 25.0014 89.7693 24.6924 90.2463 24.5084C90.8063 24.2944 91.5593 24.1854 92.4843 24.1854H95.3943V32.4224H99.0033V13.1154H92.4843C90.4223 13.1154 88.7113 13.8414 87.4013 15.2744Z" fill="#222121"/>
<path fill-rule="evenodd" clip-rule="evenodd" d="M112.74 20.7314H106.039V13.1154H102.43V32.4224H106.039V24.1854H112.74V32.4224H116.35V13.1154H112.74V20.7314Z" fill="#222121"/>
<path fill-rule="evenodd" clip-rule="evenodd" d="M129.464 20.7314H126.554C125.147 20.7314 123.956 21.0294 122.996 21.6204V20.6444C122.996 19.1914 123.317 18.1374 123.949 17.5134C124.591 16.8774 125.443 16.5694 126.554 16.5694H129.464V20.7314ZM121.471 15.2744C120.174 16.6924 119.516 18.4294 119.516 20.4374V32.4224H122.996V25.4274C123.395 25.0014 123.839 24.6924 124.316 24.5084C124.876 24.2944 125.629 24.1854 126.554 24.1854H129.464V32.4224H133.073V13.1154H126.554C124.492 13.1154 122.781 13.8414 121.471 15.2744Z" fill="#222121"/>
<path fill-rule="evenodd" clip-rule="evenodd" d="M140.403 27.7607C140.207 27.2627 140.107 26.5417 140.107 25.6177V13.1147H136.498V25.6697C136.498 26.8157 136.599 27.8317 136.798 28.6907C137.014 29.6257 137.492 30.4367 138.227 31.1117C138.703 31.5287 139.29 31.8437 139.973 32.0477C140.626 32.2437 141.165 32.3537 141.62 32.3827C142.038 32.4087 142.613 32.4227 143.328 32.4227H147.697V28.9687H142.68C141.101 28.9687 140.62 28.2707 140.403 27.7607Z" fill="#222121"/>
<path fill-rule="evenodd" clip-rule="evenodd" d="M159.646 20.7314H156.736C155.329 20.7314 154.137 21.0294 153.178 21.6204V20.6444C153.178 19.1914 153.499 18.1374 154.13 17.5134C154.773 16.8774 155.625 16.5694 156.736 16.5694H159.646V20.7314ZM151.653 15.2744C150.356 16.6924 149.698 18.4294 149.698 20.4374V32.4224H153.178V25.4274C153.577 25.0014 154.02 24.6924 154.498 24.5084C155.058 24.2944 155.811 24.1854 156.736 24.1854H159.646V32.4224H163.255V13.1154H156.736C154.673 13.1154 152.963 13.8414 151.653 15.2744Z" fill="#222121"/>
<path fill-rule="evenodd" clip-rule="evenodd" d="M175.27 13.1152L171.632 20.5702C171.368 20.5542 170.955 20.5352 170.291 20.5142V13.1152H166.682V32.4232H170.291V23.8352C172.205 23.9072 173.513 24.2612 174.186 24.8932C174.914 25.5772 175.283 26.8232 175.283 28.5972V32.4232H178.944V28.5972C178.944 25.0662 177.617 22.6682 174.998 21.4582L179.236 13.1152H175.27Z" fill="#222121"/>
<path fill-rule="evenodd" clip-rule="evenodd" d="M191.798 22.7245C191.35 22.3145 190.895 21.9785 190.445 21.7265C190.012 21.4815 189.48 21.2385 188.859 21.0005C187.597 20.5365 186.59 20.0485 185.865 19.5515C185.262 19.1375 184.968 18.6645 184.968 18.1065C184.968 17.3455 185.209 16.5695 186.997 16.5695H192.17V13.1155H186.842C185.214 13.1155 183.865 13.5175 182.831 14.3125C181.751 15.1425 181.203 16.3925 181.203 18.0285C181.203 20.6345 182.699 22.5275 185.639 23.6505C185.733 23.6885 185.864 23.7355 186.02 23.7865C186.564 23.9845 187.04 24.1785 187.435 24.3625C187.815 24.5395 188.19 24.7525 188.55 24.9935C188.861 25.2015 189.102 25.4455 189.263 25.7205C189.418 25.9865 189.493 26.2905 189.493 26.6545C189.493 27.4115 189.223 27.9435 188.643 28.3285C188 28.7525 187.142 28.9685 186.091 28.9685H181.54V32.4225H186.168C186.636 32.4225 186.995 32.4135 187.222 32.3965C187.847 32.3775 188.491 32.2585 189.139 32.0425C189.783 31.8285 190.42 31.5075 191.031 31.0895C191.68 30.6485 192.213 30.0365 192.618 29.2745C193.026 28.5105 193.232 27.6385 193.232 26.6805C193.232 25.8405 193.116 25.0825 192.888 24.4285C192.651 23.7435 192.283 23.1695 191.798 22.7245Z" fill="#222121"/>
<path fill-rule="evenodd" clip-rule="evenodd" d="M206.192 20.7314H199.49V13.1154H195.88V32.4224H199.49V24.1854H206.192V32.4224H209.801V13.1154H206.192V20.7314Z" fill="#222121"/>
<path fill-rule="evenodd" clip-rule="evenodd" d="M226.253 14.1767C225.204 14.8957 224.428 16.2027 223.945 18.0597L222.311 24.2177L220.675 18.0557C220.175 16.2177 219.396 14.9177 218.36 14.1927C217.324 13.4677 215.838 13.1147 213.814 13.1147H213.227V32.4227H216.836V17.6687C217.005 17.9587 217.176 18.3967 217.345 18.9707L220.732 30.5057H223.892L227.251 18.9747C227.425 18.3967 227.605 17.9537 227.786 17.6577V32.4227H231.395V13.1147H230.808C228.785 13.1147 227.295 13.4627 226.253 14.1767Z" fill="#222121"/>
<path fill-rule="evenodd" clip-rule="evenodd" d="M234.819 32.423H238.427V13.115H234.819V32.423Z" fill="#222121"/>
<path fill-rule="evenodd" clip-rule="evenodd" d="M65.7784 49.0888H64.3374V38.3538H65.7784V42.8618H70.4404V38.3538H71.8824V49.0888H70.4404V44.2118H65.7784V49.0888Z" fill="#616061"/>
<path fill-rule="evenodd" clip-rule="evenodd" d="M83.5049 43.7665C83.4939 43.1945 83.4099 42.6525 83.2519 42.1415C83.0929 41.6295 82.8629 41.1825 82.5619 40.7995C82.2599 40.4155 81.8949 40.1115 81.4649 39.8865C81.0359 39.6625 80.5499 39.5495 80.0079 39.5495C79.4659 39.5495 78.9809 39.6625 78.5509 39.8865C78.1219 40.1115 77.7559 40.4155 77.4549 40.7995C77.1529 41.1825 76.9229 41.6295 76.7649 42.1415C76.6059 42.6525 76.5219 43.1945 76.5109 43.7665C76.5219 44.3495 76.6059 44.8915 76.7649 45.3925C76.9229 45.8935 77.1529 46.3285 77.4549 46.6965C77.7559 47.0645 78.1219 47.3555 78.5509 47.5705C78.9809 47.7855 79.4659 47.8925 80.0079 47.8925C80.5499 47.8925 81.0359 47.7855 81.4649 47.5705C81.8949 47.3555 82.2599 47.0645 82.5619 46.6965C82.8629 46.3285 83.0929 45.8935 83.2519 45.3925C83.4099 44.8915 83.4939 44.3495 83.5049 43.7665ZM74.9629 43.7665C74.9729 42.9185 75.1009 42.1515 75.3459 41.4665C75.5909 40.7815 75.9339 40.1965 76.3739 39.7105C76.8129 39.2255 77.3399 38.8515 77.9529 38.5905C78.5669 38.3295 79.2519 38.2005 80.0079 38.2005C80.7549 38.2005 81.4369 38.3295 82.0559 38.5905C82.6739 38.8515 83.2029 39.2255 83.6429 39.7105C84.0829 40.1965 84.4249 40.7815 84.6709 41.4665C84.9159 42.1515 85.0439 42.9185 85.0539 43.7665C85.0439 44.6155 84.9189 45.3765 84.6779 46.0515C84.4379 46.7265 84.0979 47.2995 83.6579 47.7695C83.2179 48.2405 82.6899 48.6035 82.0709 48.8585C81.4519 49.1145 80.7649 49.2425 80.0079 49.2425C79.2519 49.2425 78.5639 49.1145 77.9449 48.8585C77.3269 48.6035 76.7979 48.2405 76.3589 47.7695C75.9189 47.2995 75.5789 46.7265 75.3379 46.0515C75.0979 45.3765 74.9729 44.6155 74.9629 43.7665Z" fill="#616061"/>
<path fill-rule="evenodd" clip-rule="evenodd" d="M93.1198 45.7607H93.2108L94.4688 41.0217C94.7348 39.9997 95.1438 39.2987 95.6958 38.9207C96.2478 38.5417 97.0808 38.3537 98.1958 38.3537V49.0887H96.7538V39.9787C96.4888 40.0917 96.2868 40.2497 96.1478 40.4537C96.0108 40.6587 95.8798 40.9657 95.7568 41.3737L93.8408 47.9537H92.4908L90.5578 41.3737C90.4358 40.9547 90.3068 40.6467 90.1748 40.4477C90.0418 40.2467 89.8428 40.0917 89.5768 39.9787V49.0887H88.1348V38.3537C89.2488 38.3537 90.0798 38.5447 90.6268 38.9287C91.1738 39.3117 91.5858 40.0097 91.8618 41.0217L93.1198 45.7607Z" fill="#616061"/>
<path fill-rule="evenodd" clip-rule="evenodd" d="M107.457 49.0888H101.353V40.9138C101.353 40.1578 101.594 39.5498 102.074 39.0888C102.401 38.7818 102.77 38.5828 103.178 38.4908C103.587 38.3998 104.088 38.3538 104.681 38.3538H107.457V39.7028H104.482C103.357 39.7028 102.795 40.1728 102.795 41.1138V42.8618H106.338V44.2118H102.795V47.7388H107.457V49.0888Z" fill="#616061"/>
<path fill-rule="evenodd" clip-rule="evenodd" d="M115.721 38.3535V39.7035H113.007C111.974 39.7035 111.458 40.1225 111.458 40.9595C111.458 41.4105 111.685 41.7915 112.14 42.1025C112.595 42.4155 113.211 42.7135 113.988 42.9995C114.336 43.1325 114.632 43.2685 114.878 43.4065C115.123 43.5445 115.368 43.7255 115.614 43.9515C115.859 44.1755 116.043 44.4645 116.166 44.8175C116.289 45.1695 116.35 45.5775 116.35 46.0365C116.35 46.5475 116.242 47.0055 116.028 47.4095C115.813 47.8135 115.537 48.1295 115.2 48.3605C114.863 48.5895 114.517 48.7645 114.165 48.8815C113.812 48.9995 113.467 49.0635 113.129 49.0735C112.986 49.0835 112.782 49.0885 112.516 49.0885H110.124V47.7395H112.47C113.165 47.7395 113.733 47.5935 114.173 47.3015C114.612 47.0105 114.832 46.5835 114.832 46.0215C114.832 45.7455 114.77 45.5025 114.648 45.2925C114.525 45.0835 114.348 44.9015 114.119 44.7485C113.888 44.5945 113.653 44.4615 113.413 44.3495C113.173 44.2375 112.884 44.1205 112.547 43.9975C112.454 43.9665 112.383 43.9415 112.332 43.9195C110.727 43.3065 109.924 42.3045 109.924 40.9145C109.924 40.0555 110.2 39.4145 110.752 38.9895C111.304 38.5655 112.025 38.3535 112.915 38.3535H115.721Z" fill="#616061"/>
<path fill-rule="evenodd" clip-rule="evenodd" d="M43.542 29.316H47.87V24.988H43.542V29.316ZM43.542 34.425H47.87V30.097H43.542V34.425ZM38.437 29.316H42.766V24.988H38.437V29.316ZM38.437 34.425H42.766V30.097H38.437V34.425ZM23.245 43.961H16.906V9.935L23.245 7.281V43.961ZM11.622 43.961H5.284V14.802L11.622 12.148V43.961ZM28.529 22.736V5.069V2.221V0L23.245 2.221L0 11.992V43.961V49.242H51.774V43.961V18.034V17.411V12.965L28.529 22.736Z" fill="#231F20"/>
<path fill-rule="evenodd" clip-rule="evenodd" d="M43.542 29.316H47.87V24.988H43.542V29.316ZM43.542 34.425H47.87V30.097H43.542V34.425ZM38.437 29.316H42.766V24.988H38.437V29.316ZM38.437 34.425H42.766V30.097H38.437V34.425ZM23.245 43.961H16.906V9.935L23.245 7.281V43.961ZM11.622 43.961H5.284V14.802L11.622 12.148V43.961ZM28.529 22.736V5.069V2.221V0L23.245 2.221L0 11.992V43.961V49.242H51.774V43.961V18.034V17.411V12.965L28.529 22.736Z" fill="url(#paint0_linear)"/>
<path fill-rule="evenodd" clip-rule="evenodd" d="M43.542 29.316H47.87V24.988H43.542V29.316ZM43.542 34.425H47.87V30.097H43.542V34.425ZM38.437 29.316H42.766V24.988H38.437V29.316ZM38.437 34.425H42.766V30.097H38.437V34.425ZM23.245 43.961H16.906V9.935L23.245 7.281V43.961ZM11.622 43.961H5.284V14.802L11.622 12.148V43.961ZM28.529 22.736V5.069V2.221V0L23.245 2.221L0 11.992V43.961V49.242H51.774V43.961V18.034V17.411V12.965L28.529 22.736Z" fill="#027A26"/>
<defs>
<linearGradient id="paint0_linear" x1="-20.1455" y1="35.5424" x2="29.6474" y2="76.2842" gradientUnits="userSpaceOnUse">
<stop stop-color="#6DD400"/>
<stop offset="1" stop-color="#027A26"/>
</linearGradient>
</defs>
</svg>
