<svg width="437" height="300" viewBox="0 0 437 300" fill="none" xmlns="http://www.w3.org/2000/svg">
<rect width="437" height="300" fill="#027A26"/>
<path fill-rule="evenodd" clip-rule="evenodd" d="M222.07 96.0532C220.264 94.6489 217.736 94.6489 215.93 96.0532L170.93 131.053C169.712 132.001 169 133.457 169 135V190C169 193.978 170.58 197.794 173.393 200.607C176.206 203.42 180.022 205 184 205H204H234H254C257.978 205 261.794 203.42 264.607 200.607C267.42 197.794 269 193.978 269 190V135C269 133.457 268.288 132.001 267.07 131.053L222.07 96.0532ZM239 195H254C255.326 195 256.598 194.473 257.536 193.536C258.473 192.598 259 191.326 259 190V137.445L219 106.334L179 137.445V190C179 191.326 179.527 192.598 180.464 193.536C181.402 194.473 182.674 195 184 195H199V150C199 147.239 201.239 145 204 145H234C236.761 145 239 147.239 239 150V195ZM209 195V155H229V195H209Z" fill="white"/>
</svg>
